<svg width="50" height="50" viewBox="0 0 50 50" fill="none" xmlns="http://www.w3.org/2000/svg">
<path d="M9.80487 6.91406L15.0392 6.95312C13.1252 8.86719 11.9924 11.3281 11.6017 14.1016L9.60955 14.0625C7.46112 13.9844 5.78143 12.3828 5.82049 10.4297C5.82049 8.4375 7.5783 6.91406 9.80487 6.91406ZM25.508 37.0703C25.8596 37.9297 28.2033 42.6953 28.2033 42.6953H21.5236C21.5236 42.6953 23.6721 38.2031 24.1408 37.0703C24.5314 36.2109 25.1174 36.1719 25.508 37.0703Z" fill="url(#paint0_linear_193_1650)"/>
<path d="M44.8828 18.7111C44.4531 20.3908 42.7344 21.6408 40.625 21.6408H38.6719C38.5547 21.6799 38.4766 21.758 38.5156 21.8752V42.6955H34.9609L28.125 28.5548C28.8281 27.7736 29.2578 26.7189 29.2578 25.5861C29.2578 23.7111 28.1641 22.0314 26.5234 21.3674V19.4533C26.5234 18.633 25.8203 18.047 25 18.047H24.9219C24.1016 18.047 23.3984 18.7502 23.3984 19.5705V21.3674C21.6016 21.9533 20.2734 23.633 20.2734 25.6642C20.2734 26.8361 20.7422 27.9298 21.4844 28.7111L14.8438 42.7345H9.02344C6.79688 42.7345 5.03906 40.9377 5.03906 38.7111V11.6017C5.03906 11.6017 5.03906 11.3674 5.07813 11.6017C5.39063 13.4767 7.03125 14.922 9.02344 14.9611H39.0625C39.0234 14.9611 44.7656 14.4533 44.8828 18.7111Z" fill="url(#paint1_linear_193_1650)"/>
<path d="M24.7266 23.3594C25.9375 23.3594 26.9531 24.375 26.9141 25.625C26.9141 26.8359 25.8984 27.8516 24.6484 27.8125C23.4375 27.8125 22.4609 26.7969 22.4609 25.5859C22.4609 25 22.6953 24.4531 23.125 24.0234C23.5938 23.5937 24.1406 23.3594 24.7266 23.3594V23.3594ZM25.625 22.0703V19.7266C25.625 19.4531 25.5078 19.2188 25.2734 19.1016C24.9219 18.9063 24.4922 19.0234 24.2969 19.375C24.2188 19.4922 24.1797 19.6094 24.2188 19.7656V22.0313C22.2656 22.3438 20.8984 24.1797 21.2109 26.1719V26.2109C21.3672 27.1484 21.875 28.0078 22.6563 28.5547L14.3359 46.4063C14.0234 47.0313 14.0625 47.8125 14.4922 48.3984C15.1172 49.2969 16.3281 49.5312 17.2266 48.9062C17.5391 48.7109 17.7734 48.3984 17.9297 48.0859L23.4375 36.1328C23.7891 35.3516 24.7266 35 25.5469 35.3906C25.8594 35.5469 26.1328 35.8203 26.2891 36.1328L31.9531 47.9688C32.4219 48.9453 33.5938 49.3359 34.5703 48.8672C35.5469 48.3984 35.9375 47.2266 35.4688 46.25L26.9531 28.4766C28.5156 27.2266 28.7891 24.9219 27.5391 23.3594C27.0703 22.7344 26.4062 22.3047 25.625 22.0703M31.0938 5.03906H31.0547L33.125 1.44531C33.2422 1.25 33.1641 1.01563 33.0078 0.859375C32.8125 0.78125 32.6172 0.820312 32.5 0.976562L30.3125 4.6875C26.9141 3.16406 23.0078 3.16406 19.5703 4.6875L17.4609 1.01562C17.3828 0.898437 17.2266 0.78125 17.0703 0.78125C16.9141 0.78125 16.7578 0.859375 16.6797 1.01562C16.6016 1.17187 16.6016 1.32813 16.6797 1.44531L18.7891 5.03906C15.3516 6.95312 13.0859 10.2344 12.5391 14.0625H37.4609C36.875 10.2344 34.5313 6.95312 31.0938 5.03906V5.03906ZM20 10.9375L19.8438 11.0937C19.6484 11.2891 19.375 11.4063 19.1016 11.4063H19.1406C18.5547 11.4063 18.0859 10.9375 18.0859 10.3906V10.3516C18.0859 10.0781 18.2031 9.80469 18.3984 9.60938C18.75 9.17969 19.4141 9.10156 19.8438 9.45313C20.3516 9.80469 20.3906 10.4687 20 10.9375ZM30.7031 11.3281C30.1172 11.3672 29.6484 10.8984 29.6484 10.3125V10.2734C29.6484 10 29.7656 9.72656 29.9609 9.53125C30.3516 9.14062 31.0156 9.14062 31.4453 9.53125C31.6406 9.72656 31.7578 10 31.7578 10.2734C31.7578 10.8984 31.2891 11.3281 30.7031 11.3281V11.3281ZM41.2891 22.6562H39.6484C39.5703 22.6953 39.4922 22.7734 39.4922 22.8906V48.8672C39.4922 48.9844 39.5703 49.0625 39.6875 49.0625H41.4063C43.3984 49.0625 45 47.4219 45 45.4688C45 45.4688 44.9609 21.6016 45 20.7031C45.0391 19.7656 44.8047 20.4297 44.7266 20.625C44.1406 21.875 42.8516 22.6953 41.3672 22.6953H41.2891V22.6562Z" fill="url(#paint2_linear_193_1650)"/>
<path d="M24.7266 26.8359C25.4169 26.8359 25.9766 26.2763 25.9766 25.5859C25.9766 24.8956 25.4169 24.3359 24.7266 24.3359C24.0362 24.3359 23.4766 24.8956 23.4766 25.5859C23.4766 26.2763 24.0362 26.8359 24.7266 26.8359Z" fill="url(#paint3_linear_193_1650)"/>
<defs>
<linearGradient id="paint0_linear_193_1650" x1="28.2033" y1="24.8047" x2="8.23373" y2="24.8047" gradientUnits="userSpaceOnUse">
<stop stop-color="#8F8F8F"/>
<stop offset="1" stop-color="#373737"/>
</linearGradient>
<linearGradient id="paint1_linear_193_1650" x1="44.8828" y1="27.116" x2="9.33594" y2="27.116" gradientUnits="userSpaceOnUse">
<stop stop-color="#8F8F8F"/>
<stop offset="1" stop-color="#373737"/>
</linearGradient>
<linearGradient id="paint2_linear_193_1650" x1="45.0044" y1="25.0192" x2="16.0402" y2="25.0192" gradientUnits="userSpaceOnUse">
<stop stop-color="#8F8F8F"/>
<stop offset="1" stop-color="#373737"/>
</linearGradient>
<linearGradient id="paint3_linear_193_1650" x1="25.9766" y1="25.5859" x2="23.7462" y2="25.5859" gradientUnits="userSpaceOnUse">
<stop stop-color="#8F8F8F"/>
<stop offset="1" stop-color="#373737"/>
</linearGradient>
</defs>
</svg>
