<svg width="50" height="50" viewBox="0 0 50 50" fill="none" xmlns="http://www.w3.org/2000/svg">
<path d="M38.2441 26.5176C38.3121 33.8614 44.6871 36.3055 44.7574 36.3368C44.7035 36.5086 43.7391 39.8196 41.3992 43.2387C39.3766 46.195 37.277 49.1403 33.9703 49.202C30.7211 49.2614 29.6762 47.2747 25.9609 47.2747C22.2469 47.2747 21.0863 49.1403 18.0102 49.2614C14.818 49.3825 12.3871 46.0641 10.3477 43.1192C6.18048 37.0942 2.99571 26.0938 7.27188 18.6684C9.3961 14.9809 13.193 12.6461 17.3137 12.586C20.4481 12.5262 23.4066 14.6946 25.3227 14.6946C27.2375 14.6946 30.8328 12.0868 34.6125 12.4696C36.1949 12.5356 40.6363 13.1086 43.4883 17.2836C43.259 17.4262 38.1891 20.3778 38.2441 26.5176ZM32.1375 8.48403C33.832 6.43286 34.9727 3.57661 34.6617 0.735596C32.2188 0.833643 29.2648 2.36333 27.5129 4.41372C25.9426 6.22895 24.5676 9.13521 24.9383 11.92C27.6613 12.1309 30.4426 10.5364 32.1375 8.48403Z" fill="url(#paint0_linear_193_1679)"/>
<defs>
<linearGradient id="paint0_linear_193_1679" x1="44.7574" y1="25.0001" x2="9.50407" y2="25.0001" gradientUnits="userSpaceOnUse">
<stop stop-color="#8F8F8F"/>
<stop offset="1" stop-color="#373737"/>
</linearGradient>
</defs>
</svg>
