<svg width="50" height="50" viewBox="0 0 50 50" fill="none" xmlns="http://www.w3.org/2000/svg">
<path fill-rule="evenodd" clip-rule="evenodd" d="M0.117188 25.9766V22.2266C0.195312 22.1875 0.195312 22.1094 0.195312 22.0312C1.36719 16.9141 4.57031 13.8281 9.64844 12.6172C10.0781 12.5 10.5469 12.5391 10.9766 12.3828H13.4766C13.5156 12.4609 13.6328 12.4219 13.7109 12.4219C16.2109 12.6953 18.4766 13.5937 20.4688 15.1562C22.1875 16.4453 23.5156 18.0859 24.7266 19.8437C24.8828 20.0781 24.9609 20.0781 25.1172 19.8437C25.8203 18.8281 26.5625 17.8516 27.4219 16.9531C29.4922 14.7266 31.9922 13.1641 35.0391 12.6172C35.4687 12.5 35.9766 12.5391 36.4062 12.3828H38.8281C38.8672 12.4609 38.9453 12.4219 39.0234 12.4219C39.7656 12.5 40.4688 12.6563 41.1719 12.8516C46.4062 14.375 50.1172 19.1797 49.8047 24.6094C49.5703 29.1797 47.2656 32.4609 43.2422 34.5312C41.25 35.625 39.0625 35.8984 36.7969 35.8594C33.8281 35.8203 31.25 34.8047 29.0234 32.8516C27.4609 31.4844 26.25 29.8438 25.1172 28.125C24.9609 27.8906 24.8828 27.9297 24.7266 28.1641C24.0234 29.2188 23.2812 30.2734 22.4219 31.2891C20.8984 33.0078 19.1406 34.4141 16.9531 35.1562C14.2578 36.0938 11.5234 36.1328 8.78906 35.3906C4.84375 34.2578 2.14844 31.7578 0.664063 27.9297C0.429688 27.3047 0.3125 26.6016 0.117188 25.9766ZM12.5391 31.7187C14.7656 31.7969 16.6797 31.0547 18.3203 29.5312C20 27.9687 21.2109 26.0156 22.4219 24.1016C22.4609 23.9844 22.4609 23.9062 22.3828 23.7891C21.3672 22.1875 20.3125 20.5859 18.9062 19.2578C16.2109 16.6797 13.0469 15.8203 9.49219 16.9531C6.5625 17.9297 4.6875 20 4.25781 23.125C3.82812 26.0547 4.96094 28.3984 7.30469 30.1562C8.86719 31.2891 10.625 31.7578 12.5391 31.7187ZM37.3047 31.7187C38.1641 31.7187 39.0234 31.6797 39.8438 31.4453C42.9297 30.5078 44.9609 28.5938 45.5469 25.3906C46.1328 22.2266 44.9219 19.6875 42.2656 17.8906C39.3359 15.8594 35.0781 16.0547 32.1094 18.2812C30.1172 19.7656 28.7891 21.7578 27.4609 23.8281C27.3828 23.9453 27.4219 24.0234 27.4609 24.1406C28.5156 25.8203 29.5703 27.5 30.9375 28.9453C32.6562 30.7812 34.7266 31.8359 37.3047 31.7187Z" fill="url(#paint0_linear_193_900)"/>
<path fill-rule="evenodd" clip-rule="evenodd" d="M12.5 22.8514C13.75 22.8514 15.0391 22.8905 16.2891 22.8514C16.6016 22.8514 16.6406 22.9296 16.6406 23.2421C16.6016 23.5936 16.6016 23.9452 16.6406 24.2967C16.6797 24.6092 16.6016 24.6874 16.25 24.6874H11.25C10.3906 24.6874 9.53125 24.6483 8.67188 24.6874C8.39844 24.6874 8.32031 24.6092 8.32031 24.2967C8.35938 23.9452 8.35938 23.5936 8.32031 23.203C8.32031 22.9296 8.39844 22.8514 8.67188 22.8514C9.92188 22.8905 11.2109 22.8514 12.5 22.8514ZM37.1094 20.3514C37.4219 20.3514 37.7344 20.3905 38.0078 20.3514C38.2031 20.3514 38.2812 20.4296 38.2812 20.6249C38.2422 21.1717 38.2813 21.7186 38.2422 22.2655C38.2422 22.5389 38.3203 22.6171 38.5938 22.6171C39.1016 22.578 39.6484 22.6171 40.1953 22.578C40.4297 22.578 40.5078 22.6171 40.5078 22.8905V24.6874C40.5078 24.8827 40.4297 24.9608 40.2344 24.9608C39.6875 24.9217 39.1406 24.9608 38.5547 24.9217C38.3203 24.9217 38.2422 24.9999 38.2422 25.2342C38.2813 25.7811 38.2422 26.328 38.2812 26.8749C38.2812 27.1092 38.2031 27.2264 37.9687 27.2264C37.3828 27.1874 36.7969 27.1874 36.2109 27.2264C35.9766 27.2264 35.8984 27.1483 35.8984 26.9139C35.9375 26.328 35.8984 25.7811 35.9375 25.1952C35.9375 24.9999 35.8594 24.9217 35.6641 24.9217C35.1172 24.9608 34.5703 24.9217 34.0234 24.9608C33.7109 24.9608 33.6719 24.8436 33.6719 24.6092C33.6719 24.0624 33.7109 23.5155 33.6719 22.9686C33.6328 22.6561 33.7891 22.578 34.0625 22.578C34.6094 22.6171 35.1172 22.578 35.6641 22.6171C35.8594 22.6171 35.9375 22.5389 35.9375 22.3436C35.8984 21.7967 35.9375 21.2108 35.8984 20.6639C35.8984 20.4296 35.9766 20.3514 36.2109 20.3514C36.5234 20.3905 36.7969 20.3514 37.1094 20.3514ZM48.7703 9.5612C48.7184 9.63894 48.7 9.66472 48.6832 9.69089C48.5887 9.83269 48.6617 10.1194 48.4238 10.1151C48.2129 10.1104 48.2664 9.84792 48.1918 9.70456C48.1723 9.66628 48.1488 9.63112 48.0836 9.52448C48.0836 9.72136 48.0867 9.83269 48.0836 9.94558C48.0805 10.0217 48.0973 10.1178 47.9766 10.1241C47.8547 10.1303 47.8621 10.0327 47.8605 9.95612C47.8578 9.6905 47.8578 9.42683 47.8594 9.16276C47.8594 9.07292 47.8453 8.96901 47.9859 8.96589C48.0914 8.96433 48.1828 8.96003 48.227 9.09714C48.2832 9.26511 48.3031 9.45261 48.4328 9.61433C48.5566 9.4573 48.5777 9.27565 48.625 9.10925C48.6648 8.9737 48.7488 8.96472 48.8586 8.96472C48.9977 8.96589 48.9914 9.06355 48.993 9.15534C48.9945 9.42097 48.9945 9.68464 48.9914 9.95026C48.9898 10.0249 49.0004 10.1241 48.8816 10.1257C48.7625 10.1257 48.7715 10.0311 48.7703 9.953C48.7672 9.84011 48.7703 9.72878 48.7703 9.5612ZM47.3203 8.96276C47.3543 8.96276 47.3906 8.9569 47.4227 8.96276C47.5496 8.98737 47.7461 8.88972 47.7875 9.04089C47.8438 9.253 47.6211 9.14636 47.5266 9.19167C47.432 9.23737 47.4504 9.32136 47.4484 9.39792C47.4441 9.58073 47.4457 9.76394 47.4457 9.94714C47.4457 10.0479 47.4262 10.1319 47.2961 10.1268C47.177 10.1229 47.1816 10.0354 47.1816 9.95612C47.1781 9.78479 47.1776 9.61341 47.1801 9.44206C47.1848 9.29558 47.1863 9.15808 46.9758 9.178C46.9023 9.18425 46.8383 9.16276 46.8383 9.0698C46.8383 8.94167 46.9375 8.96745 47.0109 8.96433C47.1145 8.95964 47.2168 8.96276 47.3207 8.96276H47.3203Z" fill="url(#paint1_linear_193_900)"/>
<defs>
<linearGradient id="paint0_linear_193_900" x1="49.823" y1="24.1452" x2="5.47762" y2="24.1452" gradientUnits="userSpaceOnUse">
<stop stop-color="#8F8F8F"/>
<stop offset="1" stop-color="#373737"/>
</linearGradient>
<linearGradient id="paint1_linear_193_900" x1="48.994" y1="18.0903" x2="12.7067" y2="18.0903" gradientUnits="userSpaceOnUse">
<stop stop-color="#8F8F8F"/>
<stop offset="1" stop-color="#373737"/>
</linearGradient>
</defs>
</svg>
