<svg width="25" height="28" viewBox="0 0 25 28" fill="none" xmlns="http://www.w3.org/2000/svg">
<path d="M24.6059 21.0001C24.8014 20.6619 24.923 20.2809 24.923 19.9387V8.06142C24.923 7.71925 24.8016 7.3383 24.606 7.00012L12.4614 14.0001L24.6059 21.0001Z" fill="#00599C"/>
<path d="M13.5405 27.7433L23.8437 21.8047C24.1405 21.6337 24.4102 21.3382 24.6058 21L12.4613 14L0.316895 21.0001C0.512451 21.3382 0.782288 21.6337 1.079 21.8047L11.3822 27.7433C11.9757 28.0855 12.947 28.0855 13.5405 27.7433Z" fill="#004482"/>
<path d="M24.6061 6.99998C24.4104 6.66172 24.1406 6.36631 23.8439 6.19523L13.5407 0.256623C12.9472 -0.0855412 11.9759 -0.0855412 11.3823 0.256623L1.07918 6.19523C0.485593 6.53731 0 7.37711 0 8.06136V19.9387C0 20.2808 0.121439 20.6618 0.317077 21L12.4615 14L24.6061 6.99998Z" fill="#659AD2"/>
<path d="M12.4615 22.294C7.88062 22.294 4.15381 18.5734 4.15381 14.0001C4.15381 9.42681 7.88062 5.70618 12.4615 5.70618C15.4174 5.70618 18.1742 7.29422 19.6559 9.85053L16.0605 11.9276C15.3189 10.648 13.9398 9.85313 12.4615 9.85313C10.171 9.85313 8.30765 11.7134 8.30765 14.0001C8.30765 16.2867 10.171 18.147 12.4615 18.147C13.9399 18.147 15.3191 17.3521 16.0608 16.0724L19.6561 18.1493C18.1744 20.7059 15.4176 22.294 12.4615 22.294Z" fill="white"/>
<path d="M20.7692 13.5392H19.8461V12.6177H18.9231V13.5392H18V14.4607H18.9231V15.3823H19.8461V14.4607H20.7692V13.5392Z" fill="white"/>
<path d="M24.2307 13.5392H23.3075V12.6177H22.3846V13.5392H21.4614V14.4607H22.3846V15.3823H23.3075V14.4607H24.2307V13.5392Z" fill="white"/>
</svg>
