<svg width="50" height="50" viewBox="0 0 50 50" fill="none" xmlns="http://www.w3.org/2000/svg">
<path d="M23.1991 0.0589754C23.0101 0.0788972 22.4198 0.148819 21.8991 0.210147C19.7999 0.4496 17.4194 1.08007 15.3304 1.96015C7.76982 5.11913 2.07959 12.05 0.509668 19.9996C0.140137 21.8902 0.050293 22.8191 0.050293 24.9996C0.050293 27.8101 0.32959 29.7496 1.06982 32.2004C3.48975 40.2199 9.78975 46.5098 17.83 48.9391C20.2499 49.6699 22.1999 49.9492 24.9999 49.9492C27.8104 49.9492 29.7499 49.6699 32.2007 48.9297C40.2202 46.5098 46.5101 40.2098 48.9394 32.1695C49.6702 29.7496 49.9495 27.7996 49.9495 24.9996C49.9495 23.8094 49.8901 22.45 49.8198 21.9492C49.0097 16.1695 46.6292 11.3094 42.6604 7.33905C38.6991 3.39921 33.8593 1.00976 28.1991 0.1996C27.4194 0.0894441 23.8093 -0.0113371 23.1991 0.0589754ZM15.0495 15.809C15.5808 15.9691 15.8292 16.1191 16.1894 16.4789C16.8897 17.1898 17.0499 17.5793 17.0499 18.6488C17.0499 19.45 17.0194 19.5996 16.78 20.0191C16.319 20.7988 15.2495 21.5191 14.5097 21.5387C13.989 21.5496 14.0104 21.3191 14.58 20.7195C15.3397 19.9293 15.4495 19.6297 15.4495 18.4488C15.4401 17.3094 15.2999 16.9199 14.7702 16.5996C14.3296 16.3297 13.8503 16.3496 13.1499 16.6789C11.3296 17.55 9.35967 20.4496 8.59053 23.4203C7.56982 27.3801 9.37959 30.5492 12.3597 30.009C13.2292 29.8488 14.8694 29.0098 15.5808 28.3488C16.1698 27.8101 16.1698 27.7996 16.2292 27.1301C16.3604 25.7289 17.3491 24.3297 18.6706 23.6797C19.2792 23.3789 19.4304 23.35 20.2499 23.35C21.0296 23.35 21.2097 23.3898 21.5897 23.5988C22.7995 24.2902 22.5495 25.8996 21.2401 25.8996C20.4804 25.8996 20.0897 25.509 20.6405 25.3004C21.1808 25.1004 20.9792 24.3496 20.3507 24.1801C19.6104 23.9894 18.7698 24.4898 18.2401 25.4496C17.5995 26.6098 17.5702 27.9902 18.1792 28.6191C18.7698 29.2492 19.5097 28.7504 20.0804 27.3187C20.3796 26.5894 20.8097 26.1988 21.3104 26.1988C21.7499 26.1988 21.8308 26.4691 21.6397 27.2898C21.3593 28.5594 21.5499 28.8891 22.3401 28.5C22.5995 28.3793 23.03 28.1004 23.2894 27.9004L23.7792 27.5098L24.1104 25.7793C24.4706 23.8398 24.6093 23.5789 25.3495 23.4402C26.0604 23.309 26.2206 23.6598 25.9597 24.7691L25.819 25.3902L26.3397 24.859C27.5694 23.5988 29.08 22.9793 29.6003 23.4996C29.8796 23.7789 29.8491 24.1297 29.4495 25.3687C29.2601 25.9594 28.9991 26.8902 28.8804 27.4195C28.7003 28.2191 28.6894 28.4098 28.7905 28.5398C29.1108 28.9195 30.0901 28.5289 30.9601 27.6789L31.4698 27.1801L31.5308 26.0691C31.5901 24.7891 31.7093 24.3297 32.0495 23.9191C32.3698 23.5394 32.9499 23.2601 33.2597 23.3394C33.5694 23.4203 33.5694 23.7195 33.2901 24.6C32.8995 25.8098 32.9405 28.5992 33.3405 28.5992C33.5007 28.5992 34.3198 27.7398 34.8405 27.0199L35.2296 26.4887L34.9198 26.1699C34.3796 25.5996 34.2499 25.2301 34.2499 24.2992C34.2499 23.6203 34.3003 23.3699 34.4694 23.0387C34.7503 22.5199 35.1897 22.1402 35.7101 21.9891C36.2593 21.8195 36.9397 22.0988 37.219 22.5992C37.4999 23.109 37.43 24.2488 37.0694 25.0301L36.8101 25.5992H37.1597C37.6401 25.5992 37.8296 25.4801 38.6901 24.6699C39.1401 24.2398 39.6604 23.8691 40.0495 23.6891C41.58 22.9703 43.3808 23.3394 43.6796 24.4394C43.9296 25.3199 43.3808 25.9394 42.4194 25.8691C41.7296 25.8191 41.5999 25.6387 41.9999 25.3004C42.7198 24.6988 41.9999 23.9301 40.9698 24.2094C40.4097 24.3601 39.7796 24.9891 39.4503 25.7199C38.7894 27.1801 39.1401 28.8996 40.0894 28.8996C40.4694 28.8996 41.1405 28.1492 41.3999 27.4195C41.7097 26.5789 42.3597 26.0496 42.8495 26.2398C43.1198 26.3394 43.1397 26.6094 42.9702 27.4594C42.7796 28.3902 42.7503 29.2601 42.8999 29.6598C42.9597 29.809 43.1397 30.0898 43.3105 30.2793C43.6292 30.6391 43.6401 30.7691 43.3698 30.9398C43.2401 31.0297 43.069 30.9902 42.6499 30.7601C42.0698 30.4594 41.5694 29.9191 41.3894 29.4094L41.2796 29.1101L40.8796 29.4094C40.6491 29.5695 40.2894 29.7496 40.08 29.809C39.2499 30.0289 38.2292 29.4598 37.7503 28.5C37.5593 28.1289 37.4999 27.0398 37.6401 26.6199C37.7198 26.3894 37.7198 26.3894 37.3991 26.5496C37.23 26.6398 36.8698 26.7391 36.5905 26.7695C36.1296 26.8203 36.0593 26.8703 35.6003 27.45C34.9503 28.2586 33.7995 29.35 33.3296 29.5805C32.3304 30.0793 32.0007 29.9391 31.7397 28.9086L31.5597 28.2191L31.1292 28.5992C30.58 29.0797 29.48 29.6598 28.8495 29.8C28.2499 29.9297 27.6093 29.7391 27.3495 29.3391C26.9608 28.7394 27.0905 27.4699 27.7097 25.7594C28.169 24.4898 27.8397 24.4703 26.68 25.6801C25.8194 26.5894 25.4499 27.2394 25.2105 28.2496C24.9605 29.2996 24.6597 29.6793 23.9808 29.8394C23.5702 29.9297 23.3792 29.6793 23.4604 29.1301L23.5198 28.6891L23.1397 28.95C22.5995 29.3195 21.919 29.6598 21.4491 29.7894C20.9792 29.9191 20.3597 29.7801 20.2101 29.5191C19.9401 29.0601 19.9401 29.0601 19.5206 29.3894C18.6097 30.1297 17.3097 29.9191 16.6503 28.9394L16.4394 28.6297L15.7804 29.2398C13.8792 30.9797 11.5003 31.7594 9.73975 31.2191C7.49951 30.5402 6.26045 28.6191 6.28037 25.8496C6.28975 23.0695 7.51943 20.1398 9.59014 17.9699C10.7604 16.7492 11.8604 16.0289 12.9808 15.759C13.7894 15.559 14.2808 15.5695 15.0495 15.8094V15.809Z" fill="url(#paint0_linear_193_893)"/>
<path d="M35.3195 22.9197C35.0995 23.1392 35.1804 24.0197 35.4601 24.5798C35.6003 24.8697 35.7499 25.1002 35.7999 25.1002C35.8398 25.1002 35.9296 24.8697 35.9999 24.5888C36.2499 23.5498 35.7999 22.4388 35.3195 22.9197Z" fill="url(#paint1_linear_193_893)"/>
<defs>
<linearGradient id="paint0_linear_193_893" x1="49.9495" y1="24.9924" x2="5.43158" y2="24.9924" gradientUnits="userSpaceOnUse">
<stop stop-color="#8F8F8F"/>
<stop offset="1" stop-color="#373737"/>
</linearGradient>
<linearGradient id="paint1_linear_193_893" x1="36.0713" y1="23.9522" x2="35.288" y2="23.9522" gradientUnits="userSpaceOnUse">
<stop stop-color="#8F8F8F"/>
<stop offset="1" stop-color="#373737"/>
</linearGradient>
</defs>
</svg>
