<svg width="50" height="50" viewBox="0 0 50 50" fill="none" xmlns="http://www.w3.org/2000/svg">
<path d="M42.3271 8.65749C39.1403 7.19523 35.7229 6.11791 32.1498 5.50088C32.0847 5.48897 32.0197 5.51873 31.9862 5.57825C31.5467 6.35995 31.0599 7.37974 30.7189 8.18129C26.8758 7.60594 23.0525 7.60594 19.2882 8.18129C18.9472 7.36192 18.4427 6.35995 18.0012 5.57825C17.9677 5.52072 17.9027 5.49096 17.8376 5.50088C14.2665 6.11594 10.8491 7.19326 7.66028 8.65749C7.63268 8.66939 7.60901 8.68925 7.59331 8.71502C1.11123 18.3991 -0.66448 27.8452 0.206625 37.1741C0.210567 37.2197 0.236187 37.2634 0.271663 37.2911C4.54835 40.4319 8.69106 42.3385 12.7568 43.6023C12.8219 43.6222 12.8908 43.5984 12.9323 43.5448C13.894 42.2314 14.7513 40.8466 15.4864 39.3902C15.5298 39.305 15.4884 39.2038 15.3997 39.17C14.0399 38.6542 12.745 38.0252 11.4994 37.311C11.4009 37.2535 11.393 37.1126 11.4837 37.0451C11.7458 36.8487 12.008 36.6443 12.2582 36.438C12.3035 36.4003 12.3666 36.3923 12.4199 36.4162C20.6027 40.1521 29.4616 40.1521 37.5478 36.4162C37.6011 36.3904 37.6642 36.3983 37.7114 36.436C37.9618 36.6423 38.2239 36.8487 38.488 37.0451C38.5786 37.1126 38.5727 37.2535 38.4742 37.311C37.2286 38.0391 35.9337 38.6542 34.5719 39.1681C34.4832 39.2018 34.4438 39.305 34.4872 39.3902C35.238 40.8445 36.0954 42.2294 37.0394 43.5428C37.0788 43.5984 37.1497 43.6222 37.2148 43.6023C41.3003 42.3385 45.443 40.4319 49.7196 37.2911C49.7571 37.2634 49.7808 37.2217 49.7847 37.1761C50.8272 26.3908 48.0385 17.0222 42.3921 8.71699C42.3783 8.68925 42.3547 8.66939 42.3271 8.65749ZM16.7084 31.4938C14.2448 31.4938 12.2149 29.232 12.2149 26.4543C12.2149 23.6766 14.2054 21.4149 16.7084 21.4149C19.231 21.4149 21.2413 23.6965 21.2018 26.4543C21.2018 29.232 19.2113 31.4938 16.7084 31.4938ZM33.3224 31.4938C30.8589 31.4938 28.8289 29.232 28.8289 26.4543C28.8289 23.6766 30.8194 21.4149 33.3224 21.4149C35.8451 21.4149 37.8553 23.6965 37.8159 26.4543C37.8159 29.232 35.8451 31.4938 33.3224 31.4938Z" fill="url(#paint0_linear_193_1841)"/>
<defs>
<linearGradient id="paint0_linear_193_1841" x1="50" y1="24.5538" x2="5.39215" y2="24.5538" gradientUnits="userSpaceOnUse">
<stop stop-color="#8F8F8F"/>
<stop offset="1" stop-color="#373737"/>
</linearGradient>
</defs>
</svg>
