<svg width="50" height="50" viewBox="0 0 50 50" fill="none" xmlns="http://www.w3.org/2000/svg">
<g clip-path="url(#clip0_195_207)">
<path fill-rule="evenodd" clip-rule="evenodd" d="M50 25.0008C50 11.1934 38.8068 0 24.9996 0C11.1984 0 0.00976563 11.184 0 24.9832V44.3297C0.00742187 47.4629 2.54863 49.9994 5.68379 49.9994H25.0098C38.8125 49.9939 50 38.8045 50 25.0008ZM32.3398 5.91934C32.2929 5.91934 32.2461 5.91961 32.1993 5.92017L32.1924 5.92709C31.6646 5.93359 31.1452 5.97494 30.6363 6.04896L30.6436 6.04165C30.1685 6.11078 29.7025 6.2085 29.2474 6.33301L29.2405 6.33992C28.4097 6.5669 27.6156 6.88291 26.8692 7.27706L26.8731 7.27314C26.4777 7.48236 26.0955 7.71355 25.7284 7.96505C22.6361 10.0781 20.6064 13.6319 20.6064 17.6594V23.8785H20.424L20.431 23.8715H19.3261L19.3191 23.8785H17.8849L17.8919 23.8715H16.7871L16.78 23.8785H15.6924C15.5668 23.8785 15.4432 23.8866 15.3221 23.9023L15.3529 23.8715H14.4135C14.3578 23.8715 14.3023 23.8719 14.2469 23.8727L2.6871 35.4324C2.68632 35.4879 2.68593 35.5435 2.68593 35.5992C2.68593 35.9036 2.69758 36.2053 2.72047 36.5039L12.9421 26.2822C12.9293 26.3902 12.9228 26.5003 12.9228 26.6121C12.9228 26.9485 12.9828 27.2697 13.0927 27.5659L2.88753 37.771C2.94465 38.0749 3.01353 38.3746 3.09367 38.6698L8.71762 33.0458C9.34439 31.6531 10.4674 30.5301 11.86 29.9034L13.4867 28.2768C13.6946 28.5465 13.9521 28.7759 14.2458 28.9518L13.8118 29.3858C14.0099 29.3668 14.2105 29.357 14.4135 29.357H14.9455L15.033 29.2695C15.2353 29.3164 15.4464 29.3412 15.6635 29.3412L16.3953 29.3414L16.3797 29.357H17.4845L17.5 29.3416L18.9339 29.3418L18.9187 29.357H19.8945C20.2999 29.433 20.6068 29.7881 20.6068 30.2149V35.5963C20.6008 39.0125 17.8297 41.7797 14.4135 41.7797C13.7798 41.7797 13.4072 41.7343 13.0701 41.6931C12.978 41.6819 12.8886 41.671 12.7973 41.6614L12.8228 41.6359C12.5398 41.5613 12.2646 41.4672 11.9986 41.3552L11.6921 41.6618C10.425 41.8413 9.56704 42.7241 9.42926 43.9246L7.96396 45.3899C8.1871 45.5374 8.41556 45.6775 8.64897 45.8098L9.51402 44.9447C9.61813 45.2776 9.79606 45.5882 10.029 45.864L9.59999 46.2929C9.85665 46.4089 10.1182 46.5159 10.3842 46.6136L10.6029 46.3949C10.8856 46.6009 11.2049 46.7683 11.5452 46.8868L11.4774 46.9547C11.7757 47.0318 12.0786 47.0976 12.3856 47.1513L12.4218 47.1151C12.8433 47.2057 13.2402 47.2653 13.6753 47.2957L13.6677 47.3033C13.9144 47.3189 14.163 47.3268 14.4135 47.3268C14.5274 47.3268 14.6409 47.3251 14.754 47.3219L14.761 47.3149C15.3003 47.2992 15.8305 47.2471 16.3491 47.161L16.3419 47.1683C16.8324 47.0868 17.3127 46.9747 17.7808 46.8342L17.7875 46.8275C18.6832 46.559 19.5339 46.1864 20.3256 45.7236L20.323 45.7262C20.5391 45.5996 20.7508 45.4663 20.9578 45.3266C24.0878 43.2193 26.1469 39.6432 26.1469 35.5865V29.3676H26.5254L26.5185 29.3744H27.6234L27.6302 29.3676H29.0644L29.0576 29.3744H30.1624L30.1693 29.3676H31.0609C31.2696 29.3676 31.4729 29.3452 31.6683 29.3028L31.5967 29.3744H32.3398C32.4627 29.3744 32.5852 29.3725 32.7072 29.3687L44.0619 18.014C44.0657 17.8921 44.0676 17.7697 44.0676 17.6469C44.0676 17.4046 44.0602 17.1641 44.0456 16.9254L33.7731 27.198C33.8108 27.0164 33.8306 26.8278 33.8305 26.634C33.8305 26.3523 33.7884 26.0813 33.7102 25.8266L43.8959 15.6409C43.8427 15.3335 43.7775 15.0301 43.7008 14.7312L37.8455 20.5865C37.2625 21.6739 36.3668 22.5696 35.2795 23.1525L33.3494 25.0826C33.1556 24.8023 32.9105 24.5606 32.6274 24.3704L33.1627 23.8351C32.8934 23.8707 32.6187 23.8891 32.3398 23.8891H32.0039L31.8755 24.0174C31.6267 23.9441 31.363 23.9049 31.0898 23.9049L30.5539 23.9048L30.5697 23.8891H29.4648L29.4493 23.9046L28.0154 23.9043L28.0306 23.8891H26.9258L26.9169 23.898C26.483 23.8464 26.1465 23.478 26.1465 23.0311V17.6496C26.1525 14.2334 28.9236 11.4662 32.3398 11.4662C32.9735 11.4662 33.3461 11.5117 33.6832 11.5529C33.8344 11.5713 33.9783 11.5889 34.1355 11.6012L34.084 11.6526C34.3616 11.7335 34.6312 11.8332 34.8913 11.9502L35.3005 11.5411C36.3559 11.3075 37.0866 10.5605 37.2876 9.55391L38.9068 7.93471C38.6861 7.78498 38.46 7.64256 38.2289 7.50782L37.2817 8.45502C37.1986 8.10773 37.0353 7.78177 36.8119 7.49063L37.2877 7.01482C37.0338 6.89621 36.775 6.78644 36.5117 6.68589L36.2619 6.93569C35.9913 6.72127 35.6827 6.54342 35.3511 6.4123L35.4308 6.33262C35.1361 6.25203 34.8369 6.18268 34.5335 6.12505L34.492 6.16655C34.0696 6.06955 33.6788 6.00299 33.2594 5.96492L33.2686 5.95575C32.9621 5.93163 32.6524 5.91934 32.3398 5.91934ZM8.89141 25.2548C6.84792 26.3501 5.16467 28.0334 4.06935 30.0769L8.89141 25.2548ZM11.2854 24.295L3.10949 32.471C2.98295 32.9277 2.88341 33.3955 2.81272 33.8726L12.6871 23.9982C12.21 24.0689 11.7422 24.1685 11.2854 24.295ZM3.77321 40.5293C3.65494 40.2751 3.54553 40.0159 3.44536 39.7523L8.20003 34.9976C8.18101 35.1956 8.17128 35.3963 8.17128 35.5992C8.17128 35.7713 8.17828 35.9418 8.19202 36.1105L3.77321 40.5293ZM4.26493 41.4718C4.39935 41.7032 4.54146 41.9296 4.69091 42.1506L8.70878 38.1328C8.59243 37.8718 8.49348 37.6015 8.41341 37.3233L4.26493 41.4718ZM5.81469 43.5659C5.63722 43.3745 5.46604 43.1772 5.30149 42.9743L9.21879 39.057C9.36508 39.276 9.52485 39.4853 9.69689 39.6837L5.81469 43.5659ZM6.53544 44.2794C6.72879 44.455 6.92801 44.6243 7.13277 44.7869L11.0586 40.8611C10.836 40.7187 10.6231 40.5626 10.4209 40.3939L6.53544 44.2794ZM43.5638 21.0512C43.7066 20.5812 43.8207 20.0989 43.9039 19.6063L34.2994 29.2107C34.7921 29.1275 35.2744 29.0134 35.7444 28.8706L43.5638 21.0512ZM43.0418 12.8512C43.1574 13.1082 43.2641 13.3701 43.3613 13.6365L38.528 18.4698C38.5636 18.2005 38.582 17.9258 38.582 17.6469C38.582 17.537 38.5792 17.4279 38.5735 17.3194L43.0418 12.8512ZM42.5599 11.8988C42.4279 11.6651 42.2882 11.4363 42.141 11.2129L38.1036 15.2502C38.2149 15.5169 38.3082 15.7929 38.382 16.0767L42.5599 11.8988ZM41.0325 9.78234C41.2078 9.97598 41.3768 10.1755 41.5391 10.3805L37.6119 14.3078C37.4701 14.0847 37.3145 13.8712 37.1464 13.6684L41.0325 9.78234ZM40.3201 9.06049C40.129 8.88274 39.932 8.71128 39.7293 8.54644L35.8132 12.4626C36.0317 12.6095 36.2404 12.7698 36.4383 12.9423L40.3201 9.06049ZM42.4299 23.6193L38.3126 27.7366C40.005 26.731 41.4242 25.3118 42.4299 23.6193Z" fill="url(#paint0_linear_195_207)"/>
</g>
<defs>
<linearGradient id="paint0_linear_195_207" x1="50" y1="24.9997" x2="5.39215" y2="24.9997" gradientUnits="userSpaceOnUse">
<stop stop-color="#8F8F8F"/>
<stop offset="1" stop-color="#373737"/>
</linearGradient>
<clipPath id="clip0_195_207">
<rect width="50" height="50" fill="white"/>
</clipPath>
</defs>
</svg>
