<svg width="50" height="51" viewBox="0 0 50 51" fill="none" xmlns="http://www.w3.org/2000/svg">
<path d="M17.7734 50.3906C22.4219 50.3906 26.1719 46.6406 26.1719 41.9922V33.5938H17.7734C13.125 33.5938 9.375 37.3438 9.375 41.9922C9.375 46.6406 13.125 50.3906 17.7734 50.3906ZM9.375 25.1953C9.375 20.5469 13.125 16.7969 17.7734 16.7969H26.1719V33.5938H17.7734C13.125 33.5938 9.375 29.8438 9.375 25.1953ZM9.375 8.39844C9.375 3.75 13.125 0 17.7734 0H26.1719V16.7969H17.7734C13.125 16.7969 9.375 13.0469 9.375 8.39844ZM26.1719 0H34.5703C39.2188 0 42.9688 3.75 42.9688 8.39844C42.9688 13.0469 39.2188 16.7969 34.5703 16.7969H26.1719V0ZM42.9688 25.1953C42.9688 29.8438 39.2188 33.5938 34.5703 33.5938C29.9219 33.5938 26.1719 29.8438 26.1719 25.1953C26.1719 20.5469 29.9219 16.7969 34.5703 16.7969C39.2188 16.7969 42.9688 20.5469 42.9688 25.1953Z" fill="url(#paint0_linear_193_1661)"/>
<defs>
<linearGradient id="paint0_linear_193_1661" x1="42.9688" y1="25.1953" x2="12.9979" y2="25.1953" gradientUnits="userSpaceOnUse">
<stop stop-color="#8F8F8F"/>
<stop offset="1" stop-color="#373737"/>
</linearGradient>
</defs>
</svg>
