<svg width="50" height="50" viewBox="0 0 50 50" fill="none" xmlns="http://www.w3.org/2000/svg">
<mask id="mask0_192_125" style="mask-type:luminance" maskUnits="userSpaceOnUse" x="1" y="1" width="48" height="48">
<path d="M1.23389 1.23462H48.7589V48.7596H1.23389V1.23462Z" fill="white"/>
</mask>
<g mask="url(#mask0_192_125)">
<path d="M47.8626 22.8811L27.1135 2.13197C27.0781 2.09655 27.0419 2.06191 27.0048 2.02832C26.9677 1.99473 26.9298 1.96191 26.891 1.93014C26.8523 1.89837 26.8129 1.86764 26.7726 1.8377C26.7324 1.80788 26.6915 1.7791 26.6498 1.75124C26.6082 1.72337 26.5659 1.69655 26.5229 1.6709C26.48 1.64512 26.4364 1.62038 26.3923 1.59681C26.3481 1.57311 26.3034 1.55059 26.258 1.52923C26.2129 1.50775 26.167 1.48757 26.1208 1.46829C26.0744 1.44915 26.0278 1.43118 25.9807 1.41426C25.9334 1.39733 25.8859 1.38171 25.838 1.36712C25.7901 1.35254 25.7419 1.33926 25.6932 1.32702C25.6446 1.31491 25.5958 1.30397 25.5467 1.29408C25.4976 1.28431 25.4483 1.27585 25.3987 1.26842C25.3492 1.26113 25.2994 1.25501 25.2496 1.25007C25.1997 1.24512 25.1498 1.24147 25.0998 1.239C25.0498 1.23652 24.9997 1.23535 24.9496 1.23535C24.8996 1.23535 24.8495 1.23652 24.7994 1.239C24.7495 1.24147 24.6996 1.24512 24.6497 1.25007C24.5998 1.25501 24.5501 1.26113 24.5006 1.26842C24.451 1.27585 24.4017 1.28431 24.3526 1.29408C24.3035 1.30397 24.2547 1.31491 24.2061 1.32702C24.1574 1.33926 24.1092 1.35254 24.0613 1.36712C24.0134 1.38171 23.9659 1.39733 23.9186 1.41426C23.8715 1.43118 23.8247 1.44915 23.7785 1.46829C23.7323 1.48757 23.6864 1.50775 23.6412 1.52923C23.5959 1.55059 23.5511 1.57311 23.507 1.59681C23.4629 1.62038 23.4192 1.64512 23.3764 1.6709C23.3334 1.69655 23.2911 1.72337 23.2494 1.75124C23.2078 1.7791 23.1669 1.80788 23.1267 1.8377C23.0864 1.86764 23.047 1.89837 23.0083 1.93014C22.9695 1.96191 22.9316 1.99473 22.8945 2.02832C22.8574 2.06191 22.8212 2.09655 22.7858 2.13197L18.4789 6.43887L23.9442 11.9042C25.2155 11.4587 26.6709 11.7632 27.6838 12.7761C27.7437 12.836 27.8014 12.8981 27.857 12.9622C27.9126 13.0261 27.9659 13.0921 28.0168 13.1598C28.0678 13.2277 28.1162 13.2971 28.1623 13.3683C28.2084 13.4394 28.2521 13.512 28.2931 13.5863C28.3341 13.6605 28.3725 13.736 28.4082 13.813C28.444 13.8898 28.4769 13.9679 28.5073 14.0471C28.5375 14.1262 28.5649 14.2064 28.5897 14.2876C28.6144 14.3687 28.6362 14.4505 28.6552 14.5331C28.6741 14.6158 28.6902 14.699 28.7032 14.7827C28.7164 14.8665 28.7267 14.9507 28.7338 15.0351C28.7411 15.1196 28.7454 15.2042 28.7468 15.289C28.7481 15.3738 28.7465 15.4585 28.7419 15.5432C28.7373 15.6278 28.7298 15.7123 28.7194 15.7964C28.7088 15.8805 28.6954 15.9641 28.6791 16.0473C28.6627 16.1305 28.6436 16.2131 28.6215 16.295C28.5993 16.3769 28.5744 16.4579 28.5467 16.538L33.8146 21.8058C35.0888 21.3662 36.5591 21.6498 37.5764 22.6701C37.6186 22.7123 37.6597 22.7554 37.6998 22.7997C37.7398 22.8438 37.7787 22.8889 37.8166 22.935C37.8545 22.9811 37.8912 23.0281 37.9267 23.076C37.9622 23.1239 37.9966 23.1726 38.0298 23.2222C38.0629 23.2717 38.0948 23.3221 38.1255 23.3732C38.1561 23.4244 38.1855 23.4762 38.2136 23.5288C38.2418 23.5814 38.2686 23.6346 38.2941 23.6885C38.3196 23.7424 38.3437 23.7969 38.3666 23.852C38.3894 23.9071 38.4109 23.9627 38.431 24.0188C38.4511 24.0749 38.4698 24.1316 38.4871 24.1886C38.5045 24.2456 38.5204 24.3032 38.5349 24.361C38.5493 24.4188 38.5625 24.477 38.5741 24.5355C38.5858 24.5939 38.5959 24.6527 38.6047 24.7117C38.6134 24.7706 38.6208 24.8299 38.6267 24.8891C38.6324 24.9485 38.6368 25.008 38.6398 25.0675C38.6427 25.127 38.6442 25.1867 38.6442 25.2463C38.6442 25.3059 38.6427 25.3656 38.6398 25.4251C38.637 25.4847 38.6325 25.5441 38.6267 25.6035C38.6208 25.6628 38.6135 25.7219 38.6048 25.7809C38.5961 25.8399 38.5859 25.8986 38.5742 25.9571C38.5626 26.0157 38.5496 26.0738 38.535 26.1316C38.5205 26.1895 38.5047 26.2469 38.4873 26.304C38.47 26.361 38.4514 26.4176 38.4312 26.4738C38.4112 26.53 38.3897 26.5856 38.3669 26.6407C38.3441 26.6958 38.3199 26.7502 38.2944 26.8041C38.269 26.858 38.2422 26.9113 38.214 26.9639C38.1859 27.0165 38.1565 27.0683 38.1259 27.1195C38.0952 27.1706 38.0633 27.221 38.0302 27.2706C37.997 27.3201 37.9627 27.3689 37.9272 27.4167C37.8916 27.4646 37.8549 27.5117 37.8172 27.5577C37.7793 27.6038 37.7403 27.649 37.7002 27.6932C37.6603 27.7373 37.6191 27.7805 37.5769 27.8227C37.5347 27.8648 37.4916 27.9059 37.4474 27.946C37.4032 27.986 37.358 28.0249 37.312 28.0627C37.2659 28.1006 37.2188 28.1373 37.1709 28.1727C37.123 28.2083 37.0743 28.2426 37.0247 28.2757C36.9751 28.3088 36.9248 28.3407 36.8737 28.3714C36.8225 28.402 36.7705 28.4313 36.7179 28.4594C36.6655 28.4876 36.6122 28.5144 36.5582 28.5398C36.5043 28.5653 36.4498 28.5895 36.3948 28.6123C36.3397 28.6351 36.284 28.6566 36.2278 28.6766C36.1717 28.6967 36.1151 28.7153 36.058 28.7326C36.001 28.7499 35.9435 28.7658 35.8857 28.7803C35.8278 28.7947 35.7696 28.8077 35.7112 28.8195C35.6527 28.8311 35.5939 28.8412 35.5349 28.8499C35.4759 28.8587 35.4168 28.8659 35.3574 28.8718C35.298 28.8775 35.2386 28.882 35.179 28.8848C35.1195 28.8877 35.0599 28.8893 35.0002 28.8891C34.9406 28.8891 34.8811 28.8877 34.8215 28.8847C34.762 28.8817 34.7024 28.8774 34.6432 28.8714C34.5838 28.8656 34.5247 28.8583 34.4657 28.8495C34.4067 28.8407 34.348 28.8305 34.2894 28.8188C34.231 28.8072 34.1729 28.7941 34.1149 28.7796C34.0571 28.765 33.9997 28.7492 33.9427 28.7318C33.8856 28.7145 33.829 28.6958 33.7729 28.6756C33.7168 28.6555 33.6612 28.634 33.6061 28.6111C33.551 28.5883 33.4965 28.5641 33.4425 28.5386C33.3886 28.5131 33.3355 28.4863 33.2829 28.4581C33.2303 28.43 33.1785 28.4006 33.1273 28.3699C33.0763 28.3393 33.0259 28.3074 32.9763 28.2742C32.9268 28.2409 32.878 28.2066 32.8302 28.171C32.7823 28.1355 32.7353 28.0988 32.6893 28.061C32.6432 28.0231 32.598 27.9842 32.5539 27.9441C32.5097 27.904 32.4665 27.8628 32.4244 27.8206C31.3552 26.7514 31.0907 25.1771 31.6314 23.8597L26.7185 18.9468V31.8752C27.0774 32.0528 27.3992 32.2825 27.6838 32.5643C27.726 32.6064 27.767 32.6495 27.8071 32.6937C27.8471 32.7378 27.886 32.783 27.9238 32.8291C27.9617 32.8752 27.9983 32.9221 28.0338 32.97C28.0694 33.0179 28.1036 33.0666 28.1367 33.1162C28.1699 33.1657 28.2018 33.2161 28.2324 33.2671C28.263 33.3183 28.2924 33.3701 28.3205 33.4227C28.3485 33.4753 28.3754 33.5284 28.4009 33.5824C28.4263 33.6363 28.4505 33.6907 28.4733 33.7458C28.4961 33.8008 28.5175 33.8564 28.5376 33.9126C28.5577 33.9687 28.5764 34.0253 28.5937 34.0824C28.611 34.1394 28.6269 34.1968 28.6414 34.2546C28.6558 34.3124 28.6688 34.3705 28.6806 34.429C28.6922 34.4874 28.7023 34.5462 28.711 34.6051C28.7199 34.6641 28.7272 34.7232 28.733 34.7825C28.7388 34.8419 28.7432 34.9012 28.7462 34.9609C28.7491 35.0204 28.7505 35.0799 28.7505 35.1395C28.7505 35.1992 28.7491 35.2587 28.7462 35.3182C28.7432 35.3778 28.7388 35.4372 28.733 35.4965C28.7272 35.5558 28.7199 35.6149 28.711 35.6739C28.7023 35.7329 28.6922 35.7916 28.6806 35.8501C28.6688 35.9085 28.6558 35.9666 28.6414 36.0244C28.6269 36.0822 28.611 36.1396 28.5937 36.1967C28.5764 36.2537 28.5577 36.3103 28.5376 36.3665C28.5175 36.4226 28.4961 36.4782 28.4733 36.5333C28.4505 36.5883 28.4263 36.6428 28.4009 36.6967C28.3754 36.7506 28.3485 36.8037 28.3205 36.8563C28.2924 36.9089 28.263 36.9607 28.2324 37.0119C28.2018 37.063 28.1699 37.1133 28.1367 37.1628C28.1036 37.2124 28.0694 37.2611 28.0338 37.309C27.9983 37.357 27.9617 37.4038 27.9238 37.4499C27.886 37.496 27.8471 37.5412 27.8071 37.5854C27.767 37.6295 27.726 37.6726 27.6838 37.7148C27.6416 37.757 27.5985 37.798 27.5544 37.8381C27.5101 37.8781 27.4651 37.917 27.419 37.9548C27.3729 37.9926 27.3259 38.0292 27.2781 38.0648C27.2302 38.1003 27.1815 38.1346 27.1319 38.1676C27.0824 38.2008 27.032 38.2327 26.981 38.2633C26.9298 38.2939 26.878 38.3234 26.8254 38.3515C26.7728 38.3795 26.7196 38.4063 26.6657 38.4318C26.6118 38.4574 26.5574 38.4814 26.5023 38.5042C26.4472 38.527 26.3916 38.5485 26.3355 38.5686C26.2794 38.5887 26.2228 38.6074 26.1657 38.6247C26.1087 38.642 26.0513 38.6579 25.9935 38.6723C25.9356 38.6868 25.8776 38.6999 25.8191 38.7115C25.7606 38.7231 25.7019 38.7333 25.6429 38.7421C25.584 38.7508 25.5248 38.7581 25.4656 38.764C25.4062 38.7699 25.3468 38.7742 25.2872 38.7771C25.2277 38.78 25.1682 38.7814 25.1086 38.7814C25.0489 38.7814 24.9894 38.78 24.9298 38.7771C24.8703 38.7742 24.8109 38.7699 24.7515 38.764C24.6923 38.7581 24.6332 38.7508 24.5742 38.7421C24.5152 38.7333 24.4565 38.7231 24.398 38.7115C24.3396 38.6999 24.2815 38.6868 24.2237 38.6723C24.1659 38.6579 24.1084 38.642 24.0514 38.6247C23.9944 38.6074 23.9377 38.5886 23.8816 38.5686C23.8255 38.5485 23.7699 38.527 23.7148 38.5042C23.6597 38.4814 23.6053 38.4574 23.5514 38.4318C23.4975 38.4063 23.4444 38.3795 23.3918 38.3515C23.3392 38.3234 23.2873 38.2939 23.2362 38.2633C23.1851 38.2327 23.1347 38.2008 23.0851 38.1676C23.0356 38.1346 22.9869 38.1003 22.939 38.0648C22.8911 38.0292 22.8442 37.9926 22.7981 37.9548C22.7521 37.917 22.7069 37.8781 22.6627 37.8381C22.6186 37.798 22.5755 37.757 22.5333 37.7148C22.4911 37.6727 22.45 37.6295 22.4099 37.5854C22.3698 37.5412 22.3308 37.4962 22.2929 37.4501C22.2552 37.4041 22.2185 37.3571 22.1829 37.3092C22.1474 37.2614 22.113 37.2127 22.0798 37.1631C22.0467 37.1136 22.0147 37.0632 21.9841 37.0122C21.9534 36.961 21.9239 36.9092 21.8958 36.8566C21.8677 36.8041 21.8409 36.7508 21.8153 36.6969C21.7898 36.643 21.7656 36.5886 21.7428 36.5335C21.72 36.4785 21.6985 36.4229 21.6784 36.3667C21.6583 36.3106 21.6396 36.254 21.6222 36.1969C21.6049 36.1399 21.589 36.0825 21.5744 36.0247C21.56 35.9669 21.547 35.9087 21.5353 35.8502C21.5237 35.7917 21.5134 35.733 21.5047 35.674C21.4959 35.615 21.4886 35.5559 21.4828 35.4965C21.4769 35.4373 21.4725 35.3778 21.4696 35.3183C21.4666 35.2588 21.4652 35.1992 21.4652 35.1395C21.4652 35.0799 21.4666 35.0204 21.4696 34.9607C21.4725 34.9012 21.4769 34.8417 21.4828 34.7825C21.4886 34.7231 21.4959 34.664 21.5047 34.605C21.5134 34.546 21.5237 34.4873 21.5353 34.4288C21.547 34.3704 21.56 34.3122 21.5744 34.2544C21.589 34.1965 21.6049 34.1391 21.6222 34.0821C21.6396 34.0251 21.6583 33.9684 21.6784 33.9123C21.6985 33.8562 21.72 33.8006 21.7428 33.7455C21.7656 33.6904 21.7898 33.636 21.8153 33.5821C21.8409 33.5282 21.8677 33.4751 21.8958 33.4225C21.9239 33.3699 21.9534 33.318 21.9841 33.2669C22.0147 33.2158 22.0467 33.1654 22.0798 33.1159C22.113 33.0663 22.1474 33.0176 22.1829 32.9699C22.2185 32.9219 22.2552 32.8749 22.2929 32.829C22.3308 32.7829 22.3698 32.7378 22.4099 32.6937C22.45 32.6495 22.4911 32.6063 22.5333 32.5643C22.8853 32.2137 23.2759 31.948 23.7259 31.7697V18.7212C23.2922 18.5429 22.8853 18.28 22.5333 17.9266C22.4698 17.8632 22.4087 17.7975 22.3501 17.7296C22.2915 17.6617 22.2355 17.5916 22.182 17.5196C22.1286 17.4475 22.0778 17.3735 22.0299 17.2977C21.9819 17.2219 21.9368 17.1445 21.8945 17.0653C21.8523 16.9861 21.813 16.9055 21.7768 16.8234C21.7405 16.7413 21.7073 16.6581 21.6772 16.5735C21.647 16.489 21.62 16.4036 21.5963 16.317C21.5725 16.2305 21.5519 16.1432 21.5346 16.0551C21.5173 15.9671 21.5032 15.8786 21.4924 15.7895C21.4816 15.7005 21.4741 15.6111 21.4699 15.5214C21.4657 15.4318 21.4649 15.3421 21.4674 15.2525C21.4698 15.1628 21.4756 15.0732 21.4846 14.984C21.4937 14.8947 21.5061 14.8059 21.5217 14.7176C21.5373 14.6292 21.5562 14.5416 21.5784 14.4546C21.6005 14.3676 21.6259 14.2817 21.6544 14.1965C21.6828 14.1115 21.7144 14.0277 21.7492 13.9449L16.358 8.55671L2.13018 22.7696C2.09476 22.805 2.06025 22.8413 2.02653 22.8784C1.99281 22.9156 1.96012 22.9534 1.92835 22.9921C1.89645 23.0309 1.86572 23.0704 1.83577 23.1106C1.80596 23.1508 1.77705 23.1917 1.74919 23.2334C1.72132 23.2751 1.6945 23.3174 1.66872 23.3603C1.64294 23.4033 1.61833 23.4469 1.59463 23.4911C1.57106 23.5352 1.5484 23.58 1.52705 23.6253C1.50557 23.6705 1.48525 23.7163 1.46611 23.7627C1.44684 23.8089 1.42887 23.8557 1.41195 23.9028C1.39502 23.9501 1.37939 23.9976 1.36481 24.0455C1.35023 24.0934 1.33682 24.1417 1.32471 24.1903C1.31247 24.239 1.30153 24.2878 1.29176 24.3369C1.282 24.3861 1.2734 24.4355 1.26598 24.4851C1.25869 24.5346 1.25257 24.5843 1.24762 24.6342C1.24268 24.684 1.23903 24.734 1.23656 24.784C1.23408 24.834 1.23291 24.8842 1.23291 24.9343C1.23291 24.9844 1.23408 25.0344 1.23656 25.0844C1.23903 25.1346 1.24268 25.1846 1.24762 25.2343C1.25257 25.2842 1.25869 25.3339 1.26598 25.3835C1.2734 25.4331 1.282 25.4825 1.29176 25.5316C1.30153 25.5807 1.31247 25.6296 1.32471 25.6782C1.33682 25.7268 1.35023 25.7751 1.36481 25.823C1.37939 25.871 1.39502 25.9186 1.41195 25.9657C1.42887 26.0128 1.44684 26.0596 1.46611 26.1059C1.48525 26.1521 1.50557 26.198 1.52705 26.2433C1.5484 26.2886 1.57106 26.3333 1.59463 26.3774C1.61833 26.4217 1.64294 26.4652 1.66872 26.5081C1.6945 26.5511 1.72132 26.5934 1.74919 26.6351C1.77705 26.6768 1.80596 26.7178 1.83577 26.758C1.86572 26.7982 1.89645 26.8377 1.92835 26.8764C1.96012 26.915 1.99281 26.9531 2.02653 26.9902C2.06025 27.0273 2.09476 27.0635 2.13018 27.0989L22.8808 47.8465C22.9162 47.882 22.9524 47.9165 22.9896 47.9501C23.0267 47.9838 23.0646 48.0165 23.1034 48.0482C23.142 48.08 23.1815 48.1109 23.2217 48.1407C23.2619 48.1705 23.3028 48.1994 23.3445 48.2273C23.3862 48.255 23.4285 48.2818 23.4713 48.3076C23.5143 48.3334 23.5579 48.358 23.6021 48.3817C23.6462 48.4053 23.691 48.4278 23.7363 48.4492C23.7815 48.4706 23.8273 48.491 23.8735 48.5101C23.9198 48.5292 23.9665 48.5473 24.0136 48.5641C24.0609 48.5811 24.1084 48.5968 24.1564 48.6113C24.2043 48.6258 24.2524 48.6393 24.3011 48.6514C24.3497 48.6636 24.3985 48.6745 24.4476 48.6843C24.4967 48.6941 24.5461 48.7027 24.5957 48.71C24.6452 48.7174 24.6949 48.7235 24.7448 48.7284C24.7945 48.7333 24.8445 48.737 24.8945 48.7394C24.9445 48.7419 24.9946 48.7432 25.0446 48.7432C25.0948 48.7432 25.1449 48.7419 25.1949 48.7394C25.2449 48.737 25.2948 48.7333 25.3446 48.7284C25.3945 48.7235 25.4442 48.7174 25.4937 48.71C25.5433 48.7027 25.5927 48.6941 25.6418 48.6843C25.6909 48.6745 25.7397 48.6636 25.7883 48.6514C25.8369 48.6393 25.8851 48.6258 25.933 48.6113C25.981 48.5968 26.0285 48.5811 26.0758 48.5641C26.1229 48.5473 26.1695 48.5292 26.2159 48.5101C26.2621 48.491 26.3079 48.4706 26.3531 48.4492C26.3984 48.4278 26.4432 48.4053 26.4873 48.3817C26.5315 48.358 26.5751 48.3334 26.6179 48.3076C26.6609 48.2818 26.7032 48.255 26.7449 48.2273C26.7866 48.1994 26.8274 48.1705 26.8677 48.1407C26.9079 48.1109 26.9474 48.08 26.986 48.0482C27.0248 48.0165 27.0627 47.9838 27.0998 47.9501C27.1369 47.9165 27.1731 47.882 27.2086 47.8465L47.8626 27.2251C47.898 27.1898 47.9327 27.1535 47.9664 27.1163C48 27.0792 48.0328 27.0413 48.0646 27.0027C48.0963 26.9639 48.1272 26.9244 48.157 26.8842C48.187 26.8439 48.2157 26.8031 48.2436 26.7614C48.2715 26.7197 48.2983 26.6774 48.3241 26.6344C48.3498 26.5915 48.3746 26.5478 48.3982 26.5037C48.4218 26.4596 48.4444 26.4148 48.4659 26.3695C48.4872 26.3242 48.5075 26.2785 48.5268 26.2321C48.5459 26.1859 48.564 26.1391 48.5808 26.092C48.5978 26.0447 48.6135 25.9972 48.6281 25.9493C48.6427 25.9014 48.656 25.8531 48.6682 25.8045C48.6803 25.7558 48.6914 25.707 48.7011 25.6579C48.7109 25.6087 48.7195 25.5593 48.7268 25.5097C48.7342 25.4602 48.7403 25.4105 48.7453 25.3606C48.7501 25.3107 48.7539 25.2607 48.7564 25.2107C48.7588 25.1607 48.76 25.1106 48.76 25.0605C48.76 25.0104 48.7588 24.9604 48.7564 24.9102C48.7539 24.8602 48.7501 24.8102 48.7453 24.7603C48.7403 24.7105 48.7342 24.6609 48.7268 24.6113C48.7195 24.5617 48.7109 24.5123 48.7011 24.4632C48.6914 24.414 48.6803 24.3652 48.6682 24.3166C48.656 24.268 48.6427 24.2197 48.6281 24.1718C48.6135 24.1238 48.5978 24.0762 48.5808 24.0291C48.564 23.982 48.5459 23.9352 48.5268 23.8889C48.5075 23.8426 48.4872 23.7968 48.4659 23.7515C48.4444 23.7062 48.4218 23.6615 48.3982 23.6173C48.3746 23.5731 48.3498 23.5295 48.3241 23.4865C48.2983 23.4436 48.2715 23.4014 48.2436 23.3597C48.2157 23.318 48.187 23.277 48.157 23.2368C48.1272 23.1965 48.0963 23.1571 48.0646 23.1184C48.0328 23.0798 48 23.0417 47.9664 23.0046C47.9327 22.9675 47.898 22.9313 47.8626 22.8959" fill="url(#paint0_linear_192_125)"/>
</g>
<defs>
<linearGradient id="paint0_linear_192_125" x1="48.76" y1="24.9893" x2="6.35838" y2="24.9893" gradientUnits="userSpaceOnUse">
<stop stop-color="#8F8F8F"/>
<stop offset="1" stop-color="#373737"/>
</linearGradient>
</defs>
</svg>
