<svg width="50" height="50" viewBox="0 0 50 50" fill="none" xmlns="http://www.w3.org/2000/svg">
<mask id="mask0_192_131" style="mask-type:luminance" maskUnits="userSpaceOnUse" x="1" y="1" width="48" height="48">
<path d="M1.31396 1.69971H48.689V48.3664H1.31396V1.69971Z" fill="white"/>
</mask>
<g mask="url(#mask0_192_131)">
<path d="M25.0015 1.70728C11.9201 1.70728 1.31396 12.3134 1.31396 25.3948C1.31396 36.4944 8.95719 45.7819 19.2612 48.3519C19.1507 48.0321 19.0796 47.661 19.0796 47.2011V43.1525C18.1183 43.1525 16.5076 43.1525 16.1029 43.1525C14.4822 43.1525 13.0413 42.4557 12.3425 41.1608C11.5667 39.7217 11.4325 37.5208 9.5098 36.1746C8.93935 35.7265 9.3736 35.2152 10.031 35.2844C11.245 35.6278 12.2517 36.4608 13.1991 37.6965C14.1427 38.9342 14.5869 39.2144 16.3496 39.2144C17.2043 39.2144 18.4835 39.1651 19.6875 38.9756C20.3351 37.3314 21.4543 35.8173 22.8222 35.1027C14.9343 34.2914 11.17 30.3672 11.17 25.0394C11.17 22.7457 12.147 20.5271 13.8072 18.6577C13.2624 16.8022 12.5774 13.0181 14.0164 11.5771C17.5655 11.5771 19.7112 13.8788 20.2265 14.5005C21.9951 13.8945 23.9375 13.551 25.9785 13.551C28.0236 13.551 29.9739 13.8945 31.7465 14.5044C32.2558 13.8866 34.4034 11.5771 37.9604 11.5771C39.4055 13.02 38.7125 16.8199 38.1619 18.6715C39.8121 20.5368 40.7832 22.7497 40.7832 25.0394C40.7832 30.3633 37.0249 34.2855 29.1487 35.1008C31.3162 36.2318 32.8973 39.4099 32.8973 41.8043V47.2011C32.8973 47.4064 32.8519 47.5544 32.8282 47.7301C42.0585 44.4948 48.689 35.7304 48.689 25.3948C48.689 12.3134 38.0828 1.70728 25.0015 1.70728Z" fill="url(#paint0_linear_192_131)"/>
</g>
<defs>
<linearGradient id="paint0_linear_192_131" x1="48.689" y1="25.0296" x2="6.42303" y2="25.0296" gradientUnits="userSpaceOnUse">
<stop stop-color="#8F8F8F"/>
<stop offset="1" stop-color="#373737"/>
</linearGradient>
</defs>
</svg>
