<svg width="50" height="50" viewBox="0 0 50 50" fill="none" xmlns="http://www.w3.org/2000/svg">
<path d="M31.4844 15.7422H31.6406L31.5625 15.6641L37.0313 10.1953V10.0782C32.4219 6.01566 26.0547 4.60941 20.1562 6.36722C14.2578 8.12503 9.72656 12.8125 8.08594 18.75C8.16406 18.711 8.28125 18.6719 8.39844 18.6719C10.4297 17.3438 12.8516 16.5625 15.3906 16.5625C16.25 16.5625 17.0703 16.6407 17.8906 16.7969C17.9297 16.7578 17.9687 16.7578 18.0078 16.7578C21.5234 12.8907 27.4609 12.4219 31.5234 15.7422H31.4844Z" fill="url(#paint0_linear_193_888)"/>
<path d="M42.2266 18.6719C41.3281 15.3516 39.4531 12.3438 36.8359 10.0391L31.25 15.5859C33.5938 17.5 34.9609 20.3906 34.8828 23.3984V24.375C41.4844 24.375 41.4844 34.2188 34.8828 34.2188H24.9609V42.0312H24.9219L24.9609 42.1094H34.8828C40.5859 42.1484 45.625 38.4766 47.3047 33.0859C48.9844 27.6953 46.9141 21.8359 42.2266 18.6719Z" fill="url(#paint1_linear_193_888)"/>
<path d="M15.2344 42.1484H25.5078V34.2578H15.2344C14.4922 34.2578 13.7891 34.1016 13.125 33.8281L7.1875 39.5312V39.6094C9.53125 41.2891 12.3437 42.1875 15.2734 42.1875L15.2344 42.1484Z" fill="url(#paint2_linear_193_888)"/>
<path d="M15.7033 16.3672C9.88295 16.4062 4.7267 20 2.8517 25.2734C0.976695 30.5859 2.8517 36.4062 7.46107 39.8438L13.5548 34.0234C10.1954 32.5781 9.4142 28.3594 11.9923 25.8984C14.5704 23.3984 18.9454 24.1797 20.4689 27.3828L26.5626 21.5625C23.9845 18.3203 19.9611 16.4062 15.7033 16.4453V16.3672Z" fill="url(#paint3_linear_193_888)"/>
<defs>
<linearGradient id="paint0_linear_193_888" x1="37.0313" y1="12.1868" x2="11.2075" y2="12.1868" gradientUnits="userSpaceOnUse">
<stop stop-color="#8F8F8F"/>
<stop offset="1" stop-color="#373737"/>
</linearGradient>
<linearGradient id="paint1_linear_193_888" x1="47.8824" y1="26.0744" x2="27.398" y2="26.0744" gradientUnits="userSpaceOnUse">
<stop stop-color="#8F8F8F"/>
<stop offset="1" stop-color="#373737"/>
</linearGradient>
<linearGradient id="paint2_linear_193_888" x1="25.5078" y1="38.0078" x2="9.16322" y2="38.0078" gradientUnits="userSpaceOnUse">
<stop stop-color="#8F8F8F"/>
<stop offset="1" stop-color="#373737"/>
</linearGradient>
<linearGradient id="paint3_linear_193_888" x1="26.5626" y1="28.1055" x2="4.76653" y2="28.1055" gradientUnits="userSpaceOnUse">
<stop stop-color="#8F8F8F"/>
<stop offset="1" stop-color="#373737"/>
</linearGradient>
</defs>
</svg>
