<svg width="35" height="35" viewBox="0 0 35 35" fill="none" xmlns="http://www.w3.org/2000/svg">
<g id="icons8-github 1">
<g id="Group">
<g id="Group_2">
<path id="Vector" d="M17.3333 4C9.60181 4 3.33331 10.3667 3.33331 18.2192C3.33331 24.8821 7.85065 30.4572 13.9406 32C13.8753 31.808 13.8333 31.5853 13.8333 31.3092V28.8789C13.2651 28.8789 12.3131 28.8789 12.074 28.8789C11.1161 28.8789 10.2645 28.4606 9.85148 27.6833C9.39298 26.8195 9.31364 25.4983 8.17731 24.6901C7.84015 24.4212 8.09681 24.1143 8.48531 24.1557C9.20281 24.3619 9.79781 24.862 10.3578 25.6037C10.9155 26.3467 11.178 26.5149 12.2198 26.5149C12.725 26.5149 13.481 26.4853 14.1926 26.3716C14.5753 25.3845 15.2368 24.4757 16.0453 24.0467C11.3833 23.5597 9.15848 21.2041 9.15848 18.0059C9.15848 16.629 9.73598 15.2972 10.7171 14.175C10.3951 13.0612 9.99031 10.7897 10.8408 9.92467C12.9385 9.92467 14.2066 11.3063 14.5111 11.6796C15.5565 11.3158 16.7045 11.1096 17.9108 11.1096C19.1195 11.1096 20.2721 11.3158 21.3198 11.6819C21.6208 11.311 22.8901 9.92467 24.9925 9.92467C25.8465 10.7909 25.437 13.0719 25.1115 14.1833C26.0868 15.3031 26.6608 16.6314 26.6608 18.0059C26.6608 21.2017 24.4395 23.5562 19.7845 24.0455C21.0655 24.7245 22 26.6322 22 28.0696V31.3092C22 31.4324 21.9731 31.5213 21.9591 31.6267C27.4145 29.6846 31.3333 24.4235 31.3333 18.2192C31.3333 10.3667 25.0648 4 17.3333 4Z" fill="#282828"/>
</g>
</g>
</g>
</svg>
