<svg width="51" height="50" viewBox="0 0 51 50" fill="none" xmlns="http://www.w3.org/2000/svg">
<g id="icons8-javascript 1">
<path id="Vector" d="M43.8359 4H7.16797C5.69531 4 4.5 5.19531 4.5 6.66797V43.332C4.5 44.8047 5.69531 46 7.16797 46H43.832C45.3047 46 46.5 44.8047 46.5 43.3359V6.66797C46.5 5.19531 45.3047 4 43.8359 4ZM27.5 36.1836C27.5 40.1797 25.1562 42 21.7344 42C18.6406 42 16.4102 39.9258 15.5 38L18.6445 36.0977C19.25 37.1719 20.1719 38 21.5 38C22.7695 38 23.5 37.5039 23.5 35.5742V23H27.5V36.1836ZM36.1758 42C32.6328 42 30.6211 40.2148 29.5 38L32.5 36C33.3164 37.3359 34.207 38.6133 36.0898 38.6133C37.6719 38.6133 38.5 37.8242 38.5 36.7305C38.5 35.4258 37.6406 34.9609 35.9023 34.1992L34.9492 33.7891C32.1953 32.6172 30.3633 31.1484 30.3633 28.0391C30.3633 25.1797 32.5469 23 35.9531 23C38.3789 23 40.1211 23.8438 41.3789 26.0547L38.4102 27.9648C37.7539 26.7891 37.0508 26.3281 35.9531 26.3281C34.8359 26.3281 34.1289 27.0391 34.1289 27.9648C34.1289 29.1094 34.8359 29.5703 36.4727 30.2812L37.4258 30.6914C40.6719 32.0781 42.5 33.4961 42.5 36.6836C42.5 40.1172 39.8008 42 36.1758 42Z" fill="url(#paint0_linear_36_181)"/>
</g>
<defs>
<linearGradient id="paint0_linear_36_181" x1="4.5" y1="25" x2="46.5" y2="25" gradientUnits="userSpaceOnUse">
<stop stop-color="#282828"/>
<stop offset="1" stop-color="#8E8E8E"/>
</linearGradient>
</defs>
</svg>
