<svg width="51" height="50" viewBox="0 0 51 50" fill="none" xmlns="http://www.w3.org/2000/svg">
<g id="icons8-c">
<path id="Vector" d="M44.4102 12.001L27.5703 2.53613C26.293 1.82129 24.707 1.82129 23.4297 2.53613L6.58984 12.001C5.30078 12.7236 4.5 14.0791 4.5 15.5322V34.4619C4.5 35.915 5.30078 37.2705 6.58984 37.9932L23.4297 47.458C24.0703 47.8174 24.7852 47.9971 25.5 47.9971C26.2148 47.9971 26.9297 47.8174 27.5703 47.458L44.4102 37.9932C45.6992 37.2705 46.5 35.915 46.5 34.4619V15.5322C46.5 14.0791 45.6992 12.7236 44.4102 12.001ZM25.5 36.9971C18.8828 36.9971 13.5 31.6143 13.5 24.9971C13.5 18.3799 18.8828 12.9971 25.5 12.9971C29.2812 12.9971 32.7734 14.751 35.043 17.7393L30.6602 20.2744C29.3438 18.833 27.4727 17.9971 25.5 17.9971C21.6406 17.9971 18.5 21.1377 18.5 24.9971C18.5 28.8564 21.6406 31.9971 25.5 31.9971C27.4727 31.9971 29.3438 31.1611 30.6602 29.7197L35.043 32.2549C32.7734 35.2432 29.2812 36.9971 25.5 36.9971Z" fill="url(#paint0_linear_36_185)"/>
</g>
<defs>
<linearGradient id="paint0_linear_36_185" x1="4.5" y1="24.9985" x2="46.5" y2="24.9985" gradientUnits="userSpaceOnUse">
<stop stop-color="#282828"/>
<stop offset="1" stop-color="#8E8E8E"/>
</linearGradient>
</defs>
</svg>
