<svg width="51" height="50" viewBox="0 0 51 50" fill="none" xmlns="http://www.w3.org/2000/svg">
<g id="icons8-java" clip-path="url(#clip0_36_176)">
<g id="Group">
<g id="Group_2">
<path id="Vector" d="M28.6875 -0.00391006C31.4375 6.35937 18.8203 10.2891 17.6523 15.5938C16.5742 20.4609 25.1406 26.1211 25.1445 26.1211C23.8438 24.1055 22.9023 22.4414 21.5977 19.3047C19.3906 14 35.0313 9.20312 28.6875 -0.00391006ZM37.0508 8.8125C37.0508 8.8125 26.0039 9.51172 25.4414 16.582C25.1914 19.7305 28.3438 21.4102 28.4375 23.7031C28.5078 25.5703 26.5508 27.1289 26.5508 27.1289C26.5508 27.1289 30.1016 26.4609 31.2148 23.6055C32.4453 20.4375 28.8281 18.2734 29.1914 15.7383C29.543 13.3125 37.0508 8.8125 37.0508 8.8125ZM39.7305 25.1445C38.5742 25.0938 37.2891 25.4766 36.125 26.3125C38.4063 25.8242 40.3359 27.2188 40.3359 28.8281C40.3359 32.4531 35.0977 35.8789 35.0977 35.8789C35.0977 35.8789 43.207 34.9531 43.207 29C43.207 26.5391 41.6523 25.2344 39.7305 25.1445ZM19.6836 25.1523C19.6836 25.1523 9.56251 25.0156 9.56251 27.8789C9.56251 30.8711 22.8164 31.082 32.2813 29.2383C32.2813 29.2383 34.8086 27.5078 35.4805 26.8633C29.2774 28.1289 15.1211 28.2969 15.1211 27.2031C15.1211 26.1914 19.6836 25.1523 19.6836 25.1523ZM17.2383 30.7227C15.6875 30.7227 13.3711 31.9219 13.3711 33.0781C13.3711 35.4023 25.0625 37.1953 33.7188 33.7969L30.7227 31.9609C24.8555 33.8398 14.0391 33.2383 17.2383 30.7227ZM18.6797 35.9219C16.5508 35.9219 15.1719 37.2344 15.1719 38.2031C15.1719 41.1875 27.8789 41.4883 32.9141 38.4531L29.7149 36.418C25.9531 38.0078 16.5078 38.2227 18.6797 35.9219ZM11.5898 38.625C8.1211 38.5547 5.86719 40.1133 5.86719 41.4062C5.86328 48.2812 41.3906 47.9492 41.3906 40.9219C41.3906 39.7578 40.0156 39.2031 39.5195 38.9375C42.4219 45.6563 10.4688 45.1367 10.4688 41.1719C10.4688 40.2696 12.8125 39.3828 14.9922 39.8086L13.1445 38.7578C12.6016 38.6758 12.082 38.6328 11.5898 38.625ZM45.1367 43.25C39.7344 48.3672 26.0469 50.2344 12.2813 47.0742C26.043 52.7031 45.0664 49.5352 45.1367 43.25Z" fill="url(#paint0_linear_36_176)"/>
</g>
</g>
</g>
<defs>
<linearGradient id="paint0_linear_36_176" x1="5.86719" y1="24.9972" x2="45.1367" y2="24.9972" gradientUnits="userSpaceOnUse">
<stop stop-color="#282828"/>
<stop offset="1" stop-color="#8E8E8E"/>
</linearGradient>
<clipPath id="clip0_36_176">
<rect width="50" height="50" fill="white" transform="translate(0.5)"/>
</clipPath>
</defs>
</svg>
