<svg width="28" height="28" viewBox="0 0 28 28" fill="none" xmlns="http://www.w3.org/2000/svg">
<path d="M15.1667 9.91667H10.5C8.24485 9.91667 6.41669 8.0885 6.41669 5.83333C6.41669 3.57817 8.24485 1.75 10.5 1.75H15.1667V9.91667Z" fill="#E64A19"/>
<path d="M14.5834 18.0834H10.5C8.24485 18.0834 6.41669 16.2552 6.41669 14C6.41669 11.7449 8.24485 9.91669 10.5 9.91669H14.5834V18.0834Z" fill="#7C4DFF"/>
<path d="M10.5 26.25C8.24485 26.25 6.41669 24.4218 6.41669 22.1666C6.41669 19.9115 8.24485 18.0833 10.5 18.0833H14.5834V22.1666C14.5834 24.4218 12.7552 26.25 10.5 26.25Z" fill="#66BB6A"/>
<path d="M18.6666 9.91667H14.5833V1.75H18.6666C20.9218 1.75 22.75 3.57817 22.75 5.83333C22.75 8.0885 20.9218 9.91667 18.6666 9.91667Z" fill="#FF7043"/>
<path d="M18.6666 18.0834C20.9218 18.0834 22.75 16.2552 22.75 14C22.75 11.7449 20.9218 9.91669 18.6666 9.91669C16.4115 9.91669 14.5833 11.7449 14.5833 14C14.5833 16.2552 16.4115 18.0834 18.6666 18.0834Z" fill="#29B6F6"/>
</svg>
