<svg width="51" height="50" viewBox="0 0 51 50" fill="none" xmlns="http://www.w3.org/2000/svg">
<g id="icons8-c">
<path id="Vector" d="M44.4102 12.0039L27.5703 2.53906C26.293 1.82422 24.707 1.82422 23.4297 2.53906L6.58984 12.0039C5.30078 12.7266 4.5 14.082 4.5 15.5352V34.4648C4.5 35.918 5.30078 37.2734 6.58984 37.9961L23.4297 47.4609C24.0703 47.8203 24.7852 48 25.5 48C26.2148 48 26.9297 47.8203 27.5703 47.4609L44.4102 37.9961C45.6992 37.2734 46.5 35.918 46.5 34.4648V15.5352C46.5 14.082 45.6992 12.7266 44.4102 12.0039ZM25.5 37C18.8828 37 13.5 31.6172 13.5 25C13.5 18.3828 18.8828 13 25.5 13C29.2812 13 32.7734 14.7539 35.043 17.7422L30.6602 20.2773C29.3438 18.8359 27.4727 18 25.5 18C21.6406 18 18.5 21.1406 18.5 25C18.5 28.8594 21.6406 32 25.5 32C27.4727 32 29.3438 31.1641 30.6602 29.7227L35.043 32.2578C32.7734 35.2461 29.2812 37 25.5 37ZM37.5 26H35.5V28H33.5V26H31.5V24H33.5V22H35.5V24H37.5V26ZM44.5 26H42.5V28H40.5V26H38.5V24H40.5V22H42.5V24H44.5V26Z" fill="url(#paint0_linear_36_172)"/>
</g>
<defs>
<linearGradient id="paint0_linear_36_172" x1="4.5" y1="25.0015" x2="46.5" y2="25.0015" gradientUnits="userSpaceOnUse">
<stop stop-color="#282828"/>
<stop offset="1" stop-color="#8E8E8E"/>
</linearGradient>
</defs>
</svg>
