<svg width="24" height="25" viewBox="0 0 24 25" fill="none" xmlns="http://www.w3.org/2000/svg">
<path d="M14.325 6.78502C14.145 6.8169 14.0006 6.94815 13.95 7.12252C13.8994 7.29877 13.9519 7.48627 14.085 7.61002L18.495 12.02H4.31999C4.30499 12.02 4.28999 12.02 4.27499 12.02C4.01061 12.0331 3.80436 12.2581 3.81749 12.5225C3.83061 12.7869 4.05561 12.9931 4.31999 12.98H18.495L14.085 17.39C13.9425 17.5063 13.8769 17.6919 13.9181 17.8719C13.9594 18.05 14.1 18.1906 14.2781 18.2319C14.4581 18.2731 14.6437 18.2075 14.76 18.065L19.995 12.845L20.325 12.5L19.995 12.155L14.76 6.93502C14.6606 6.82815 14.5162 6.77377 14.37 6.78502C14.355 6.78502 14.34 6.78502 14.325 6.78502Z" fill="black"/>
</svg>
