<svg width="16" height="16" viewBox="0 0 16 16" fill="none" xmlns="http://www.w3.org/2000/svg">
<g id="icons8-location 1">
<g id="Group">
<g id="Group_2">
<path id="Vector" d="M8 0.320007C5.17126 0.320007 2.88 2.61126 2.88 5.44001C2.88 7.77876 4.11501 10.2925 5.33 12.24C6.54501 14.1875 7.76 15.57 7.76 15.57C7.82126 15.6388 7.90875 15.6788 8 15.6788C8.09126 15.6788 8.17875 15.6388 8.24 15.57C8.24 15.57 9.45625 14.1588 10.67 12.2C11.8838 10.2413 13.12 7.73376 13.12 5.44001C13.12 2.61126 10.8288 0.320007 8 0.320007ZM8 0.960007C10.4838 0.960007 12.48 2.95626 12.48 5.44001C12.48 7.49876 11.3163 9.94626 10.13 11.86C9.13625 13.4638 8.29501 14.4963 8 14.85C7.7025 14.4988 6.86126 13.4888 5.87 11.9C4.68501 10 3.52 7.54876 3.52 5.44001C3.52 2.95626 5.51625 0.960007 8 0.960007ZM8 3.52001C6.76625 3.52001 5.76 4.52626 5.76 5.76001C5.76 6.99376 6.76625 8.00001 8 8.00001C9.23376 8.00001 10.24 6.99376 10.24 5.76001C10.24 4.52626 9.23376 3.52001 8 3.52001ZM8 4.16001C8.88751 4.16001 9.6 4.87251 9.6 5.76001C9.6 6.64751 8.88751 7.36001 8 7.36001C7.1125 7.36001 6.4 6.64751 6.4 5.76001C6.4 4.87251 7.1125 4.16001 8 4.16001Z" fill="#323232"/>
</g>
</g>
</g>
</svg>
