<svg width="51" height="50" viewBox="0 0 51 50" fill="none" xmlns="http://www.w3.org/2000/svg">
<g id="icons8-mysql">
<path id="Vector" d="M7.16797 4C5.69531 4 4.5 5.19531 4.5 6.66797V43.332C4.5 44.8047 5.69531 46 7.16797 46H43.832C45.3047 46 46.5 44.8047 46.5 43.332V6.66797C46.5 5.19531 45.3047 4 43.832 4H7.16797ZM32.6797 19.5898C34.9961 19.5898 35.6367 22.0586 35.6367 24.1836C35.6367 26.4844 35.0938 27.918 34.1992 28.3906V28.457C34.8086 28.7188 35.4766 28.9258 36.0742 29.1484L35.4219 30.5156C34.5977 30.1836 33.6758 29.7148 32.9648 29.3008C32.75 29.1914 32.5977 29.1094 32.5117 29.1094C30.6484 29.1094 29.5117 27.3555 29.5117 24.3203C29.5117 21.8242 30.5469 19.5898 32.6797 19.5898ZM27.0352 19.6133C27.6602 19.6133 28.2617 19.7812 28.5469 19.9492L28.2461 21.5039C27.9727 21.3398 27.5625 21.1875 27.0234 21.1875C26.2266 21.1875 25.8438 21.6562 25.8438 22.1562C25.8438 22.707 26.1289 22.9961 27.1641 23.6055C28.4297 24.3477 28.8945 25.2852 28.8945 26.2656C28.8945 27.9609 27.6055 29.0781 25.7305 29.0781C24.9609 29.0781 24.207 28.8867 23.8945 28.7031L24.168 27.1445C24.5508 27.3516 25.2031 27.5039 25.7461 27.5039C26.625 27.5039 27.0508 27.0625 27.0508 26.457C27.0508 25.7812 26.625 25.4492 25.8164 24.9375C24.5078 24.168 24.0117 23.1914 24.0117 22.3477C24.0117 20.8594 25.0352 19.6133 27.0352 19.6133ZM10.1133 19.6992H12.0742L12.8438 23.0625C13.1133 24.2383 13.3516 25.2695 13.5234 26.3203H13.5508C13.6953 25.2852 13.9062 24.2383 14.1602 23.0625L14.9141 19.6992H16.875L17.457 28.9961H15.7969L15.625 25.7383C15.582 24.8555 15.5117 23.6562 15.543 22.6641H15.5C15.3281 23.6562 15.0703 24.8008 14.8867 25.5195L14.0625 28.8438H12.7422L11.9492 25.5742C11.7617 24.8281 11.5078 23.6719 11.3633 22.6641H11.3242C11.293 23.6719 11.2383 24.8438 11.1797 25.7656L11.0234 28.9961H9.41797L10.1133 19.6992ZM36.8125 19.6992H38.6758V27.4648H41.1328V28.9961H36.8125V19.6992ZM32.5938 21.1602C31.8242 21.1602 31.4414 22.5547 31.4414 24.3086C31.4297 26.1953 31.7695 27.5312 32.5938 27.5312C33.375 27.5312 33.6875 26.1953 33.6875 24.2656C33.6875 22.5273 33.418 21.1602 32.5938 21.1602ZM18.0742 22.2461H20.0742V22.25L20.7578 25.7539C20.8281 26.1523 20.8828 26.5273 20.9414 26.8867H20.9688C21.0273 26.5391 21.082 26.1523 21.1406 25.7812L21.7227 22.25H23.543L22.1211 27.4492C21.7812 28.7188 21.3242 30.0312 20.5742 30.8984C19.9922 31.5586 19.2773 31.8789 18.9961 31.9609L18.4258 30.4023C18.7539 30.2891 19.0664 30.0859 19.3516 29.8359C19.6094 29.6016 19.8047 29.3242 19.9336 29.0352C19.9922 28.9102 20.0312 28.8398 20.0312 28.7461C20.0312 28.6602 20.0039 28.5781 19.9766 28.4961L18.0742 22.2461Z" fill="url(#paint0_linear_36_174)"/>
</g>
<defs>
<linearGradient id="paint0_linear_36_174" x1="4.5" y1="25" x2="46.5" y2="25" gradientUnits="userSpaceOnUse">
<stop stop-color="#282828"/>
<stop offset="1" stop-color="#8E8E8E"/>
</linearGradient>
</defs>
</svg>
