<svg width="50" height="50" viewBox="0 0 50 50" fill="none" xmlns="http://www.w3.org/2000/svg">
<path d="M29.1858 24.9624C29.1858 22.7211 27.3118 20.904 25 20.904C22.6884 20.904 20.8142 22.7211 20.8142 24.9624C20.8142 27.2039 22.6884 29.0209 25 29.0209C27.3118 29.0209 29.1858 27.2039 29.1858 24.9624Z" fill="url(#paint0_linear_230_187)"/>
<path fill-rule="evenodd" clip-rule="evenodd" d="M38.5943 17.4277C39.4783 13.945 40.5894 7.48669 36.6725 5.29713C32.7739 3.11711 27.7007 7.29441 25.0218 9.80185C22.3507 7.3194 17.1349 3.15995 13.2213 5.35646C9.32423 7.54379 10.526 13.895 11.4295 17.3995C7.79424 18.4006 1.5625 20.5569 1.5625 24.9624C1.5625 29.3553 7.78775 31.7012 11.4015 32.7014C10.4947 36.2253 9.35306 42.4858 13.2551 44.6682C17.1832 46.8643 22.3829 42.8039 25.0865 40.2691C27.7826 42.7912 32.8072 46.8782 36.7065 44.6897C40.6182 42.4942 39.5993 36.1225 38.6958 32.5976C42.1988 31.5953 48.4375 29.3005 48.4375 24.9624C48.4375 20.5992 42.1724 18.4254 38.5943 17.4277ZM38.1504 30.7296C37.5571 28.9087 36.7563 26.9723 35.7767 24.972C36.7117 23.0189 37.4813 21.1075 38.0581 19.2983C40.6811 20.0356 46.4352 21.7208 46.4352 24.9624C46.4352 28.2343 40.9135 29.9355 38.1504 30.7296ZM35.7031 43.0094C32.7938 44.6422 28.4721 40.7338 26.481 38.8764C27.8018 37.4757 29.1219 35.8472 30.4101 34.039C32.6763 33.8441 34.8172 33.5253 36.7588 33.0902C37.3947 35.5834 38.6253 41.3692 35.7031 43.0094ZM14.2557 42.9861C11.346 41.3594 12.6759 35.7729 13.3431 33.1771C15.263 33.5888 17.3884 33.8851 19.66 34.0637C20.9568 35.8331 22.315 37.4596 23.6837 38.8838C21.9926 40.4699 17.1789 44.6203 14.2557 42.9861ZM3.56483 24.9624C3.56483 21.6781 9.28448 20.0052 11.9673 19.2697C12.5539 21.1196 13.3234 23.0537 14.2519 25.0096C13.3113 26.9947 12.5309 28.9596 11.9388 30.8312C9.38077 30.1213 3.56483 28.2487 3.56483 24.9624ZM14.2245 7.03678C17.1461 5.39713 21.6792 9.39035 23.6186 11.1877C22.2569 12.6055 20.9111 14.2197 19.6255 15.9789C17.421 16.177 15.3105 16.4952 13.3705 16.9214C12.6426 14.0949 11.3061 8.67467 14.2245 7.03678ZM31.8426 18.0892C33.3383 18.2722 34.7712 18.5156 36.1167 18.8135C35.7128 20.0688 35.2093 21.3815 34.6164 22.7271C33.7569 21.1457 32.8342 19.5963 31.8426 18.0892ZM25.0224 12.5752C25.946 13.5453 26.871 14.6286 27.7809 15.8039C25.9352 15.7193 24.0864 15.7189 22.2407 15.8027C23.1514 14.6383 24.0843 13.5565 25.0224 12.5752ZM15.4008 22.7257C14.8176 21.3847 14.3187 20.0662 13.9113 18.793C15.2487 18.5028 16.675 18.2656 18.1609 18.0856C17.1666 19.5893 16.2455 21.1382 15.4008 22.7257ZM18.2037 31.9777C16.6685 31.8116 15.2207 31.5865 13.8837 31.3043C14.2976 30.0085 14.8075 28.6617 15.4031 27.292C16.2594 28.8958 17.1945 30.4597 18.2037 31.9777ZM25.0778 37.4867C24.1287 36.4937 23.1821 35.3955 22.2575 34.2142C24.1138 34.2849 25.9737 34.285 27.8296 34.2047C26.9169 35.4075 25.9951 36.5074 25.0778 37.4867ZM34.6355 27.2222C35.262 28.6068 35.7902 29.9464 36.2097 31.2202C34.8504 31.5209 33.3831 31.7631 31.837 31.9429C32.836 30.4074 33.7732 28.8338 34.6355 27.2222ZM29.2926 32.1782C26.4533 32.3749 23.5962 32.3728 20.7559 32.1943C19.142 29.9085 17.7054 27.5046 16.4652 25.009C17.6993 22.5186 19.1256 20.1194 20.7319 17.8372C23.5743 17.6288 26.4341 17.6284 29.2764 17.8384C30.8689 20.1205 32.293 22.5134 33.5557 24.9815C32.3079 27.4707 30.8743 29.8747 29.2926 32.1782ZM35.6724 6.97906C38.5947 8.61334 37.2939 14.4176 36.6555 16.9415C34.7108 16.5064 32.599 16.1826 30.3879 15.9815C29.0999 14.2032 27.7653 12.5862 26.4256 11.1867C28.3899 9.35064 32.7783 5.36076 35.6724 6.97906Z" fill="url(#paint1_linear_230_187)"/>
<defs>
<linearGradient id="paint0_linear_230_187" x1="48.4375" y1="25" x2="1.5625" y2="25" gradientUnits="userSpaceOnUse">
<stop stop-color="#8E8E8E"/>
<stop offset="1" stop-color="#282828"/>
</linearGradient>
<linearGradient id="paint1_linear_230_187" x1="48.4375" y1="25" x2="1.5625" y2="25" gradientUnits="userSpaceOnUse">
<stop stop-color="#8E8E8E"/>
<stop offset="1" stop-color="#282828"/>
</linearGradient>
</defs>
</svg>
