<svg width="51" height="50" viewBox="0 0 51 50" fill="none" xmlns="http://www.w3.org/2000/svg">
<g id="icons8-python">
<path id="Vector" d="M25 2C16.3008 2 14.5 6.49219 14.5 9.09375V14H24.5V15H9.59375C6.29297 15 2.5 17.6016 2.5 25C2.5 32.3984 6.29297 35 9.59375 35H15.5V29C15.5 26.8008 17.3008 25 19.5 25H31.5C33.1992 25 34.5 23.6992 34.5 22V9.09375C34.5 5.59375 31.1992 2 25 2ZM20.5 7C21.6016 7 22.5 7.89844 22.5 9C22.5 10.1016 21.6016 11 20.5 11C19.3984 11 18.5 10.1016 18.5 9C18.5 7.89844 19.3984 7 20.5 7ZM35.5 15V22C35.5 24.1992 33.6992 26 31.5 26H19.5C17.8008 26 16.5 27.3008 16.5 29V40.9062C16.5 44.4062 19.8008 48 26 48C34.6992 48 36.5 43.5078 36.5 40.9062V36H26.5V35H41.4062C44.707 35 48.5 32.3984 48.5 25C48.5 17.6016 44.707 15 41.4062 15H35.5ZM30.5 39C31.6016 39 32.5 39.8984 32.5 41C32.5 42.1016 31.6016 43 30.5 43C29.3984 43 28.5 42.1016 28.5 41C28.5 39.8984 29.3984 39 30.5 39Z" fill="url(#paint0_linear_36_170)"/>
</g>
<defs>
<linearGradient id="paint0_linear_36_170" x1="2.5" y1="25" x2="48.5" y2="25" gradientUnits="userSpaceOnUse">
<stop stop-color="#282828"/>
<stop offset="1" stop-color="#8E8E8E"/>
</linearGradient>
</defs>
</svg>
