<svg width="35" height="35" viewBox="0 0 35 35" fill="none" xmlns="http://www.w3.org/2000/svg">
<g id="icons8-linkedin-circled 1">
<g id="Group">
<g id="Group_2">
<path id="Vector" d="M18 4C10.2682 4 4 10.2682 4 18C4 25.7318 10.2682 32 18 32C25.7318 32 32 25.7318 32 18C32 10.2682 25.7318 4 18 4ZM14.2308 24.4615H11.5385V14.7692H14.2308V24.4615ZM12.8765 13.6923H12.8615C12.0581 13.6923 11.5385 13.0935 11.5385 12.3456C11.5385 11.5815 12.0742 11 12.8922 11C13.7112 11 14.2157 11.5815 14.2308 12.3456C14.2308 13.093 13.7112 13.6923 12.8765 13.6923ZM24.4615 24.4615H21.7692V19.6154C21.7692 18 20.9906 17.4615 20.1538 17.4615C19.3758 17.4615 18.5385 18 18.5385 19.6154V24.4615H15.8462V14.7692H18.5385V16.3846C18.7232 15.8564 19.6068 14.7692 21.2308 14.7692C23.3846 14.7692 24.4615 16.3846 24.4615 19.0769V24.4615Z" fill="#282828"/>
</g>
</g>
</g>
</svg>
