<svg width="30" height="30" viewBox="0 0 30 30" fill="none" xmlns="http://www.w3.org/2000/svg">
<g id="icons8-hamburger-menu (1) 1">
<path id="Vector" d="M2.99999 4.79999C2.84097 4.79774 2.6831 4.82711 2.53554 4.88641C2.38798 4.94571 2.25367 5.03374 2.14043 5.14539C2.02718 5.25705 1.93726 5.39009 1.87588 5.5368C1.81451 5.68351 1.7829 5.84096 1.7829 5.99999C1.7829 6.15902 1.81451 6.31646 1.87588 6.46317C1.93726 6.60988 2.02718 6.74292 2.14043 6.85458C2.25367 6.96623 2.38798 7.05426 2.53554 7.11356C2.6831 7.17286 2.84097 7.20223 2.99999 7.19999H27C27.159 7.20223 27.3169 7.17286 27.4644 7.11356C27.612 7.05426 27.7463 6.96623 27.8596 6.85458C27.9728 6.74292 28.0627 6.60988 28.1241 6.46317C28.1855 6.31646 28.2171 6.15902 28.2171 5.99999C28.2171 5.84096 28.1855 5.68351 28.1241 5.5368C28.0627 5.39009 27.9728 5.25705 27.8596 5.14539C27.7463 5.03374 27.612 4.94571 27.4644 4.88641C27.3169 4.82711 27.159 4.79774 27 4.79999H2.99999ZM2.99999 13.8C2.84097 13.7977 2.6831 13.8271 2.53554 13.8864C2.38798 13.9457 2.25367 14.0337 2.14043 14.1454C2.02718 14.257 1.93726 14.3901 1.87588 14.5368C1.81451 14.6835 1.7829 14.841 1.7829 15C1.7829 15.159 1.81451 15.3165 1.87588 15.4632C1.93726 15.6099 2.02718 15.7429 2.14043 15.8546C2.25367 15.9662 2.38798 16.0543 2.53554 16.1136C2.6831 16.1729 2.84097 16.2022 2.99999 16.2H27C27.159 16.2022 27.3169 16.1729 27.4644 16.1136C27.612 16.0543 27.7463 15.9662 27.8596 15.8546C27.9728 15.7429 28.0627 15.6099 28.1241 15.4632C28.1855 15.3165 28.2171 15.159 28.2171 15C28.2171 14.841 28.1855 14.6835 28.1241 14.5368C28.0627 14.3901 27.9728 14.257 27.8596 14.1454C27.7463 14.0337 27.612 13.9457 27.4644 13.8864C27.3169 13.8271 27.159 13.7977 27 13.8H2.99999ZM2.99999 22.8C2.84097 22.7977 2.6831 22.8271 2.53554 22.8864C2.38798 22.9457 2.25367 23.0337 2.14043 23.1454C2.02718 23.257 1.93726 23.3901 1.87588 23.5368C1.81451 23.6835 1.7829 23.841 1.7829 24C1.7829 24.159 1.81451 24.3165 1.87588 24.4632C1.93726 24.6099 2.02718 24.7429 2.14043 24.8546C2.25367 24.9662 2.38798 25.0543 2.53554 25.1136C2.6831 25.1729 2.84097 25.2022 2.99999 25.2H27C27.159 25.2022 27.3169 25.1729 27.4644 25.1136C27.612 25.0543 27.7463 24.9662 27.8596 24.8546C27.9728 24.7429 28.0627 24.6099 28.1241 24.4632C28.1855 24.3165 28.2171 24.159 28.2171 24C28.2171 23.841 28.1855 23.6835 28.1241 23.5368C28.0627 23.3901 27.9728 23.257 27.8596 23.1454C27.7463 23.0337 27.612 22.9457 27.4644 22.8864C27.3169 22.8271 27.159 22.7977 27 22.8H2.99999Z" fill="#323232"/>
</g>
</svg>
