<svg width="51" height="50" viewBox="0 0 51 50" fill="none" xmlns="http://www.w3.org/2000/svg">
<g id="icons8-html">
<path id="Vector" d="M44.7572 4.29603C44.5837 4.107 44.3343 4 44.0741 4H7.92591C7.6657 4 7.41632 4.107 7.24285 4.29603C7.06576 4.48505 6.97902 4.73828 7.00432 4.99507L10.2606 40.9925C10.2931 41.3706 10.5606 41.6844 10.9292 41.7914L25.7434 45.9643C25.8229 45.9893 25.9096 46 25.9964 46C26.0831 46 26.1663 45.9893 26.2494 45.9643L41.0744 41.7914C41.443 41.6844 41.7069 41.3706 41.743 40.9925L44.9957 4.99507C45.021 4.73828 44.9342 4.48505 44.7572 4.29603ZM36.9615 16.7077H19.5561L19.9717 21.355H36.5423L35.2991 35.0898L25.9928 37.8646L25.9024 37.8361L16.7045 35.0863L16.2022 29.4903H20.709L20.9041 31.6624L26.047 32.7252L31.0959 31.6624L31.6344 25.7846H15.8661L14.6409 12.2673H37.3627L36.9615 16.7077Z" fill="url(#paint0_linear_36_166)"/>
</g>
<defs>
<linearGradient id="paint0_linear_36_166" x1="7" y1="25" x2="45" y2="25" gradientUnits="userSpaceOnUse">
<stop stop-color="#282828"/>
<stop offset="1" stop-color="#8E8E8E"/>
</linearGradient>
</defs>
</svg>
