<svg width="50" height="50" viewBox="0 0 50 50" fill="none" xmlns="http://www.w3.org/2000/svg">
<path d="M0.232442 36.9098H4.36718V19.3083H0.232442V36.9098ZM2.29152 17C3.58674 17 4.59966 16.0037 4.59966 14.7583C4.59966 13.4963 3.58674 12.5 2.29152 12.5C1.01292 12.5 0 13.4963 0 14.7583C0 16.0037 1.01292 17 2.29152 17ZM18.1336 12.5497C11.1429 12.5497 6.75885 17.3154 6.75885 24.9374C6.75885 32.5594 11.1424 37.3085 18.1336 37.3085C25.1077 37.3085 29.4917 32.5594 29.4917 24.9374C29.4917 17.3154 25.1081 12.5497 18.1336 12.5497ZM18.1336 16.2029C22.4011 16.2029 25.1243 19.5904 25.1243 24.9373C25.1243 30.2676 22.401 33.6552 18.1336 33.6552C13.8494 33.6552 11.1429 30.2677 11.1429 24.9373C11.1429 19.5905 13.8495 16.2029 18.1336 16.2029ZM31.2359 30.1681C31.4185 34.5853 35.0385 37.3085 40.5514 37.3085C46.3467 37.3085 50 34.4523 50 29.9024C50 26.3323 47.9409 24.3231 43.0756 23.2106L40.3191 22.5796C37.38 21.8822 36.1678 20.9523 36.1678 19.3582C36.1678 17.3655 37.9944 16.0371 40.701 16.0371C43.4409 16.0371 45.3171 17.3821 45.5165 19.6238H49.6014C49.5018 15.4061 46.0147 12.5498 40.7344 12.5498C35.5201 12.5498 31.8171 15.4225 31.8171 19.6736C31.8171 23.0943 33.9094 25.2198 38.3262 26.2328L41.4314 26.9635C44.4536 27.6775 45.6823 28.6738 45.6823 30.4007C45.6823 32.3934 43.6731 33.8214 40.784 33.8214C37.8614 33.8214 35.6531 32.3768 35.3874 30.1682H31.2361L31.2359 30.1681Z" fill="url(#paint0_linear_195_208)"/>
<defs>
<linearGradient id="paint0_linear_195_208" x1="50" y1="24.9043" x2="5.39215" y2="24.9043" gradientUnits="userSpaceOnUse">
<stop stop-color="#8F8F8F"/>
<stop offset="1" stop-color="#373737"/>
</linearGradient>
</defs>
</svg>
