<svg width="62" height="28" viewBox="0 0 62 28" fill="none" xmlns="http://www.w3.org/2000/svg">
<path d="M13.7958 14.5238C13.2137 13.5853 12.7913 12.8071 12.2062 11.3418C11.2169 8.86668 18.2233 6.63018 15.3825 2.33276C16.6139 5.30135 10.9626 7.13651 10.4376 9.60868C9.95749 11.8825 13.7929 14.5238 13.7958 14.5238Z" fill="#F44336"/>
<path d="M13.9288 10.0742C13.8168 11.5418 15.2291 12.3241 15.2699 13.3963C15.3026 14.2689 14.4258 14.9963 14.4258 14.9963C14.4258 14.9963 16.0172 14.6837 16.5136 13.3525C17.0648 11.8743 15.4438 10.8623 15.6106 9.67867C15.7663 8.54817 19.1287 6.44525 19.1287 6.44525C19.1287 6.44525 14.1814 6.77309 13.9288 10.0742Z" fill="#F44336"/>
<path d="M18.7157 14.6154C19.7388 14.3856 20.6016 15.0372 20.6016 15.7879C20.6016 17.4802 18.256 19.0797 18.256 19.0797C18.256 19.0797 21.8873 18.6468 21.8873 15.8684C21.8873 14.0309 20.104 13.5718 18.7157 14.6154ZM16.9919 15.9804C16.9919 15.9804 18.1242 15.1737 18.4258 14.8709C15.6473 15.4607 9.30359 15.54 9.30359 15.0278C9.30359 14.5559 11.3493 14.0723 11.3493 14.0723C11.3493 14.0723 6.81509 14.007 6.81509 15.3446C6.81509 16.7387 12.7505 16.8385 16.9919 15.9804Z" fill="#1565C0"/>
<path d="M16.2954 17.2498C13.6652 18.1242 8.82058 17.8448 10.2556 16.6705C9.55675 16.6705 8.52075 17.2323 8.52075 17.7724C8.52075 18.8557 13.7603 19.6922 17.6383 18.1061L16.2954 17.2498Z" fill="#1565C0"/>
<path d="M10.9002 19.0977C9.94584 19.0977 9.32809 19.7126 9.32809 20.1606C9.32809 21.5553 15.0214 21.6959 17.2772 20.2802L15.8433 19.3282C14.1581 20.069 9.92484 20.1711 10.9002 19.0977Z" fill="#1565C0"/>
<path d="M21.1639 21.3687C21.1639 20.8227 20.5485 20.5654 20.328 20.4423C21.6277 23.5766 7.30975 23.3333 7.30975 21.483C7.30975 21.0624 8.36383 20.6506 9.338 20.8454L8.50967 20.356C6.56833 20.0515 5.25 20.9049 5.25 21.5933C5.25 24.8033 21.1639 24.6488 21.1639 21.3687Z" fill="#1565C0"/>
<path d="M22.75 22.519C20.3315 24.9077 14.1989 25.7781 8.03192 24.3022C14.1989 26.929 22.7208 25.4496 22.75 22.519Z" fill="#1565C0"/>
<g clip-path="url(#clip0_169_58)">
<path d="M34.0012 20.4406H35.1212V16.3077L36.6769 19.8409C36.8688 20.2813 37.1313 20.4371 37.6464 20.4371C38.1615 20.4371 38.4135 20.2813 38.6054 19.8409L40.1612 16.3981V20.4406H41.2812V16.2068C41.2812 15.8002 41.1196 15.603 40.7859 15.5015C39.9885 15.2507 39.453 15.4671 39.2109 16.0102L37.6155 19.6035L36.0703 16.0102C35.8381 15.4677 35.2933 15.2507 34.4953 15.5015C34.1616 15.603 34 15.7996 34 16.2062V20.44L34.0012 20.4406Z" fill="#00796B"/>
<path d="M41.8406 17.0806H42.9606V19.446C42.9518 19.5627 42.9979 19.8724 43.5381 19.8806C43.8134 19.8853 45.1837 19.8806 45.2006 19.8806V17.0806H46.3206C46.3252 17.0806 46.3206 20.5619 46.3206 20.5765C46.3264 21.4352 45.2542 21.546 44.7613 21.5606H41.8412V21.0006C41.847 21.0006 44.6336 21.0012 44.6417 21.0006C45.2764 20.9335 45.2012 20.5841 45.2012 20.4779V20.4406H43.4442C42.47 20.4318 41.8487 20.0025 41.8417 19.5131C41.8406 19.4676 41.8627 17.1016 41.8406 17.0806Z" fill="#00796B"/>
<path d="M46.8806 20.4406H49.6847C50.0522 20.4406 50.4092 20.3636 50.6927 20.2306C51.1652 20.0136 51.36 19.7202 51.36 19.3346V18.5366C51.36 17.6756 50.2925 17.6406 49.68 17.6406H48.56C48.1196 17.6406 48.0525 17.3746 48 17.0806V16.5206C48.0525 16.2966 48.1505 15.9956 48.5384 15.9606C48.9893 15.9606 51.3594 15.9606 51.3594 15.9606V15.4006H48.6959C48.2555 15.4006 46.8794 15.4531 46.8794 16.5206V17.213C46.8794 17.703 47.3099 18.102 48.2444 18.2C48.3494 18.207 48.4544 18.214 48.5588 18.214C48.5588 18.214 49.6473 18.193 49.6788 18.2C50.3088 18.2 50.2388 18.69 50.2388 18.76V19.32C50.2388 19.397 50.2213 19.88 49.6724 19.88C49.6304 19.88 46.8788 19.88 46.8788 19.88V20.4406H46.8806Z" fill="#F57F17"/>
<path d="M57.52 19.2967C57.52 19.9727 57.9021 20.3519 58.9154 20.4277C59.0099 20.4342 59.1049 20.44 59.2 20.44H62V19.88H59.4129C58.8349 19.88 58.64 19.6373 58.64 19.2902V15.4H57.52V19.2967Z" fill="#F57F17"/>
<path d="M51.9107 19.3206V16.5206C51.9107 15.9256 52.2023 15.5149 53.0283 15.4006H53.4203H55.4311H55.7373C56.5633 15.5149 56.9507 15.925 56.9507 16.5206V19.3101C56.9507 19.7925 56.8253 20.0515 56.4163 20.2195L57.2843 21H56.0243L55.4002 20.44H54.6669L53.4209 20.447C53.2407 20.447 53.0505 20.4219 52.8417 20.3647C52.2152 20.1938 51.9107 19.8648 51.9107 19.3206ZM53.0307 19.3206C53.0878 19.593 53.3066 19.8806 53.6957 19.8806H54.783L54.16 19.3206H55.4288L55.7315 19.6017C55.7315 19.6017 55.84 19.5131 55.84 19.3206C55.84 19.1281 55.8307 16.5206 55.8307 16.5206C55.7735 16.2674 55.5168 15.9606 55.1377 15.9606H53.6963C53.2593 15.9606 53.0313 16.2802 53.0313 16.5777L53.0307 19.3206Z" fill="#F57F17"/>
<path d="M60.9494 14.8102C60.348 14.7939 59.8889 14.8499 59.4963 15.015C59.3849 15.0622 59.207 15.0634 59.1883 15.2034C59.2496 15.2676 59.2589 15.3638 59.3079 15.4426C59.4013 15.5942 59.5599 15.7978 59.7011 15.904C59.8557 16.0207 60.0149 16.1455 60.18 16.2464C60.474 16.4255 60.8024 16.5282 61.0859 16.7078C61.2528 16.8134 61.4184 16.9476 61.5818 17.0666C61.6623 17.1261 61.7159 17.2177 61.8209 17.255C61.8209 17.2492 61.8209 17.2439 61.8209 17.2381C61.7661 17.1681 61.7515 17.0718 61.7013 16.9983C61.6273 16.9242 61.5532 16.8502 61.4791 16.7761C61.2621 16.4879 60.9856 16.2342 60.6928 16.0242C60.4588 15.8562 59.9356 15.6292 59.8376 15.3574C59.8318 15.3516 59.8265 15.3463 59.8201 15.3399C59.9858 15.3212 60.18 15.2612 60.3328 15.2203C60.5901 15.1515 60.8193 15.1696 61.0848 15.1007C61.2043 15.0663 61.3239 15.0325 61.4435 14.9981C61.4435 14.9753 61.4435 14.9526 61.4435 14.9298C61.3093 14.7922 61.2131 14.6102 61.0673 14.4853C60.684 14.1592 60.2663 13.8337 59.8364 13.5619C59.5978 13.4114 59.3027 13.3134 59.0501 13.1857C58.9649 13.1425 58.8156 13.1203 58.7596 13.0492C58.6266 12.88 58.5548 12.6647 58.4522 12.4682C58.2375 12.0552 58.0263 11.6037 57.8368 11.1691C57.7067 10.8727 57.6221 10.5799 57.4605 10.3139C56.6841 9.03757 55.8482 8.26699 54.5543 7.50982C54.279 7.34882 53.9471 7.28524 53.5965 7.20182C53.4081 7.19074 53.2203 7.17907 53.0318 7.16741C52.9169 7.11899 52.7979 6.97899 52.6894 6.91074C52.2607 6.63949 51.1605 6.05032 50.8432 6.82499C50.6425 7.31382 51.143 7.79099 51.3221 8.03891C51.4475 8.21274 51.6085 8.40757 51.6983 8.60357C51.7573 8.73191 51.7678 8.86083 51.8179 8.99674C51.9422 9.33157 52.1388 9.71307 52.2998 10.0228C52.3808 10.1797 52.4707 10.3442 52.5733 10.4842C52.6363 10.57 52.7443 10.6079 52.7618 10.7409C52.6562 10.8885 52.6503 11.1177 52.5908 11.3056C52.3237 12.1485 52.4246 13.1956 52.8131 13.8186C52.9321 14.0099 53.2133 14.4206 53.5994 14.2631C53.9372 14.1254 53.8619 13.699 53.9582 13.3227C53.9798 13.2376 53.9663 13.1752 54.0095 13.118C54.0095 13.1238 54.0095 13.1291 54.0095 13.1355C54.1122 13.3402 54.2143 13.5462 54.3175 13.7509C54.5456 14.1178 54.9498 14.5011 55.2917 14.7601C55.469 14.8942 55.609 15.1264 55.8388 15.2046C55.8388 15.1987 55.8388 15.1935 55.8388 15.1871C55.833 15.1871 55.8278 15.1871 55.8213 15.1871C55.777 15.1177 55.707 15.0891 55.6504 15.0331C55.5168 14.9018 55.3675 14.7391 55.2573 14.5886C54.9458 14.1657 54.6704 13.7025 54.4196 13.2207C54.3 12.9902 54.1956 12.7371 54.0947 12.5026C54.0556 12.4122 54.0562 12.2757 53.9751 12.229C53.8643 12.4005 53.7021 12.5393 53.6163 12.7417C53.4798 13.0655 53.4618 13.461 53.4116 13.8699C53.3813 13.8804 53.3947 13.8734 53.3772 13.8868C53.1392 13.8291 53.0552 13.5847 52.9665 13.3741C52.7425 12.8421 52.7011 11.9857 52.8983 11.3738C52.949 11.2152 53.1794 10.7164 53.0867 10.57C53.0423 10.4236 52.8953 10.339 52.8137 10.2276C52.7116 10.0899 52.6107 9.90791 52.5401 9.74866C52.3569 9.33391 52.1831 8.85149 51.99 8.43207C51.8978 8.23141 51.7421 8.02899 51.6138 7.85107C51.472 7.65391 51.3128 7.50866 51.2031 7.27007C51.164 7.18549 51.1109 7.04957 51.1687 6.96207C51.1873 6.90316 51.213 6.87866 51.2713 6.85941C51.3705 6.78241 51.6464 6.88449 51.7503 6.92766C52.0244 7.04141 52.2531 7.14991 52.4853 7.30391C52.5967 7.37799 52.7093 7.52091 52.844 7.56058C52.8953 7.56058 52.9467 7.56058 52.998 7.56058C53.2389 7.61599 53.5084 7.57807 53.733 7.64632C54.1308 7.76707 54.4867 7.95491 54.8098 8.15908C55.7957 8.78149 56.6013 9.66699 57.1525 10.724C57.2412 10.8943 57.2797 11.0565 57.3573 11.2367C57.5148 11.6007 57.7137 11.9752 57.87 12.3311C58.0263 12.6863 58.1792 13.0445 58.4003 13.3402C58.5169 13.4954 58.9661 13.5788 59.1697 13.6652C59.3126 13.7258 59.5471 13.7882 59.6824 13.8699C59.9414 14.0262 60.1923 14.2123 60.4343 14.3827C60.558 14.4684 60.9308 14.6557 60.9494 14.8102Z" fill="#00796B"/>
<path d="M53.3072 8.29674C53.1818 8.2944 53.0931 8.31015 52.9992 8.33115C52.9992 8.33699 52.9992 8.34224 52.9992 8.34866C53.005 8.34866 53.0103 8.34866 53.0167 8.34866C53.0768 8.47116 53.1818 8.55107 53.2558 8.65666C53.313 8.77624 53.3696 8.89582 53.4268 9.01541C53.4326 9.00957 53.4378 9.00432 53.4437 8.99849C53.5493 8.92382 53.5983 8.80482 53.5977 8.62224C53.5551 8.57732 53.5487 8.52132 53.5119 8.46824C53.4629 8.39649 53.3684 8.35624 53.3072 8.29674Z" fill="#00796B"/>
</g>
<defs>
<clipPath id="clip0_169_58">
<rect width="28" height="28" fill="white" transform="translate(34)"/>
</clipPath>
</defs>
</svg>
