<svg width="28" height="28" viewBox="0 0 28 28" fill="none" xmlns="http://www.w3.org/2000/svg">
<path d="M15.1666 9.91667H10.5C8.24479 9.91667 6.41663 8.0885 6.41663 5.83333C6.41663 3.57817 8.24479 1.75 10.5 1.75H15.1666V9.91667Z" fill="#E64A19"/>
<path d="M14.5833 18.0834H10.5C8.24479 18.0834 6.41663 16.2552 6.41663 14.0001C6.41663 11.7449 8.24479 9.91675 10.5 9.91675H14.5833V18.0834Z" fill="#7C4DFF"/>
<path d="M10.5 26.2499C8.24479 26.2499 6.41663 24.4218 6.41663 22.1666C6.41663 19.9114 8.24479 18.0833 10.5 18.0833H14.5833V22.1666C14.5833 24.4218 12.7551 26.2499 10.5 26.2499Z" fill="#66BB6A"/>
<path d="M18.6667 9.91667H14.5834V1.75H18.6667C20.9219 1.75 22.75 3.57817 22.75 5.83333C22.75 8.0885 20.9219 9.91667 18.6667 9.91667Z" fill="#FF7043"/>
<path d="M18.6667 18.0834C20.9219 18.0834 22.75 16.2552 22.75 14.0001C22.75 11.7449 20.9219 9.91675 18.6667 9.91675C16.4115 9.91675 14.5834 11.7449 14.5834 14.0001C14.5834 16.2552 16.4115 18.0834 18.6667 18.0834Z" fill="#29B6F6"/>
</svg>
