<svg width="50" height="50" viewBox="0 0 50 50" fill="none" xmlns="http://www.w3.org/2000/svg">
<path d="M26.8869 36H13.3324C13.1108 36 13 35.8889 13 35.6667V14.2667C13 14.0889 13.0985 14 13.2955 14H17.2473C17.3951 14 17.4689 14.0778 17.4689 14.2333V32.8667H27.5887C27.8103 32.8667 27.8964 32.9556 27.8472 33.1333L27.2563 35.7333C27.207 35.9111 27.0839 36 26.8869 36Z" fill="url(#paint0_linear_193_1665)"/>
<path d="M29.8433 19.7667H33.3151C33.512 19.7667 33.6475 19.8556 33.7213 20.0333C33.9183 20.4778 34.0414 21.1222 34.0907 21.9667C35.5188 20.3 37.4024 19.4667 39.7415 19.4667C39.9138 19.4667 40 19.5444 40 19.7V23.0667C40 23.2444 39.9015 23.3222 39.7045 23.3C37.5624 23.1889 35.8758 23.6889 34.6447 24.8C34.4231 25 34.3123 25.2667 34.3123 25.6V35.7667C34.3123 35.9222 34.2138 36 34.0168 36H30.1388C29.9172 36 29.8064 35.9111 29.8064 35.7333V24.4667C29.8064 22.6667 29.7448 21.1778 29.6217 20C29.5971 19.8444 29.671 19.7667 29.8433 19.7667Z" fill="url(#paint1_linear_193_1665)"/>
<defs>
<linearGradient id="paint0_linear_193_1665" x1="40" y1="25" x2="15.9118" y2="25" gradientUnits="userSpaceOnUse">
<stop stop-color="#8F8F8F"/>
<stop offset="1" stop-color="#373737"/>
</linearGradient>
<linearGradient id="paint1_linear_193_1665" x1="40" y1="25" x2="15.9118" y2="25" gradientUnits="userSpaceOnUse">
<stop stop-color="#8F8F8F"/>
<stop offset="1" stop-color="#373737"/>
</linearGradient>
</defs>
</svg>
