<svg width="50" height="50" viewBox="0 0 50 50" fill="none" xmlns="http://www.w3.org/2000/svg">
<path fill-rule="evenodd" clip-rule="evenodd" d="M44.4621 40.8573C43.7609 40.28 43.0445 39.7163 42.3886 39.0898C41.6582 38.3925 41.1992 37.5491 41.2992 36.4812C41.3566 35.8667 41.2148 35.3382 40.4738 35.1327C40.648 34.6819 40.8113 34.3796 40.8773 34.0573C40.9508 33.698 40.9469 33.3202 40.957 32.9503C41.0601 29.0597 39.6547 25.6491 37.573 22.4679C36.6144 21.0038 35.6133 19.5659 34.5914 18.1452C32.9929 15.9234 32.4199 13.4273 32.391 10.7308C32.3746 9.48602 32.2331 8.24607 31.9687 7.0296C31.4558 4.67023 30.1918 2.82531 27.8992 1.83585C26.1426 1.07726 24.3242 0.926869 22.4691 1.41242C19.7734 2.11749 18.1433 4.12101 18.1738 6.91554C18.2027 9.60499 18.3367 12.298 18.534 14.9812C18.6465 16.5019 18.4121 17.814 17.4031 19.0202C16.4328 20.18 15.5648 21.4312 14.7242 22.6909C14.2441 23.4112 13.8191 24.196 13.5222 25.0077C12.7136 27.2198 11.9703 29.4503 10.6801 31.453C10.2019 32.1952 10.1476 33.0257 10.4871 33.8745C10.575 34.0944 10.6289 34.4327 10.5219 34.6097C9.60232 36.1359 8.56443 37.4788 6.58982 37.7718C5.0367 38.0027 4.96013 38.2851 5.0074 39.8862C5.04646 41.1898 5.03123 42.5054 4.89802 43.8007C4.75623 45.1894 4.90115 45.5667 6.24256 45.8995C9.33787 46.6683 12.4586 47.3241 15.4191 48.5769C16.6797 49.1101 17.9445 48.9249 18.9597 47.8882C20.0195 46.8058 21.3586 46.3823 22.8051 46.3808C25.2601 46.3788 27.716 46.4972 30.1722 46.5249C30.8371 46.5327 31.2187 46.78 31.4863 47.3839C31.8144 48.1234 32.3691 48.6667 33.2226 48.7612C34.8605 48.9417 36.3527 48.6987 37.5937 47.4491C39.1242 45.9069 40.889 44.689 42.9121 43.8448C43.491 43.603 44.0363 43.223 44.5148 42.8105C45.3863 42.0597 45.3402 41.5816 44.4621 40.8573V40.8573ZM24.3851 9.42179C24.6812 8.40578 25.3761 7.7464 26.4332 7.5464C27.3222 7.37843 28.075 7.81515 28.6359 8.81437C29.2398 9.89171 29.4383 11.0175 28.9226 12.1964C28.4996 13.1628 28.3011 13.2538 27.3121 12.9261C27.1269 12.8648 26.9461 12.7921 26.6179 12.6714C26.8945 12.4394 27.0687 12.2671 27.2679 12.1316C27.7109 11.83 27.8351 11.4058 27.7937 10.9019C27.7394 10.2402 27.2191 9.65421 26.6855 9.66164C26.207 9.66828 25.8019 10.1175 25.748 10.8003C25.7144 11.2257 25.7851 11.6593 25.8156 12.2023C24.4695 11.8027 23.9754 10.8253 24.3851 9.42179V9.42179ZM19.4047 8.54249C19.9023 7.78937 20.6535 7.63859 21.3972 8.14249C22.1898 8.67999 22.7828 10.1956 22.4765 11.1019C22.3652 11.4316 22.0363 11.6878 21.8062 11.9773L21.5703 11.8312C21.4804 11.3417 21.4625 10.8214 21.2746 10.373C21.1558 10.0886 20.7836 9.91046 20.525 9.68468C20.282 9.97335 19.8636 10.2484 19.8386 10.555C19.8043 10.9784 20.025 11.4456 20.2172 11.8562C20.3387 12.1144 20.6082 12.3034 20.8863 12.6046L20.1355 13.1944C18.9566 12.1398 18.6062 9.74914 19.4047 8.54249V8.54249ZM34.1172 33.623C34.0379 34.6401 33.9219 34.6827 32.8992 34.8331C32.173 34.9394 31.9777 35.1284 31.941 35.9909C31.901 37 31.8994 38.0102 31.9363 39.0194C31.9601 39.7109 31.7265 40.253 31.2508 40.7355C28.6086 43.4136 25.4519 44.6827 21.6758 44.2222C20.0469 44.0234 18.982 43.0319 18.1222 41.6288C18.5051 41.487 18.7883 41.3917 19.0644 41.2796C20.284 40.7835 20.5121 39.7347 19.5383 38.8277C18.8023 38.1413 17.9812 37.5452 17.1918 36.9167C16.4285 36.3093 15.6551 35.7144 14.8906 35.1085C14.239 34.5917 13.9902 33.9257 13.9746 33.0819C13.9379 31.0577 14.3543 29.164 15.2004 27.3214C15.9551 25.6773 16.5398 23.9554 17.2469 22.2882C17.6121 21.428 17.9914 20.548 18.5273 19.7929C19.0426 19.0687 19.3609 18.3597 19.3039 17.4726C19.2711 16.9741 19.2976 16.4718 19.2976 15.9714L19.5738 15.8339C20.0195 16.2187 20.473 16.5952 20.9109 16.9898C22.491 18.414 23.9937 18.4792 25.723 17.2515C26.4605 16.7277 27.2582 16.2866 28.0383 15.8249C28.2324 15.7101 28.4648 15.6597 28.7937 15.5366C29.634 17.5155 30.4586 19.4558 31.284 21.396C31.7027 22.3819 32.0386 23.4144 32.559 24.3441C33.6023 26.2093 34.1574 28.1773 34.1488 30.3097C34.1441 31.4152 34.2023 32.5245 34.1172 33.623V33.623Z" fill="url(#paint0_linear_193_1645)"/>
<defs>
<linearGradient id="paint0_linear_193_1645" x1="45.1451" y1="25" x2="9.19955" y2="25" gradientUnits="userSpaceOnUse">
<stop stop-color="#8F8F8F"/>
<stop offset="1" stop-color="#373737"/>
</linearGradient>
</defs>
</svg>
