<svg width="50" height="50" viewBox="0 0 50 50" fill="none" xmlns="http://www.w3.org/2000/svg">
<path d="M23.0198 13.6605C24.1891 12.4793 25.6443 11.8713 27.2821 11.8713C28.889 11.8713 30.2859 12.4709 31.42 13.5637C32.5574 12.4691 33.9641 11.8713 35.5717 11.8713C37.2095 11.8713 38.6647 12.4793 39.8339 13.6605C41.0026 14.841 41.6162 16.3147 41.6162 17.9779L41.63 28.4712C41.4498 30.2284 40.7084 31.7896 39.4402 33.0927H39.4332C37.942 34.6108 36.0937 35.3931 33.9897 35.3931L20.2981 35.3931C18.6223 35.2139 17.1309 34.4204 15.8908 33.1963C14.4398 31.751 13.694 29.9637 13.694 27.9255V8.71542H17.3V27.214C17.3 29.6887 18.9897 31.6144 20.9681 31.6144L33.2644 31.6627C35.8281 31.6627 37.8237 29.8967 37.8237 27.8012L37.8029 17.9779C37.8029 17.3405 37.5949 16.842 37.1398 16.3822C36.6831 15.921 36.1996 15.7122 35.5717 15.7122C34.9306 15.7122 34.4543 15.9199 33.9966 16.3822C33.5415 16.842 33.3335 17.3405 33.3335 17.9779V26.385H29.5202V17.9779C29.5202 17.3405 29.3122 16.842 28.8571 16.3822C28.3994 15.9199 27.9231 15.7122 27.2821 15.7122C26.6542 15.7122 26.1706 15.921 25.7139 16.3822C25.2588 16.842 25.0508 17.3405 25.0508 17.9779V26.385H21.2376V17.9779C21.2375 16.3147 21.8512 14.841 23.0198 13.6605Z" fill="url(#paint0_linear_195_205)"/>
<path fill-rule="evenodd" clip-rule="evenodd" d="M22.7239 43.7739C13.6441 43.7739 5.76463 36.8906 5.76463 27.819L5.75649 15.6309H0V0L24.2752 0.114322L31.8689 0.130656C40.9568 0.130656 48.8281 7.00577 48.8281 16.0855V43.7739H22.7239ZM44.3493 35.9264V16.5848C44.3493 10.123 38.6825 4.88496 31.6906 4.88496H24.4338V4.86937L4.80664 4.78361V11.0584H7.00526C8.49795 11.0584 10.2941 12.4611 10.2941 14.5196L10.3097 27.7781C10.3097 34.2399 15.9765 39.478 22.9605 39.478H40.2042C42.4148 39.478 44.3493 38.078 44.3493 35.9264Z" fill="url(#paint1_linear_195_205)"/>
<defs>
<linearGradient id="paint0_linear_195_205" x1="48.8281" y1="21.8869" x2="5.26578" y2="21.8869" gradientUnits="userSpaceOnUse">
<stop stop-color="#8F8F8F"/>
<stop offset="1" stop-color="#373737"/>
</linearGradient>
<linearGradient id="paint1_linear_195_205" x1="48.8281" y1="21.8869" x2="5.26578" y2="21.8869" gradientUnits="userSpaceOnUse">
<stop stop-color="#8F8F8F"/>
<stop offset="1" stop-color="#373737"/>
</linearGradient>
</defs>
</svg>
