<svg width="35" height="35" viewBox="0 -4 35 35" fill="none" xmlns="http://www.w3.org/2000/svg">
<g clip-path="url(#clip0_64_319)">
<rect y="0.5" width="28" height="28" rx="14" fill="#282828"/>
<path d="M6.94036 20.587H9.54129V14.3171L5.82568 11.551V19.4805C5.82568 20.0928 6.32543 20.587 6.94036 20.587Z" fill="#F1F1F1"/>
<path d="M18.4587 20.587H21.0597C21.6765 20.587 22.1743 20.0909 22.1743 19.4805V11.551L18.4587 14.3171" fill="#F1F1F1"/>
<path d="M18.4587 9.52264V14.3172L22.1743 11.5511V10.0759C22.1743 8.70756 20.6008 7.92752 19.4991 8.74813" fill="#F1F1F1"/>
<path d="M9.54126 14.3171V9.52255L14 12.8419L18.4587 9.52255V14.3171L14 17.6365" fill="#F1F1F1"/>
<path d="M5.82568 10.0759V11.5511L9.54129 14.3172V9.52264L8.50092 8.74813C7.39738 7.92752 5.82568 8.70756 5.82568 10.0759Z" fill="#F1F1F1"/>
</g>
<defs>
<clipPath id="clip0_64_319">
<rect width="28" height="28" fill="white" transform="translate(0 0.5)"/>
</clipPath>
</defs>
</svg>
