<svg width="35" height="22" viewBox="0 0 35 22" fill="none" xmlns="http://www.w3.org/2000/svg">
<rect x="0.5" y="1.5" width="34" height="19" rx="3.5" stroke="url(#paint0_linear_16_45)"/>
<path d="M8.832 5.816H11.232L14.672 13.304L18.128 5.816H20.512V17H18.192V10.648L15.232 17H14.112L11.168 10.648V17H8.832V5.816ZM23.4394 17.24C23.1087 17.24 22.7567 17.208 22.3834 17.144C22.0207 17.08 21.7434 17 21.5514 16.904V14.808C21.7114 14.8827 21.914 14.9413 22.1594 14.984C22.4047 15.0267 22.65 15.048 22.8954 15.048C23.3754 15.048 23.7327 14.936 23.9674 14.712C24.202 14.488 24.3194 14.136 24.3194 13.656V5.816H26.7514V13.88C26.7514 14.9147 26.4634 15.736 25.8874 16.344C25.3114 16.9413 24.4954 17.24 23.4394 17.24Z" fill="url(#paint1_linear_16_45)"/>
<defs>
<linearGradient id="paint0_linear_16_45" x1="33.5" y1="2" x2="2.5" y2="19.5" gradientUnits="userSpaceOnUse">
<stop stop-color="#282828"/>
<stop offset="0.824636" stop-color="#838383"/>
<stop offset="1" stop-color="#8E8E8E"/>
</linearGradient>
<linearGradient id="paint1_linear_16_45" x1="22.5" y1="7" x2="7.5" y2="18" gradientUnits="userSpaceOnUse">
<stop stop-color="#282828"/>
<stop offset="1" stop-color="#8E8E8E"/>
</linearGradient>
</defs>
</svg>
