<svg width="50" height="50" viewBox="0 0 50 50" fill="none" xmlns="http://www.w3.org/2000/svg">
<g clip-path="url(#clip0_193_2390)">
<path d="M36.1984 17.3557L36.1803 17.3478C36.1697 17.344 36.1594 17.34 36.1502 17.3309C36.1353 17.3149 36.1242 17.2955 36.1179 17.2746C36.1115 17.2536 36.1101 17.2313 36.1136 17.2097L37.1213 11.0501L41.8466 15.776L36.9322 17.8666C36.9187 17.8722 36.904 17.8748 36.8893 17.8745H36.8697C36.8632 17.8705 36.8568 17.8653 36.8437 17.8522C36.6607 17.6487 36.4421 17.4804 36.1984 17.3557ZM43.0524 16.9803L48.1046 22.0321C49.154 23.0826 49.6793 23.6066 49.871 24.214C49.8996 24.3039 49.9231 24.3938 49.9414 24.4864L37.867 19.3733C37.8604 19.3707 37.8539 19.3681 37.8473 19.3655C37.7992 19.346 37.7431 19.3237 37.7431 19.2742C37.7431 19.2246 37.8004 19.2013 37.8487 19.1816L37.8642 19.1752L43.0524 16.9803ZM49.7354 26.1077C49.4746 26.5978 48.9662 27.106 48.106 27.9676L42.4097 33.662L35.0423 32.128L35.0031 32.1201C34.9379 32.1097 34.8688 32.098 34.8688 32.0393C34.8409 31.7355 34.7507 31.4405 34.6037 31.173C34.4569 30.9056 34.2565 30.6711 34.015 30.4844C33.9851 30.4544 33.9929 30.4074 34.0021 30.3644C34.0021 30.358 34.0021 30.3515 34.0046 30.3463L35.3903 21.8405L35.3955 21.8118C35.4033 21.7467 35.415 21.6711 35.4737 21.6711C35.7707 21.6342 36.0572 21.5385 36.3168 21.3897C36.5764 21.2409 36.8039 21.0419 36.9857 20.8044C36.9975 20.7914 37.0053 20.7771 37.021 20.7691C37.0627 20.7496 37.1123 20.7691 37.1553 20.7874L49.7341 26.1077H49.7354ZM41.0996 34.9719L31.7325 44.3377L33.3359 34.4844L33.3385 34.4713C33.3399 34.4583 33.3425 34.4452 33.3464 34.4335C33.3594 34.4022 33.3932 34.3893 33.4258 34.3762L33.4415 34.3696C33.7926 34.2199 34.1031 33.989 34.3475 33.6958C34.3787 33.6594 34.4165 33.6242 34.4647 33.6176C34.4774 33.6156 34.49 33.6156 34.5025 33.6176L41.0984 34.9731L41.0996 34.9719ZM29.7499 46.3201L28.6941 47.3759L17.0213 30.5079C17.017 30.5016 17.0126 30.4955 17.0082 30.4896C16.9899 30.4649 16.9703 30.44 16.9743 30.4114C16.9743 30.3905 16.9886 30.3723 17.003 30.3566L17.0159 30.3397C17.0511 30.2876 17.0812 30.2355 17.1138 30.1794L17.1399 30.1338L17.1437 30.1298C17.162 30.0986 17.1789 30.0685 17.2103 30.0516C17.2376 30.0387 17.2754 30.0438 17.3054 30.0504L30.2374 32.717C30.2737 32.7226 30.3077 32.7374 30.3365 32.76C30.3534 32.7769 30.3574 32.7952 30.3614 32.8161C30.4516 33.1574 30.6194 33.4731 30.8519 33.7388C31.0844 34.0045 31.3751 34.2127 31.7013 34.3475C31.7379 34.3658 31.7222 34.4062 31.7053 34.4492C31.6967 34.4681 31.6902 34.4877 31.6857 34.5079C31.5228 35.4984 30.1254 44.0198 29.7499 46.3201ZM27.5444 48.524C26.7662 49.2944 26.3074 49.7024 25.7886 49.8666C25.2771 50.0283 24.7281 50.0283 24.2165 49.8666C23.6092 49.6737 23.0838 49.1496 22.0345 48.0992L10.312 36.3781L13.374 31.63C13.3883 31.6066 13.4027 31.5858 13.4261 31.5688C13.4587 31.5454 13.5056 31.5557 13.5448 31.5688C14.2475 31.7807 15.0021 31.7426 15.68 31.4606C15.7152 31.4475 15.7502 31.4385 15.7777 31.4632C15.7914 31.4757 15.8036 31.4897 15.8141 31.505L27.5444 48.5254V48.524ZM9.1819 35.2481L6.49277 32.5594L11.8033 30.2941C11.8168 30.2882 11.8315 30.285 11.8463 30.285C11.8906 30.285 11.9167 30.3294 11.9401 30.3698C11.9935 30.4518 12.05 30.5318 12.1096 30.6095L12.1265 30.6304C12.1422 30.6525 12.1317 30.6746 12.1161 30.6955L9.18321 35.2481H9.1819ZM5.30266 31.3693L1.9005 27.9676C1.32174 27.389 0.902011 26.9693 0.610025 26.6082L10.9547 28.7536C10.9677 28.7559 10.9807 28.7582 10.9938 28.76C11.0576 28.7705 11.128 28.7823 11.128 28.8422C11.128 28.9073 11.0511 28.9373 10.986 28.9621L10.956 28.9751L5.30266 31.3693ZM0.015625 24.8591C0.0274142 24.64 0.0668312 24.4233 0.132941 24.214C0.32586 23.6066 0.849871 23.0826 1.9005 22.0321L6.25422 17.6789C8.25881 20.5879 10.2688 23.4931 12.2842 26.3944C12.3194 26.4414 12.3585 26.4935 12.3182 26.5326C12.1278 26.7425 11.9375 26.9719 11.8033 27.2208C11.7887 27.2528 11.7663 27.2806 11.7381 27.3016C11.7211 27.312 11.7029 27.3082 11.6833 27.3042H11.6807L0.015625 24.8579V24.8591ZM7.41955 16.5137L13.271 10.6604C13.8224 10.9015 15.8258 11.7474 17.6156 12.5033C18.9713 13.0768 20.2069 13.5981 20.5955 13.7676C20.6345 13.7832 20.6697 13.7988 20.6867 13.8379C20.6972 13.8614 20.6918 13.8914 20.6867 13.9161C20.594 14.3387 20.6078 14.7776 20.7267 15.1934C20.8458 15.6094 21.0662 15.9891 21.3684 16.2987C21.4075 16.3377 21.3684 16.3938 21.3345 16.442L21.3162 16.4694L15.3723 25.6749C15.3566 25.701 15.3423 25.7233 15.3162 25.7402C15.285 25.7597 15.2406 25.7505 15.2041 25.7416C14.9729 25.6809 14.7353 25.6486 14.4963 25.6451C14.2825 25.6451 14.0505 25.6841 13.8159 25.7271H13.8146C13.7885 25.731 13.765 25.7362 13.7442 25.7207C13.7212 25.7018 13.7013 25.6794 13.6855 25.6542L7.41826 16.5137H7.41955ZM14.4559 9.47823L22.0345 1.90053C23.0838 0.851328 23.6092 0.326076 24.2165 0.134484C24.7281 -0.0272498 25.2771 -0.0272498 25.7886 0.134484C26.3961 0.326076 26.9214 0.851328 27.9707 1.90053L29.6132 3.54275L24.2231 11.8894C24.2098 11.9137 24.1915 11.935 24.1696 11.952C24.1371 11.9741 24.0914 11.965 24.0524 11.952C23.6274 11.823 23.1774 11.7996 22.7414 11.8836C22.3053 11.9676 21.8963 12.1566 21.5496 12.4342C21.5144 12.4707 21.4623 12.4499 21.4179 12.4303C20.7141 12.124 15.2393 9.81058 14.4559 9.47823ZM30.7575 4.6871L35.7344 9.6633L34.5351 17.0899V17.1094C34.5341 17.1263 34.5306 17.1429 34.5248 17.1589C34.5117 17.185 34.4856 17.1902 34.4595 17.198C34.2031 17.2757 33.9617 17.396 33.7452 17.5537C33.7359 17.5605 33.7272 17.5679 33.7191 17.576C33.7048 17.5916 33.6905 17.6059 33.667 17.6085C33.6479 17.6091 33.6289 17.606 33.6109 17.5995L26.0272 14.3775L26.0129 14.371C25.9646 14.3515 25.9072 14.328 25.9072 14.2785C25.8627 13.8559 25.7246 13.4485 25.5031 13.0859C25.4667 13.026 25.4263 12.9634 25.4575 12.9021L30.7575 4.6871ZM25.6322 15.9037L32.7415 18.9146C32.7806 18.9327 32.8237 18.9496 32.8406 18.99C32.8473 19.0144 32.8473 19.04 32.8406 19.0644C32.8197 19.1687 32.8014 19.2873 32.8014 19.4071V19.6066C32.8014 19.6562 32.7507 19.6769 32.7037 19.6966L32.6894 19.7018C31.5632 20.1827 16.8778 26.444 16.8557 26.444C16.8335 26.444 16.81 26.444 16.7879 26.4219C16.7487 26.3827 16.7879 26.328 16.8231 26.2784C16.8293 26.2699 16.8354 26.2612 16.8414 26.2524L22.6836 17.2071L22.6941 17.1914C22.728 17.1367 22.7671 17.0755 22.8296 17.0755L22.8883 17.0845C23.0213 17.1028 23.1386 17.1198 23.2572 17.1198C24.1435 17.1198 24.9649 16.6883 25.4601 15.9507C25.4719 15.931 25.487 15.9133 25.5045 15.8986C25.5397 15.8725 25.5918 15.8855 25.6322 15.9037ZM17.4905 27.8751L33.4976 21.0493C33.4976 21.0493 33.521 21.0495 33.5432 21.0716C33.6306 21.1589 33.7048 21.2175 33.7764 21.2723L33.8117 21.2944C33.8443 21.3127 33.8769 21.3335 33.8795 21.3675C33.8795 21.3804 33.8795 21.3884 33.8769 21.3999L32.5056 29.8223L32.5004 29.8562C32.4912 29.9213 32.4821 29.9957 32.4208 29.9957C32.0553 30.0204 31.7011 30.1338 31.3894 30.3262C31.0775 30.5184 30.8173 30.7839 30.6312 31.0996L30.6246 31.11C30.6063 31.14 30.5894 31.1687 30.5595 31.1842C30.5321 31.1973 30.4969 31.1922 30.4682 31.1856L17.703 28.5528C17.6899 28.5502 17.5048 27.8763 17.4905 27.8751Z" fill="url(#paint0_linear_193_2390)"/>
</g>
<defs>
<linearGradient id="paint0_linear_193_2390" x1="49.9414" y1="25.0005" x2="5.39977" y2="25.0005" gradientUnits="userSpaceOnUse">
<stop stop-color="#8F8F8F"/>
<stop offset="1" stop-color="#373737"/>
</linearGradient>
<clipPath id="clip0_193_2390">
<rect width="50" height="50" fill="white"/>
</clipPath>
</defs>
</svg>
