<svg width="50" height="50" viewBox="0 0 50 50" fill="none" xmlns="http://www.w3.org/2000/svg">
<path d="M23.0438 2.3166C24.2052 1.65892 25.6858 1.65606 26.8181 2.3166L44.1558 12.091C45.2401 12.7007 45.9658 13.91 45.9557 15.16V34.758C45.963 36.0602 45.1661 37.2956 44.0222 37.8937L26.7774 47.6231C26.704 47.6636 26.6295 47.7016 26.5536 47.7372C26.4778 47.7727 26.4009 47.8058 26.3227 47.8363C26.2447 47.8666 26.1657 47.8945 26.0859 47.9196C26.0059 47.9447 25.9253 47.9673 25.8438 47.987C25.7625 48.0068 25.6806 48.0239 25.598 48.0382C25.5154 48.0527 25.4325 48.0643 25.3492 48.073C25.266 48.0818 25.1824 48.0878 25.0986 48.0911C25.0151 48.0943 24.9313 48.0949 24.8476 48.0925C24.7638 48.0902 24.6803 48.0851 24.5968 48.0773C24.5135 48.0693 24.4304 48.0587 24.3477 48.0452C24.2651 48.0318 24.1829 48.0157 24.1013 47.9968C24.0196 47.9779 23.9388 47.9564 23.8585 47.9321C23.7783 47.9079 23.699 47.8809 23.6207 47.8514C23.5423 47.8218 23.4651 47.7898 23.3888 47.755C23.3125 47.7204 23.2375 47.6831 23.1638 47.6434C23.0899 47.6037 23.0175 47.5616 22.9466 47.5171L17.7717 44.5266C17.419 44.3161 17.0227 44.1492 16.773 43.808C16.9937 43.5119 17.3856 43.4742 17.7049 43.3434C18.425 43.1141 19.0839 42.7628 19.7459 42.3911C19.9128 42.2751 20.1175 42.3186 20.2772 42.4231L24.6899 44.9752C25.005 45.1567 25.3243 44.9171 25.5944 44.7646L42.527 35.208C42.7362 35.1064 42.8522 34.8857 42.8349 34.6564V15.2469C42.858 14.9857 42.7085 14.7476 42.472 14.6416L25.2707 4.95436C25.2459 4.9373 25.2201 4.9222 25.1933 4.90905C25.1664 4.8959 25.1386 4.88483 25.11 4.87585C25.0815 4.86699 25.0523 4.86022 25.0227 4.85566C24.9931 4.85111 24.9634 4.84876 24.9333 4.84863C24.9033 4.84863 24.8736 4.85085 24.844 4.85527C24.8143 4.8597 24.7852 4.86634 24.7566 4.8752C24.7279 4.88392 24.7001 4.89486 24.6731 4.90801C24.6462 4.92103 24.6204 4.936 24.5957 4.95293L7.41896 14.6605C7.1868 14.7665 7.02703 15.0016 7.05607 15.263V34.6723C7.03576 34.9018 7.15776 35.118 7.36818 35.2167L11.9582 37.8081C12.8204 38.2726 13.8786 38.5339 14.8279 38.1928C14.8795 38.1734 14.9302 38.152 14.9802 38.1287C15.03 38.1054 15.079 38.0803 15.127 38.0533C15.1751 38.0262 15.2221 37.9975 15.2679 37.967C15.3138 37.9364 15.3583 37.9041 15.4018 37.8701C15.4451 37.8363 15.4872 37.8007 15.5278 37.7635C15.5686 37.7264 15.6078 37.6877 15.6455 37.6476C15.6833 37.6075 15.7195 37.5659 15.7541 37.5231C15.7888 37.4803 15.8217 37.4361 15.8529 37.3908C15.8842 37.3454 15.9136 37.2989 15.9414 37.2514C15.9691 37.2037 15.995 37.1551 16.0191 37.1055C16.0432 37.0559 16.0653 37.0055 16.0855 36.9542C16.1057 36.9031 16.1239 36.8511 16.1402 36.7985C16.1565 36.7458 16.1708 36.6926 16.183 36.6389C16.1953 36.5852 16.2054 36.5311 16.2135 36.4766C16.2217 36.4221 16.2277 36.3674 16.2317 36.3124C16.2358 36.2575 16.2376 36.2024 16.2375 36.1473L16.2417 16.8541C16.2214 16.568 16.4914 16.3314 16.7687 16.3605H18.9751C19.2654 16.3532 19.4933 16.661 19.4541 16.9484L19.4497 36.3636C19.4513 38.0882 18.7428 39.9639 17.1475 40.8102C15.1821 41.8264 12.7522 41.613 10.8098 40.636L5.87456 37.9068C4.71323 37.3261 3.93381 36.0718 3.94097 34.7712V15.173C3.94162 15.0938 3.94487 15.0146 3.95073 14.9357C3.95659 14.8568 3.96506 14.7781 3.97612 14.6997C3.98719 14.6213 4.00086 14.5433 4.01714 14.4658C4.03341 14.3883 4.0523 14.3115 4.07365 14.2352C4.09513 14.159 4.11896 14.0835 4.14539 14.0089C4.17183 13.9343 4.2006 13.8606 4.23198 13.7878C4.26323 13.7152 4.29696 13.6436 4.33302 13.573C4.36909 13.5025 4.4075 13.4334 4.44813 13.3654C4.48875 13.2975 4.53172 13.2309 4.57677 13.1658C4.62196 13.1008 4.66909 13.0373 4.71844 12.9753C4.76779 12.9133 4.81909 12.8532 4.87248 12.7946C4.92573 12.7361 4.98094 12.6794 5.0381 12.6245C5.09513 12.5697 5.15399 12.5169 5.21466 12.4658C5.27521 12.4149 5.33745 12.3661 5.40138 12.3192C5.46519 12.2725 5.53055 12.2278 5.59748 12.1854C5.66427 12.1429 5.73237 12.1028 5.8019 12.0649L23.0438 2.3166ZM28.0432 15.9018C30.5501 15.7566 33.2341 15.8059 35.4898 17.0413C37.236 17.9878 38.2043 19.9738 38.2362 21.9162C38.1868 22.1775 37.9139 22.3227 37.6643 22.3038C36.9385 22.3023 36.2097 22.314 35.4811 22.2994C35.1718 22.311 34.9933 22.0265 34.9541 21.7536C34.7451 20.8245 34.2385 19.9055 33.3647 19.457C32.0234 18.7848 30.4673 18.8182 29.0041 18.8327C27.9358 18.8908 26.7876 18.9822 25.8832 19.6094C25.1864 20.0856 24.9774 21.0611 25.2256 21.8189C25.4579 22.3749 26.1009 22.5534 26.625 22.7189C29.6472 23.5087 32.8479 23.4449 35.8135 24.4712C37.0401 24.8951 38.2406 25.7197 38.6615 27.0045C39.2102 28.7261 38.9707 30.7847 37.747 32.1667C36.7541 33.3049 35.3083 33.9088 33.864 34.2601C31.9436 34.6883 29.952 34.6985 28.0026 34.5068C26.1691 34.2978 24.2618 33.8158 22.8464 32.5674C21.6359 31.5163 21.0466 29.8788 21.1045 28.2994C21.1191 28.0322 21.3847 27.8464 21.6416 27.8682H23.8191C24.1123 27.8479 24.327 28.1005 24.3416 28.3762C24.4766 29.2473 24.8091 30.1909 25.5812 30.699C27.0705 31.6601 28.9388 31.5933 30.6429 31.6209C32.0553 31.5584 33.6404 31.5395 34.7945 30.6046C35.4041 30.0719 35.5826 29.182 35.4187 28.4154C35.2401 27.768 34.5477 27.4675 33.9671 27.2541C30.9841 26.3105 27.7471 26.6531 24.7931 25.5847C23.5941 25.1607 22.4342 24.3594 21.974 23.1269C21.3311 21.3848 21.6257 19.2261 22.98 17.8906C24.2864 16.5623 26.2026 16.0498 28.017 15.8669L28.0432 15.9018Z" fill="url(#paint0_linear_192_123)"/>
<defs>
<linearGradient id="paint0_linear_192_123" x1="45.9558" y1="24.9581" x2="8.47193" y2="24.9581" gradientUnits="userSpaceOnUse">
<stop stop-color="#8F8F8F"/>
<stop offset="1" stop-color="#373737"/>
</linearGradient>
</defs>
</svg>
