<svg width="50" height="50" viewBox="0 0 50 50" fill="none" xmlns="http://www.w3.org/2000/svg">
<path d="M21.6357 25.9644H24.8908L23.1693 23.1949L20.01 28.2023H18.5721L22.415 22.1875C22.4995 22.066 22.6123 21.9669 22.7438 21.899C22.8753 21.831 23.0214 21.7962 23.1693 21.7976C23.4682 21.7976 23.7467 21.9394 23.9084 22.1773L27.7662 28.2023H26.3283L25.6502 27.0832H22.3541L21.6357 25.9644V25.9644ZM36.5713 27.0832V21.8586H35.3514V27.5949C35.3514 27.7519 35.4123 27.9039 35.5287 28.0203C35.6451 28.1367 35.8022 28.2023 35.9744 28.2023H41.5385L42.2576 27.0832H36.5713ZM16.385 26.1469C17.5697 26.1469 18.5318 25.1902 18.5318 24.0055C18.5318 22.8207 17.5701 21.8586 16.385 21.8586H11.0471V28.2027H12.267V22.9773H16.3041C16.8713 22.9773 17.3268 23.4383 17.3268 24.0051C17.3268 24.5719 16.8709 25.0328 16.3041 25.0328L12.8643 25.0277L16.5064 28.2023H18.2791L15.8283 26.1465H16.385V26.1469ZM3.53887 28.2023C1.7877 28.2023 0.366211 26.7848 0.366211 25.0328C0.366211 23.2809 1.7873 21.8582 3.53887 21.8582H7.22598C8.97793 21.8582 10.3982 23.2812 10.3982 25.0328C10.3982 26.7844 8.97793 28.2023 7.22598 28.2023H3.53887ZM7.14395 27.0832C7.41349 27.0836 7.68047 27.0309 7.92961 26.928C8.17876 26.8252 8.40519 26.6742 8.59595 26.4838C8.78671 26.2933 8.93805 26.0672 9.04133 25.8182C9.14461 25.5692 9.1978 25.3023 9.19785 25.0328C9.19795 24.4879 8.98166 23.9652 8.59651 23.5797C8.21136 23.1942 7.68889 22.9774 7.14395 22.9769H3.62012C3.07531 22.9776 2.55304 23.1945 2.16806 23.5799C1.78308 23.9654 1.56689 24.488 1.56699 25.0328C1.56704 25.3023 1.6202 25.5691 1.72343 25.818C1.82667 26.0669 1.97794 26.2931 2.16862 26.4835C2.35929 26.6739 2.58563 26.8249 2.83469 26.9278C3.08375 27.0307 3.35064 27.0835 3.62012 27.0832H7.14395V27.0832ZM30.3135 28.2023C28.5619 28.2023 27.1393 26.7848 27.1393 25.0328C27.1393 23.2809 28.5619 21.8582 30.3135 21.8582H34.6932L33.9787 22.9769H30.3947C29.8495 22.9773 29.3268 23.1939 28.9412 23.5794C28.5557 23.9649 28.3389 24.4876 28.3385 25.0328C28.3385 26.1668 29.2604 27.0832 30.3947 27.0832H34.7943L34.0756 28.2023H30.3135V28.2023ZM45.2342 27.0832C44.7872 27.0834 44.3525 26.9376 43.996 26.6679C43.6396 26.3983 43.381 26.0196 43.2596 25.5894H48.4744L49.1932 24.4707H43.2596C43.3819 24.0411 43.6407 23.663 43.997 23.3935C44.3532 23.124 44.7875 22.9778 45.2342 22.9769H48.8135L49.5377 21.8582H45.1529C43.4014 21.8582 41.9787 23.2812 41.9787 25.0328C41.9787 26.7844 43.4014 28.2023 45.1529 28.2023H48.915L49.6342 27.0832H45.2342" fill="url(#paint0_linear_193_167)"/>
<defs>
<linearGradient id="paint0_linear_193_167" x1="49.6342" y1="25.0002" x2="5.67942" y2="25.0002" gradientUnits="userSpaceOnUse">
<stop stop-color="#8F8F8F"/>
<stop offset="1" stop-color="#373737"/>
</linearGradient>
</defs>
</svg>
