<svg width="584" height="250" viewBox="0 0 584 202" fill="none" xmlns="http://www.w3.org/2000/svg">
<rect x="4.56409" y="136.998" width="24.3861" height="23.7078" rx="5" transform="rotate(-26.8944 4.56409 136.998)" fill="#F3CED1"/>
<rect x="194.428" y="13.4456" width="14.7552" height="14.3448" rx="2" transform="rotate(-65.6774 194.428 13.4456)" fill="#F4DBDD"/>
<rect x="461.88" y="38.5427" width="19.9448" height="19.3899" rx="5" transform="rotate(-67.7598 461.88 38.5427)" fill="#DFDDF6"/>
<rect x="568.678" y="56.4969" width="10.9961" height="10.6902" rx="1" transform="rotate(-46.6692 568.678 56.4969)" fill="#F4DBDD"/>
<rect x="530.371" y="156.109" width="8.82332" height="8.57788" rx="1" transform="rotate(-31.2981 530.371 156.109)" fill="#D8E6F8"/>
<rect x="3.09668" y="31.9482" width="10.6765" height="10.3795" rx="3" transform="rotate(17.358 3.09668 31.9482)" fill="#DFDDF6"/>
<rect x="183.309" y="140.572" width="10.6765" height="10.3795" rx="3" transform="rotate(36.8505 183.309 140.572)" fill="#DFDDF6"/>
<rect x="370.213" y="188.038" width="10.6765" height="10.3795" rx="3" transform="rotate(18.3321 370.213 188.038)" fill="#DFDDF6"/>
</svg>
