<svg width="50" height="50" viewBox="0 0 50 50" fill="none" xmlns="http://www.w3.org/2000/svg">
<path d="M11.25 35.4484V14.292C11.25 14.1406 11.3258 14.0649 11.4775 14.0649C13.1241 14.0216 15.2148 14 17.7497 14C20.7395 14 22.9277 14.6706 24.3143 16.0118C25.7226 17.353 26.4267 19.0079 26.4267 20.9764C26.4267 23.4208 25.5601 25.238 23.8268 26.4277C22.0936 27.6175 19.9162 28.2124 17.2947 28.2124H15.3773V35.4159C15.3773 35.589 15.2906 35.6755 15.1173 35.6755H11.51C11.3367 35.6755 11.25 35.5998 11.25 35.4484ZM15.3773 17.115V25.0973C15.6806 25.1406 16.3847 25.1622 17.4897 25.1622C18.9413 25.1622 20.1112 24.8486 20.9995 24.2212C21.9094 23.5723 22.3644 22.5231 22.3644 21.0737C22.3644 19.7974 21.9636 18.8132 21.162 18.1209C20.382 17.4287 19.2446 17.0826 17.7497 17.0826C17.3813 17.0826 17.013 17.0934 16.6447 17.115C16.2981 17.115 16.0056 17.115 15.7673 17.115C15.5506 17.115 15.4206 17.115 15.3773 17.115Z" fill="url(#paint0_linear_193_1668)"/>
<path d="M37.7651 23.6047C36.5518 22.8476 35.2844 22.469 33.9628 22.469C33.2045 22.469 32.6412 22.6096 32.2729 22.8909C31.9262 23.1721 31.7529 23.5074 31.7529 23.8968C31.7529 24.2861 31.9045 24.6323 32.2079 24.9351C32.5112 25.2163 33.1503 25.5516 34.1253 25.941C35.9235 26.6332 37.1801 27.3687 37.8951 28.1475C38.6317 28.9046 39 29.8889 39 31.1003C39 32.5713 38.4367 33.7611 37.3101 34.6696C36.2051 35.5565 34.6994 36 32.7928 36C30.8863 36 29.3263 35.6539 28.1131 34.9617C27.9831 34.9184 27.9181 34.8102 27.9181 34.6372V31.6195C27.9181 31.5329 27.9397 31.4789 27.9831 31.4572C28.0481 31.414 28.1022 31.414 28.1456 31.4572C29.5538 32.4956 31.0596 33.0147 32.6628 33.0147C33.4211 33.0147 33.9953 32.885 34.3852 32.6254C34.7969 32.3441 35.0027 31.9872 35.0027 31.5546C35.0027 31.1003 34.8402 30.7217 34.5152 30.4189C34.1903 30.0944 33.5511 29.7483 32.5978 29.3805C30.8646 28.7099 29.6513 27.9961 28.958 27.2389C28.2864 26.4602 27.9506 25.4867 27.9506 24.3186C27.9506 22.9774 28.4597 21.8525 29.478 20.944C30.4963 20.0354 31.9479 19.5811 33.8328 19.5811C35.5877 19.5811 36.9418 19.8191 37.8951 20.295C38.0034 20.3599 38.0576 20.5005 38.0576 20.7168V23.41C38.0576 23.6696 37.9601 23.7345 37.7651 23.6047Z" fill="url(#paint1_linear_193_1668)"/>
<defs>
<linearGradient id="paint0_linear_193_1668" x1="39" y1="25" x2="14.2426" y2="25" gradientUnits="userSpaceOnUse">
<stop stop-color="#8F8F8F"/>
<stop offset="1" stop-color="#373737"/>
</linearGradient>
<linearGradient id="paint1_linear_193_1668" x1="39" y1="25" x2="14.2426" y2="25" gradientUnits="userSpaceOnUse">
<stop stop-color="#8F8F8F"/>
<stop offset="1" stop-color="#373737"/>
</linearGradient>
</defs>
</svg>
