<svg width="50" height="50" viewBox="0 0 50 50" fill="none" xmlns="http://www.w3.org/2000/svg">
<g clip-path="url(#clip0_193_2391)">
<path d="M18.0742 26.58C18.0839 26.5999 18.1003 26.6156 18.1203 26.6247C18.1403 26.6339 18.1629 26.6358 18.1842 26.63L22.1842 25.7675L20.5017 24.0625L18.1042 26.46C18.0853 26.4728 18.0718 26.492 18.0662 26.5142C18.0607 26.5364 18.0636 26.5599 18.0742 26.58Z" fill="url(#paint0_linear_193_2391)"/>
<path d="M36.8044 9.40529C36.2468 9.40584 35.6968 9.53146 35.1942 9.77279C34.6916 10.0142 34.2497 10.3651 33.9009 10.7999C33.552 11.2347 33.3052 11.7422 33.1785 12.285C33.0515 12.8278 33.048 13.3922 33.1683 13.9365C33.2887 14.4808 33.5294 14.9913 33.8727 15.4302C34.2163 15.8692 34.6541 16.2254 35.1535 16.4729C35.6532 16.7204 36.2018 16.8526 36.7593 16.86C37.3166 16.8673 37.8683 16.7495 38.3744 16.5153L35.8392 13.9803C35.8102 13.9513 35.7872 13.9168 35.7715 13.8788C35.7555 13.8408 35.7474 13.8001 35.7474 13.759C35.7474 13.7179 35.7555 13.6772 35.7715 13.6392C35.7872 13.6013 35.8102 13.5668 35.8392 13.5378L39.1518 10.2278C38.4866 9.69291 37.6579 9.40256 36.8044 9.40529Z" fill="url(#paint1_linear_193_2391)"/>
<path d="M39.6069 10.6577L36.502 13.7502L38.9368 16.1852C39.1162 16.0593 39.2836 15.9169 39.4368 15.7602C40.1043 15.0884 40.4927 14.1888 40.5243 13.2424C40.5557 12.2959 40.2281 11.3725 39.6069 10.6577Z" fill="url(#paint2_linear_193_2391)"/>
<path d="M33.3939 16.3653H33.339C33.2744 16.3646 33.2099 16.3706 33.1465 16.3828H33.1241C33.0544 16.3978 32.9861 16.4178 32.9189 16.4428L32.8666 16.4678C32.8163 16.4887 32.7678 16.5137 32.7215 16.5428L32.6666 16.5778C32.6061 16.6195 32.5491 16.6664 32.4965 16.7178L23.2891 25.9276L24.4291 27.0676L34.1791 18.5103C34.2343 18.4618 34.2843 18.4082 34.3291 18.3503L34.3715 18.2953C34.405 18.2464 34.4349 18.1954 34.4616 18.1428C34.4765 18.1128 34.489 18.0828 34.5015 18.0528C34.5183 18.0128 34.5326 17.9718 34.5439 17.9303C34.5439 17.9003 34.5616 17.8703 34.5689 17.8403C34.5814 17.7782 34.5898 17.7157 34.5939 17.6528V17.5703C34.5939 17.5253 34.5939 17.4803 34.5939 17.4353C34.5939 17.3903 34.5939 17.3753 34.5814 17.3453C34.5352 17.1093 34.4201 16.8923 34.2506 16.7218C34.0811 16.5515 33.8648 16.4351 33.6291 16.3878H33.5814C33.5198 16.3757 33.457 16.3682 33.3939 16.3653Z" fill="url(#paint3_linear_193_2391)"/>
<path d="M20.9316 23.6202L22.8216 25.5001L32.0541 16.2676C32.3547 15.9739 32.7463 15.7914 33.164 15.7501C31.5318 14.5001 29.7515 14.8276 20.9316 23.6202Z" fill="url(#paint4_linear_193_2391)"/>
<path d="M34.6994 18.8701L34.5869 18.9801L24.8369 27.5351L26.4944 29.1901C30.6043 25.3026 34.252 21.6001 34.6994 18.8701Z" fill="url(#paint5_linear_193_2391)"/>
<path d="M10.3795 38.9127C10.3845 38.9304 10.3949 38.9461 10.4092 38.9578C10.4235 38.9694 10.4411 38.9764 10.4595 38.9775L14.7094 39.27L12.327 36.8877L10.3995 38.8127C10.387 38.8258 10.3784 38.8421 10.3749 38.8595C10.3713 38.8775 10.3729 38.8958 10.3795 38.9127Z" fill="url(#paint6_linear_193_2391)"/>
<path d="M12.7715 36.4448L15.284 38.9573C15.3138 38.989 15.3537 39.0097 15.3969 39.0158C15.4402 39.0216 15.4842 39.0123 15.5215 38.9896C15.5604 38.9704 15.5915 38.9381 15.6092 38.8986C15.6271 38.8588 15.6305 38.814 15.619 38.7722L15.1965 36.9672C15.1691 36.8501 15.1815 36.7274 15.2318 36.6184C15.2821 36.5094 15.3673 36.4201 15.474 36.3646C19.879 34.1573 23.4315 31.8847 26.039 29.6146L24.289 27.8647L20.539 28.6722L12.7715 36.4448Z" fill="url(#paint7_linear_193_2391)"/>
<path d="M23.7521 27.335L22.8121 26.395L21.5121 27.6925C21.5027 27.7038 21.4976 27.718 21.4976 27.7325C21.4976 27.7472 21.5027 27.7613 21.5121 27.7725C21.518 27.7858 21.5288 27.7966 21.5421 27.8025C21.5555 27.8085 21.5705 27.8094 21.5846 27.805L23.7521 27.335Z" fill="url(#paint8_linear_193_2391)"/>
</g>
<defs>
<linearGradient id="paint0_linear_193_2391" x1="22.1842" y1="25.3479" x2="18.5079" y2="25.3479" gradientUnits="userSpaceOnUse">
<stop stop-color="#8F8F8F"/>
<stop offset="1" stop-color="#373737"/>
</linearGradient>
<linearGradient id="paint1_linear_193_2391" x1="39.1518" y1="13.1328" x2="33.7353" y2="13.1328" gradientUnits="userSpaceOnUse">
<stop stop-color="#8F8F8F"/>
<stop offset="1" stop-color="#373737"/>
</linearGradient>
<linearGradient id="paint2_linear_193_2391" x1="40.5264" y1="13.4215" x2="36.936" y2="13.4215" gradientUnits="userSpaceOnUse">
<stop stop-color="#8F8F8F"/>
<stop offset="1" stop-color="#373737"/>
</linearGradient>
<linearGradient id="paint3_linear_193_2391" x1="34.5939" y1="21.7164" x2="24.5082" y2="21.7164" gradientUnits="userSpaceOnUse">
<stop stop-color="#8F8F8F"/>
<stop offset="1" stop-color="#373737"/>
</linearGradient>
<linearGradient id="paint4_linear_193_2391" x1="33.164" y1="20.358" x2="22.2508" y2="20.358" gradientUnits="userSpaceOnUse">
<stop stop-color="#8F8F8F"/>
<stop offset="1" stop-color="#373737"/>
</linearGradient>
<linearGradient id="paint5_linear_193_2391" x1="34.6994" y1="24.0301" x2="25.9005" y2="24.0301" gradientUnits="userSpaceOnUse">
<stop stop-color="#8F8F8F"/>
<stop offset="1" stop-color="#373737"/>
</linearGradient>
<linearGradient id="paint6_linear_193_2391" x1="14.7094" y1="38.0788" x2="10.8407" y2="38.0788" gradientUnits="userSpaceOnUse">
<stop stop-color="#8F8F8F"/>
<stop offset="1" stop-color="#373737"/>
</linearGradient>
<linearGradient id="paint7_linear_193_2391" x1="26.039" y1="33.4411" x2="14.2023" y2="33.4411" gradientUnits="userSpaceOnUse">
<stop stop-color="#8F8F8F"/>
<stop offset="1" stop-color="#373737"/>
</linearGradient>
<linearGradient id="paint8_linear_193_2391" x1="23.7521" y1="27.1014" x2="21.7407" y2="27.1014" gradientUnits="userSpaceOnUse">
<stop stop-color="#8F8F8F"/>
<stop offset="1" stop-color="#373737"/>
</linearGradient>
<clipPath id="clip0_193_2391">
<rect width="50" height="50" fill="white"/>
</clipPath>
</defs>
</svg>
