<svg width="50" height="50" viewBox="0 0 50 50" fill="none" xmlns="http://www.w3.org/2000/svg">
<path d="M30.0859 11.7891C30.5195 13.627 32.1699 14.9961 34.1406 14.9961C36.4414 14.9961 38.3066 13.1309 38.3066 10.8301C38.3066 8.5293 36.4414 6.66406 34.1406 6.66406C32.1289 6.66406 30.4512 8.08984 30.0605 9.98633C26.6914 10.3477 24.0605 13.2051 24.0605 16.668C24.0605 16.6758 24.0605 16.6816 24.0605 16.6895C20.3965 16.8438 17.0508 17.8867 14.3945 19.5332C13.4082 18.7695 12.1699 18.3145 10.8262 18.3145C7.60156 18.3145 4.98828 20.9277 4.98828 24.1523C4.98828 26.4922 6.36328 28.5078 8.34961 29.4395C8.54297 36.2168 15.9277 41.668 25.0117 41.668C34.0957 41.668 41.4902 36.2109 41.6738 29.4277C43.6445 28.4902 45.0078 26.4805 45.0078 24.1543C45.0078 20.9297 42.3945 18.3164 39.1699 18.3164C37.832 18.3164 36.5996 18.7676 35.6152 19.5254C32.9355 17.8672 29.5527 16.8242 25.8516 16.6855C25.8516 16.6797 25.8516 16.6758 25.8516 16.6699C25.8516 14.1895 27.6953 12.1309 30.0859 11.793V11.7891ZM14.1602 27.8574C14.2578 25.7402 15.6641 24.1152 17.2988 24.1152C18.9336 24.1152 20.1836 25.832 20.0859 27.9492C19.9883 30.0664 18.7676 30.8359 17.1309 30.8359C15.4941 30.8359 14.0625 29.9746 14.1602 27.8574ZM32.7266 24.1152C34.3633 24.1152 35.7695 25.7402 35.8652 27.8574C35.9629 29.9746 34.5293 30.8359 32.8945 30.8359C31.2598 30.8359 30.0371 30.0684 29.9395 27.9492C29.8418 25.832 31.0898 24.1152 32.7266 24.1152ZM30.7812 32.7559C31.0879 32.7871 31.2832 33.1055 31.1641 33.3906C30.1582 35.7949 27.7832 37.4844 25.0117 37.4844C22.2402 37.4844 19.8672 35.7949 18.8594 33.3906C18.7402 33.1055 18.9355 32.7871 19.2422 32.7559C21.0391 32.5742 22.9824 32.4746 25.0117 32.4746C27.041 32.4746 28.9824 32.5742 30.7812 32.7559Z" fill="url(#paint0_linear_193_1871)"/>
<defs>
<linearGradient id="paint0_linear_193_1871" x1="45.0078" y1="24.166" x2="9.30411" y2="24.166" gradientUnits="userSpaceOnUse">
<stop stop-color="#8F8F8F"/>
<stop offset="1" stop-color="#373737"/>
</linearGradient>
</defs>
</svg>
