<svg width="50" height="50" viewBox="0 0 50 50" fill="none" xmlns="http://www.w3.org/2000/svg">
<path d="M13.2696 8.60548C8.10159 8.60548 3.91409 12.7891 3.91409 17.9492C3.91409 19.2695 4.18753 20.5274 4.68362 21.6641C3.45702 22.3829 2.44036 23.4108 1.73507 24.6453C1.02977 25.8797 0.660498 27.2775 0.664088 28.6992C0.664088 33.1836 4.26174 36.8203 8.70315 36.8203C9.26956 36.8203 9.82424 36.7617 10.3555 36.6484C11.5742 39.957 14.75 42.3164 18.4805 42.3164C22.0625 42.3164 25.1328 40.1406 26.4532 37.0391C27.4867 37.5452 28.6227 37.8071 29.7735 37.8047C32.6172 37.8047 35.0977 36.2383 36.3985 33.918C37.0625 34.0508 37.7461 34.1211 38.4453 34.1211C44.1797 34.1211 48.8282 29.4297 48.8282 23.6445C48.8282 17.8633 44.1797 13.1719 38.4453 13.1719C36.9492 13.1719 35.5313 13.4922 34.2461 14.0664C32.7696 11.4336 29.9961 9.66016 26.8164 9.66016C24.4219 9.66016 22.2617 10.6641 20.7071 12.2813C19 10.0469 16.3008 8.60157 13.2696 8.60548V8.60548ZM28.711 20.375C28.8555 20.375 28.9844 20.3828 29.0899 20.4024C29.1953 20.4219 29.2774 20.4414 29.3672 20.4688C29.3867 20.4766 29.4414 20.5039 29.418 20.5703L29.2032 21.1563C29.1875 21.1992 29.1719 21.2266 29.0821 21.1992C29.0586 21.1914 29.0235 21.1836 28.9375 21.1641C28.8618 21.1475 28.7845 21.1397 28.7071 21.1406C28.5938 21.1406 28.4961 21.1563 28.4063 21.1836C28.3203 21.2109 28.2422 21.2578 28.1719 21.3281C28.1016 21.3984 28.0196 21.5 27.9766 21.625C27.875 21.918 27.8321 22.2344 27.8281 22.2539H28.7227C28.7969 22.2539 28.8203 22.2891 28.8125 22.3438L28.7071 22.9258C28.6914 23.0117 28.6133 23.0078 28.6133 23.0078H27.6953L27.0664 26.5664C27 26.9336 26.918 27.25 26.8203 27.5039C26.7227 27.7617 26.6211 27.9492 26.4571 28.1289C26.3047 28.293 26.1367 28.418 25.9414 28.4883C25.75 28.5586 25.5157 28.5938 25.2578 28.5938C25.1328 28.5938 25.0039 28.5899 24.8477 28.5547C24.762 28.5337 24.6773 28.5089 24.5938 28.4805C24.5586 28.4649 24.5313 28.4219 24.5508 28.3672C24.5703 28.3125 24.7344 27.8594 24.7578 27.8008C24.7891 27.7305 24.8594 27.7578 24.8594 27.7578C24.9102 27.7774 24.9453 27.793 25.0117 27.8047C25.0782 27.8164 25.168 27.8281 25.2344 27.8281C25.3555 27.8281 25.4649 27.8125 25.5625 27.7813C25.6797 27.7422 25.7461 27.6758 25.8164 27.5859C25.8906 27.4883 25.9492 27.3594 26.0117 27.1875C26.0742 27.0117 26.1328 26.7813 26.1797 26.5L26.8047 23.0078H26.1875C26.1133 23.0078 26.0899 22.9727 26.0977 22.918L26.2032 22.3359C26.2188 22.25 26.2969 22.2539 26.2969 22.2539H26.9297L26.9649 22.0664C27.0625 21.5078 27.25 21.082 27.5274 20.8008C27.8086 20.5195 28.2071 20.375 28.711 20.375V20.375ZM16.0742 20.4609H16.8164C16.8633 20.4609 16.8985 20.5 16.8985 20.5469V26.5039C16.8985 26.5508 16.8633 26.5899 16.8164 26.5899H16.0742C16.0274 26.5899 15.9961 26.5508 15.9961 26.5039V20.5469C15.9961 20.5 16.0274 20.4609 16.0742 20.4609V20.4609ZM38.5156 22.1602C38.7461 22.1602 38.9532 22.1758 39.1328 22.2031C39.3242 22.2305 39.5781 22.2969 39.6836 22.3399C39.7031 22.3477 39.7578 22.375 39.7344 22.4375C39.6563 22.6563 39.6016 22.8008 39.5313 23C39.5 23.0859 39.4336 23.0586 39.4336 23.0586C39.1641 22.9727 38.9024 22.9336 38.5625 22.9336C38.1563 22.9336 37.8477 23.0703 37.6485 23.3359C37.4453 23.6016 37.3321 23.9531 37.3321 24.4219C37.3321 24.9375 37.461 25.3164 37.6875 25.5508C37.918 25.7852 38.2344 25.9024 38.6328 25.9024C38.7969 25.9024 38.9492 25.8906 39.086 25.8711C39.2227 25.8516 39.3477 25.8086 39.4688 25.7617C39.4688 25.7617 39.5469 25.7305 39.5742 25.8125L39.7813 26.3672C39.8047 26.4375 39.7461 26.4649 39.7461 26.4649C39.4336 26.5859 39 26.6719 38.5782 26.6719C37.8633 26.6719 37.3125 26.4649 36.9492 26.0586C36.5821 25.6563 36.3985 25.1016 36.3985 24.418C36.3985 24.1016 36.4414 23.8047 36.5313 23.5313C36.6211 23.2578 36.7578 23.0195 36.9336 22.8164C37.1094 22.6133 37.336 22.4531 37.5977 22.3359C37.8594 22.2188 38.168 22.1602 38.5156 22.1602V22.1602ZM9.28518 22.1641H9.38284C9.91409 22.1641 10.4258 22.3164 10.7969 22.543C10.8282 22.5625 10.8633 22.6016 10.8438 22.6524C10.8282 22.6992 10.6641 23.1406 10.6446 23.1914C10.6094 23.2852 10.5157 23.2227 10.5157 23.2227C10.1914 23.043 9.68753 22.9024 9.26174 22.9024C8.87893 22.9024 8.63284 23.1055 8.63284 23.3828V23.3984C8.63284 23.7188 9.05862 23.8555 9.5469 24.0156L9.63284 24.043C10.2852 24.2461 10.9766 24.5313 10.9766 25.3125V25.3281C10.9766 26.1719 10.3633 26.6992 9.37503 26.6992C8.88674 26.6992 8.42581 26.625 7.93362 26.3633C7.84378 26.3086 7.75003 26.2617 7.66018 26.1953C7.65237 26.1797 7.6094 26.1641 7.64065 26.0859L7.82815 25.5508C7.8594 25.4609 7.92971 25.4883 7.95706 25.5078C8.01174 25.5391 8.05081 25.5703 8.12112 25.6094C8.69534 25.9727 9.22659 25.9766 9.39456 25.9766C9.82424 25.9766 10.0899 25.7461 10.0899 25.4414V25.4258C10.0899 25.0938 9.67971 24.9649 9.20315 24.8203L9.09768 24.7891C8.44534 24.6016 7.75003 24.332 7.75003 23.5078V23.4922C7.75003 22.7109 8.38284 22.1641 9.28518 22.1641V22.1641ZM13.3594 22.1641C13.918 22.1641 14.3477 22.293 14.6407 22.5508C14.9375 22.8047 15.086 23.2227 15.086 23.7813V26.3359C15.086 26.3359 15.0938 26.4102 15.0235 26.4258C15.0235 26.4258 14.9219 26.4531 14.8282 26.4766C14.7344 26.5 14.3985 26.5664 14.125 26.6133C13.8477 26.6602 13.5625 26.6836 13.2774 26.6836C13.0293 26.6867 12.7816 26.6618 12.5391 26.6094C12.3164 26.5586 12.125 26.4766 11.9688 26.3633C11.8125 26.25 11.6914 26.1016 11.6055 25.9258C11.5196 25.75 11.4766 25.5352 11.4766 25.2891C11.4766 25.0469 11.5274 24.8281 11.625 24.6445C11.7266 24.4609 11.8633 24.3047 12.0313 24.1836C12.1992 24.0625 12.3946 23.9727 12.6133 23.9141C12.8321 23.8555 13.0625 23.8242 13.3008 23.8242C13.4766 23.8242 13.625 23.8281 13.7383 23.8359C13.7383 23.8359 13.9571 23.8555 14.2032 23.8867V23.7695C14.2032 23.3984 14.125 23.2227 13.9727 23.1055C13.8164 22.9844 13.5821 22.9258 13.2813 22.9258C13.2813 22.9258 12.6055 22.918 12.0664 23.2109C12.0391 23.2266 12.0196 23.2344 12.0196 23.2344C12.0196 23.2344 11.9532 23.2578 11.9297 23.1875L11.7305 22.6563C11.6992 22.582 11.7539 22.5469 11.7539 22.5469C12.0039 22.3516 12.6133 22.2344 12.6133 22.2344C12.8125 22.1914 13.1485 22.1641 13.3594 22.1641V22.1641ZM23.75 22.1641H23.8477C24.3789 22.1641 24.8907 22.3164 25.2617 22.543C25.293 22.5625 25.3282 22.6016 25.3086 22.6524C25.293 22.6992 25.1289 23.1406 25.1094 23.1914C25.0742 23.2852 24.9805 23.2227 24.9805 23.2227C24.6563 23.043 24.1524 22.9024 23.7266 22.9024C23.3438 22.9024 23.0977 23.1055 23.0977 23.3828V23.3984C23.0977 23.7188 23.5235 23.8555 24.0117 24.0156L24.0977 24.043C24.75 24.2461 25.4414 24.5313 25.4414 25.3125V25.3281C25.4414 26.1719 24.8282 26.6992 23.8399 26.6992C23.3516 26.6992 22.8907 26.625 22.3985 26.3633C22.3086 26.3086 22.2149 26.2617 22.125 26.1953C22.1172 26.1797 22.0742 26.1641 22.1055 26.0859L22.293 25.5508C22.3203 25.4649 22.4024 25.4961 22.4219 25.5078C22.4766 25.5391 22.5157 25.5703 22.586 25.6094C23.1602 25.9727 23.6914 25.9766 23.8594 25.9766C24.2891 25.9766 24.5547 25.7461 24.5547 25.4414V25.4258C24.5547 25.0938 24.1446 24.9649 23.668 24.8203L23.5625 24.7891C22.9102 24.6016 22.2149 24.332 22.2149 23.5078V23.4922C22.2149 22.7109 22.8477 22.1641 23.75 22.1641V22.1641ZM19.75 22.1719C20.0508 22.1719 20.3242 22.2344 20.5508 22.332C20.7266 22.4063 20.9024 22.5391 21.0821 22.7344C21.1953 22.8555 21.3672 23.1211 21.4375 23.3867C21.6172 24.0156 21.5235 24.5586 21.5235 24.5977C21.5157 24.6719 21.4414 24.6719 21.4414 24.6719L18.6485 24.668C18.6641 25.0938 18.7657 25.3945 18.9727 25.5977C19.1719 25.7969 19.4922 25.9258 19.9258 25.9258C20.586 25.9258 20.8711 25.793 21.0703 25.7188C21.0703 25.7188 21.1485 25.6914 21.1758 25.7656L21.3594 26.2774C21.3946 26.3633 21.3672 26.3945 21.336 26.4102C21.1602 26.5039 20.7344 26.6836 19.9297 26.6875C19.5391 26.6875 19.1992 26.6328 18.918 26.5234C18.6328 26.4141 18.3985 26.2578 18.2149 26.0586C18.0284 25.8547 17.8896 25.6119 17.8086 25.3477C17.7235 25.0585 17.6813 24.7584 17.6836 24.457C17.6836 24.1406 17.7227 23.8399 17.8047 23.5664C17.8867 23.293 18.0157 23.0469 18.1836 22.8438C18.3555 22.6367 18.5703 22.4727 18.8282 22.3516C19.086 22.2305 19.4024 22.1719 19.75 22.1719V22.1719ZM30.9102 22.1719C31.2422 22.1719 31.543 22.2305 31.793 22.3477C32.0469 22.4649 32.2578 22.625 32.4258 22.8281C32.5938 23.0274 32.7188 23.2695 32.8008 23.543C32.8828 23.8125 32.9219 24.1133 32.9219 24.4297C32.9219 24.7461 32.8828 25.043 32.8008 25.3164C32.7188 25.5899 32.5938 25.832 32.4258 26.0313C32.2578 26.2305 32.043 26.3945 31.793 26.5078C31.543 26.6211 31.2461 26.6797 30.9102 26.6797C30.5781 26.6797 30.2813 26.6211 30.0274 26.5078C29.7827 26.3995 29.5662 26.2365 29.3946 26.0313C29.2266 25.832 29.1016 25.5899 29.0196 25.3164C28.9363 25.0283 28.8955 24.7296 28.8985 24.4297C28.8985 24.1133 28.9375 23.8164 29.0196 23.543C29.1016 23.2695 29.2266 23.0313 29.3946 22.8281C29.5625 22.6289 29.7735 22.4649 30.0274 22.3477C30.2774 22.2305 30.5742 22.1719 30.9102 22.1719ZM42.1016 22.1719C42.4024 22.1719 42.6758 22.2344 42.9024 22.332C43.0782 22.4063 43.2539 22.5391 43.4336 22.7344C43.5508 22.8555 43.7227 23.1211 43.793 23.3867C43.9727 24.0156 43.8789 24.5586 43.875 24.5977C43.8672 24.6719 43.793 24.6719 43.793 24.6719L41 24.668C41.0156 25.0938 41.1172 25.3945 41.3242 25.5977C41.5235 25.7969 41.8438 25.9258 42.2774 25.9258C42.9375 25.9258 43.2227 25.793 43.4219 25.7188C43.4219 25.7188 43.5 25.6914 43.5274 25.7656L43.711 26.2774C43.7461 26.3633 43.7188 26.3945 43.6875 26.4102C43.5117 26.5039 43.086 26.6836 42.2813 26.6875C41.8906 26.6875 41.5508 26.6328 41.2696 26.5234C40.9844 26.4141 40.75 26.2578 40.5664 26.0586C40.3828 25.8594 40.2461 25.6211 40.1602 25.3477C40.075 25.0585 40.0329 24.7584 40.0352 24.457C40.0352 24.1406 40.0742 23.8399 40.1563 23.5664C40.2383 23.293 40.3672 23.0469 40.5352 22.8438C40.7071 22.6367 40.9219 22.4727 41.1797 22.3516C41.4375 22.2305 41.7539 22.1719 42.1016 22.1719V22.1719ZM35.5059 22.2137C35.5762 22.2098 35.6543 22.2098 35.7422 22.2145C35.9258 22.2262 36.1641 22.2774 36.211 22.2969C36.2305 22.3047 36.2735 22.3359 36.2539 22.3984C36.2266 22.4727 36.0899 22.8555 36.0469 22.9805C36.0274 23.0274 36 23.0625 35.9453 23.0547C35.9453 23.0547 35.7813 23.0156 35.6367 23.0156C35.5352 23.0156 35.3906 23.0313 35.2617 23.0703C35.1367 23.1094 35.0196 23.1797 34.918 23.2774C34.8164 23.375 34.7305 23.5156 34.6719 23.6875C34.6094 23.8633 34.5781 24.1445 34.5781 24.4219V26.5039C34.5781 26.5508 34.5391 26.5899 34.4922 26.5899H33.7578C33.711 26.5899 33.6719 26.5508 33.6719 26.5039V22.3399C33.6719 22.293 33.7071 22.2539 33.7539 22.2539H34.4688C34.5156 22.2539 34.5508 22.293 34.5508 22.3399V22.6797C34.6602 22.5352 34.8516 22.4102 35.0235 22.332C35.1524 22.2734 35.2946 22.2258 35.5059 22.2137ZM19.6836 22.9027C19.3164 22.9027 19.0582 23.0469 18.8864 23.3086C18.7731 23.4805 18.6989 23.7031 18.6598 23.9688H20.6481C20.6285 23.7109 20.5778 23.4805 20.4645 23.3086C20.2926 23.0469 20.0504 22.9024 19.6832 22.9024L19.6836 22.9027ZM42.043 22.9027C41.6758 22.9027 41.4176 23.0469 41.2457 23.3086C41.1324 23.4805 41.0582 23.7031 41.0192 23.9688H43.0074C42.9879 23.7109 42.941 23.4805 42.8239 23.3086C42.652 23.0469 42.4098 22.9024 42.0426 22.9024L42.043 22.9027ZM30.9102 22.9254C30.543 22.9254 30.2813 23.0504 30.1094 23.3121C29.9336 23.5777 29.8477 23.9527 29.8477 24.4293C29.8477 24.9059 29.9375 25.2852 30.1094 25.5508C30.2813 25.8125 30.543 25.9414 30.9102 25.9414C31.2735 25.9414 31.5387 25.8125 31.7106 25.5508C31.8864 25.2852 31.9762 24.9063 31.9762 24.4297C31.9762 23.9492 31.8864 23.5742 31.7145 23.3125C31.5387 23.0508 31.277 22.9258 30.9098 22.9258L30.9102 22.9254ZM13.4414 24.527C12.8711 24.5191 12.6285 24.7309 12.6324 24.7309C12.4645 24.8481 12.3824 25.0231 12.3824 25.2691C12.3824 25.4254 12.4098 25.5465 12.4645 25.6324C12.4996 25.6871 12.5153 25.7106 12.6246 25.7965C12.6246 25.7965 12.8746 25.9965 13.4449 25.9652C13.8434 25.9379 14.1989 25.8637 14.1989 25.8637V24.5941C14.1989 24.5941 13.8395 24.5309 13.441 24.527H13.4414Z" fill="url(#paint0_linear_193_164)"/>
<defs>
<linearGradient id="paint0_linear_193_164" x1="48.8282" y1="25.4609" x2="5.85823" y2="25.4609" gradientUnits="userSpaceOnUse">
<stop stop-color="#8F8F8F"/>
<stop offset="1" stop-color="#373737"/>
</linearGradient>
</defs>
</svg>
