<svg width="50" height="50" viewBox="0 0 50 50" fill="none" xmlns="http://www.w3.org/2000/svg">
<mask id="mask0_193_1898" style="mask-type:alpha" maskUnits="userSpaceOnUse" x="0" y="0" width="50" height="50">
<path d="M25 3.125C12.9346 3.125 3.125 12.9346 3.125 25C3.125 37.0654 12.9346 46.875 25 46.875C37.0654 46.875 46.875 37.0654 46.875 25C46.875 12.9346 37.0654 3.125 25 3.125Z" fill="url(#paint0_linear_193_1898)"/>
</mask>
<g mask="url(#mask0_193_1898)">
<path d="M31.9936 31.5002L16.2641 29.1981L16.8092 25.7099L32.1908 28.7048L31.9936 31.5002Z" fill="url(#paint1_linear_193_1898)"/>
<path d="M32.272 27.7888L18.352 21.2115L19.628 18.3927L33.548 24.9699L32.272 27.7888Z" fill="url(#paint2_linear_193_1898)"/>
<path d="M34.128 24.2652L22.296 14.2819L24.268 11.9329L36.1 21.9162L34.128 24.2652Z" fill="url(#paint3_linear_193_1898)"/>
<path d="M27.4 8.87918L29.836 7L39 19.4497L36.564 21.329L27.4 8.87918Z" fill="url(#paint4_linear_193_1898)"/>
<path d="M32.04 36.1277H15.8001V32.6042H32.04V36.1277Z" fill="url(#paint5_linear_193_1898)"/>
<path d="M34.36 29.0804V38.4765H13.48V29.0804H10V42H37.8399V29.0804H34.36Z" fill="url(#paint6_linear_193_1898)"/>
</g>
<defs>
<linearGradient id="paint0_linear_193_1898" x1="46.875" y1="25" x2="7.84314" y2="25" gradientUnits="userSpaceOnUse">
<stop stop-color="#8F8F8F"/>
<stop offset="1" stop-color="#373737"/>
</linearGradient>
<linearGradient id="paint1_linear_193_1898" x1="39" y1="24.5" x2="13.1274" y2="24.5" gradientUnits="userSpaceOnUse">
<stop stop-color="#8F8F8F"/>
<stop offset="1" stop-color="#373737"/>
</linearGradient>
<linearGradient id="paint2_linear_193_1898" x1="39" y1="24.5" x2="13.1274" y2="24.5" gradientUnits="userSpaceOnUse">
<stop stop-color="#8F8F8F"/>
<stop offset="1" stop-color="#373737"/>
</linearGradient>
<linearGradient id="paint3_linear_193_1898" x1="39" y1="24.5" x2="13.1274" y2="24.5" gradientUnits="userSpaceOnUse">
<stop stop-color="#8F8F8F"/>
<stop offset="1" stop-color="#373737"/>
</linearGradient>
<linearGradient id="paint4_linear_193_1898" x1="39" y1="24.5" x2="13.1274" y2="24.5" gradientUnits="userSpaceOnUse">
<stop stop-color="#8F8F8F"/>
<stop offset="1" stop-color="#373737"/>
</linearGradient>
<linearGradient id="paint5_linear_193_1898" x1="39" y1="24.5" x2="13.1274" y2="24.5" gradientUnits="userSpaceOnUse">
<stop stop-color="#8F8F8F"/>
<stop offset="1" stop-color="#373737"/>
</linearGradient>
<linearGradient id="paint6_linear_193_1898" x1="39" y1="24.5" x2="13.1274" y2="24.5" gradientUnits="userSpaceOnUse">
<stop stop-color="#8F8F8F"/>
<stop offset="1" stop-color="#373737"/>
</linearGradient>
</defs>
</svg>
