<svg width="50" height="50" viewBox="0 0 50 50" fill="none" xmlns="http://www.w3.org/2000/svg">
<g clip-path="url(#clip0_193_1868)">
<path fill-rule="evenodd" clip-rule="evenodd" d="M50 25C50 38.8071 38.8071 50 25 50C11.1929 50 0 38.8071 0 25C0 11.1929 11.1929 0 25 0C38.8071 0 50 11.1929 50 25ZM25.8959 18.4561C23.4643 19.4675 18.6045 21.5608 11.3164 24.7361C10.133 25.2067 9.51304 25.6671 9.4566 26.1173C9.36122 26.8781 10.314 27.1777 11.6114 27.5857C11.7879 27.6412 11.9707 27.6987 12.1582 27.7596C13.4347 28.1745 15.1517 28.6599 16.0443 28.6792C16.854 28.6967 17.7578 28.3629 18.7555 27.6778C25.5649 23.0813 29.08 20.7579 29.3006 20.7078C29.4563 20.6725 29.6721 20.6281 29.8183 20.758C29.9644 20.8879 29.9501 21.134 29.9346 21.2C29.8402 21.6024 26.1003 25.0794 24.1648 26.8787C23.5615 27.4396 23.1335 27.8375 23.046 27.9284C22.85 28.132 22.6503 28.3245 22.4583 28.5096C21.2724 29.6528 20.3831 30.51 22.5075 31.91C23.5284 32.5827 24.3453 33.139 25.1603 33.6941C26.0504 34.3002 26.9381 34.9047 28.0867 35.6576C28.3793 35.8495 28.6588 36.0487 28.931 36.2428C29.9668 36.9812 30.8974 37.6446 32.0471 37.5388C32.7151 37.4773 33.4051 36.8492 33.7556 34.9757C34.5838 30.5482 36.2117 20.9551 36.588 17.002C36.6209 16.6557 36.5794 16.2124 36.5461 16.0179C36.5129 15.8233 36.4433 15.5461 36.1903 15.3408C35.8908 15.0978 35.4284 15.0465 35.2216 15.0502C34.2813 15.0667 32.8387 15.5684 25.8959 18.4561Z" fill="url(#paint0_linear_193_1868)"/>
</g>
<defs>
<linearGradient id="paint0_linear_193_1868" x1="50" y1="25" x2="5.39215" y2="25" gradientUnits="userSpaceOnUse">
<stop stop-color="#8F8F8F"/>
<stop offset="1" stop-color="#373737"/>
</linearGradient>
<clipPath id="clip0_193_1868">
<rect width="50" height="50" fill="white"/>
</clipPath>
</defs>
</svg>
