<svg width="50" height="50" viewBox="0 0 50 50" fill="none" xmlns="http://www.w3.org/2000/svg">
<path d="M25 1.26807C11.8926 1.26807 1.26758 11.8931 1.26758 25.0001C1.26758 38.1063 11.8926 48.7321 25 48.7321C38.107 48.7321 48.7324 38.1063 48.7324 25.0001C48.7324 11.8931 38.1074 1.26807 25 1.26807V1.26807ZM30.3246 9.44072C30.5326 9.08046 30.8095 8.76469 31.1395 8.51143C31.4694 8.25817 31.8461 8.07239 32.2479 7.9647C32.6497 7.857 33.0688 7.8295 33.4812 7.88377C33.8936 7.93803 34.2913 8.073 34.6516 8.28096C35.0118 8.48892 35.3276 8.7658 35.5809 9.0958C35.8341 9.42579 36.0199 9.80244 36.1276 10.2042C36.2353 10.606 36.2628 11.0251 36.2085 11.4375C36.1543 11.85 36.0193 12.2476 35.8113 12.6079C35.6035 12.9683 35.3266 13.2841 34.9966 13.5374C34.6666 13.7907 34.2899 13.9765 33.888 14.0841C33.4862 14.1918 33.0671 14.2191 32.6546 14.1647C32.2422 14.1103 31.8445 13.9751 31.4844 13.7669C30.7571 13.3468 30.2263 12.6552 30.0089 11.8439C29.7914 11.0327 29.905 10.1683 30.3246 9.44072V9.44072ZM25 11.2356C26.2742 11.2356 27.5066 11.4126 28.6773 11.736C28.782 12.3879 29.0309 13.0082 29.4059 13.5517C29.7808 14.0952 30.2723 14.5481 30.8445 14.8774C31.4152 15.2073 32.0522 15.4061 32.7092 15.4594C33.3663 15.5127 34.0269 15.4192 34.6434 15.1856C36.9863 17.4896 38.5109 20.6228 38.7332 24.113L34.2184 24.1794C33.8016 19.4517 29.8348 15.7446 25 15.7446C23.6533 15.7433 22.3226 16.037 21.1016 16.6052L18.8996 12.6603C20.796 11.7212 22.8839 11.2336 25 11.2356V11.2356ZM8.86289 28.1688C8.44673 28.1689 8.03464 28.087 7.65014 27.9278C7.26565 27.7685 6.91628 27.5351 6.62199 27.2409C6.32771 26.9466 6.09426 26.5973 5.93499 26.2128C5.77572 25.8283 5.69375 25.4163 5.69375 25.0001C5.69365 24.5839 5.77555 24.1717 5.93478 23.7872C6.09401 23.4027 6.32744 23.0533 6.62174 22.7589C6.91604 22.4646 7.26545 22.2312 7.64999 22.072C8.03454 21.9128 8.44668 21.8309 8.86289 21.831C9.69725 21.8402 10.4943 22.1782 11.081 22.7715C11.6678 23.3647 11.9968 24.1655 11.9968 24.9999C11.9968 25.8343 11.6678 26.6351 11.081 27.2283C10.4943 27.8216 9.69725 28.1596 8.86289 28.1688ZM11.6719 28.4509C12.1848 28.0339 12.5982 27.5078 12.882 26.9108C13.1658 26.3138 13.3129 25.6611 13.3125 25.0001C13.3125 23.6075 12.6723 22.3646 11.6719 21.5485C12.5289 18.2325 14.5918 15.4009 17.3637 13.5474L19.6805 17.4278C17.3008 19.1024 15.7453 21.8688 15.7453 25.0001C15.7453 28.1313 17.3004 30.8978 19.6805 32.5716L17.3637 36.4532C14.5906 34.6001 12.5277 31.7677 11.6719 28.4509V28.4509ZM34.6527 41.7181C34.2925 41.9262 33.8948 42.0614 33.4824 42.1157C33.0699 42.1701 32.6507 42.1427 32.2489 42.035C31.847 41.9273 31.4704 41.7414 31.1404 41.488C30.8104 41.2346 30.5336 40.9187 30.3258 40.5583C29.4504 39.0438 29.9699 37.1071 31.4855 36.2317C33 35.3571 34.9379 35.877 35.8125 37.3915C36.0206 37.7517 36.1556 38.1494 36.2099 38.5618C36.2642 38.9742 36.2368 39.3933 36.1291 39.7951C36.0214 40.1969 35.8355 40.5735 35.5822 40.9035C35.3289 41.2334 35.0131 41.5102 34.6527 41.7181V41.7181ZM34.6434 34.8145C34.0271 34.5804 33.3663 34.4865 32.7092 34.5397C32.0521 34.593 31.4151 34.792 30.8445 35.1224C30.2724 35.4518 29.781 35.9048 29.4062 36.4482C29.0313 36.9917 28.7825 37.6119 28.6777 38.2638C27.4801 38.5963 26.2429 38.765 25 38.7653C22.8839 38.7673 20.7961 38.2795 18.9 37.3399L21.1016 33.3946C22.3226 33.9629 23.6532 34.2568 25 34.2556C29.8352 34.2556 33.8016 30.5493 34.2172 25.8212L38.7332 25.8872C38.5109 29.3774 36.9863 32.5106 34.6434 34.8145V34.8145Z" fill="url(#paint0_linear_193_161)"/>
<defs>
<linearGradient id="paint0_linear_193_161" x1="48.7324" y1="25.0001" x2="6.38633" y2="25.0001" gradientUnits="userSpaceOnUse">
<stop stop-color="#8F8F8F"/>
<stop offset="1" stop-color="#373737"/>
</linearGradient>
</defs>
</svg>
