<svg width="50" height="50" viewBox="0 0 50 50" fill="none" xmlns="http://www.w3.org/2000/svg">
<path d="M32.2188 24.8353L40.9758 9.83447L45.207 24.8353L40.9758 39.8345L32.2188 24.8353ZM27.9508 27.272L36.7094 42.2728L21.4566 38.397L10.4367 27.272H27.9508ZM36.7066 7.39463L27.9512 22.3985H10.4371L21.457 11.2716L36.7066 7.39463ZM49.2066 19.7313L43.8645 0.012207L23.9258 5.29658L20.9746 10.445L14.984 10.4024L0.390625 24.8368L14.984 39.27H14.9855L20.9715 39.2259L23.9285 44.3728L43.8641 49.6567L49.2063 29.9407L46.1742 24.8353L49.2066 19.7313Z" fill="url(#paint0_linear_193_155)"/>
<defs>
<linearGradient id="paint0_linear_193_155" x1="49.2066" y1="24.8345" x2="5.6551" y2="24.8345" gradientUnits="userSpaceOnUse">
<stop stop-color="#8F8F8F"/>
<stop offset="1" stop-color="#373737"/>
</linearGradient>
</defs>
</svg>
