<svg width="50" height="50" viewBox="0 0 50 50" fill="none" xmlns="http://www.w3.org/2000/svg">
<path d="M0 50L3.51458 37.1604C1.34583 33.4021 0.20625 29.1417 0.208333 24.7729C0.214583 11.1146 11.3291 0 24.9854 0C31.6124 0.00208333 37.8332 2.58333 42.5124 7.26667C47.1895 11.95 49.7645 18.175 49.7624 24.7958C49.7561 38.4562 38.6416 49.5708 24.9854 49.5708C20.8395 49.5687 16.7541 48.5292 13.1354 46.5542L0 50ZM13.7437 42.0688C17.2354 44.1417 20.5687 45.3833 24.977 45.3854C36.327 45.3854 45.5728 36.1479 45.5791 24.7917C45.5832 13.4125 36.3812 4.1875 24.9937 4.18333C13.6354 4.18333 4.39582 13.4208 4.39166 24.775C4.38957 29.4104 5.7479 32.8812 8.02915 36.5125L5.9479 44.1125L13.7437 42.0688ZM37.4666 30.6854C37.3124 30.4271 36.8999 30.2729 36.2791 29.9625C35.6603 29.6521 32.6166 28.1542 32.0478 27.9479C31.4812 27.7417 31.0687 27.6375 30.6541 28.2583C30.2416 28.8771 29.0541 30.2729 28.6937 30.6854C28.3333 31.0979 27.9708 31.15 27.352 30.8396C26.7333 30.5292 24.7374 29.8771 22.3729 27.7667C20.5333 26.125 19.2895 24.0979 18.9291 23.4771C18.5687 22.8583 18.8916 22.5229 19.2 22.2146C19.4791 21.9375 19.8187 21.4917 20.1291 21.1292C20.4437 20.7708 20.5458 20.5125 20.7541 20.0979C20.9604 19.6854 20.8583 19.3229 20.702 19.0125C20.5458 18.7042 19.3083 15.6562 18.7937 14.4167C18.2895 13.2104 17.7791 13.3729 17.4 13.3542L16.2125 13.3333C15.8 13.3333 15.1291 13.4875 14.5625 14.1083C13.9958 14.7292 12.3958 16.225 12.3958 19.2729C12.3958 22.3208 14.6146 25.2646 14.9229 25.6771C15.2333 26.0896 19.2875 32.3437 25.4979 35.025C26.9749 35.6625 28.1291 36.0437 29.027 36.3292C30.5103 36.8 31.8603 36.7333 32.927 36.575C34.1166 36.3979 36.5895 35.0771 37.1062 33.6312C37.6228 32.1833 37.6228 30.9437 37.4666 30.6854Z" fill="url(#paint0_linear_193_1844)"/>
<defs>
<linearGradient id="paint0_linear_193_1844" x1="49.7624" y1="25" x2="5.36653" y2="25" gradientUnits="userSpaceOnUse">
<stop stop-color="#8F8F8F"/>
<stop offset="1" stop-color="#373737"/>
</linearGradient>
</defs>
</svg>
